<svg xmlns="http://www.w3.org/2000/svg" viewBox="0 0 133.53 27.84"><defs><style>.a{fill:#fff;}.b{fill:#ffde26;}.c{fill:#262626;}.d{fill:#2b2c2c;}.e{fill:#e53e33;}.f{fill:#2f2f27;}.g{fill:#2c2f2c;}</style></defs><path class="a" d="M37.37,5.13a8.06,8.06,0,0,0-8.43,8.29c0,4.67,2.81,8,8.07,8A10.35,10.35,0,0,0,42,20.26a4.33,4.33,0,0,1-.68-2.35A7.77,7.77,0,0,1,37.37,19c-3.27,0-5.3-2.32-5.3-5.67,0-3.13,1.86-5.8,5.39-5.8a9,9,0,0,1,4.12,1V5.85a11.49,11.49,0,0,0-4.21-.72"/><path class="a" d="M78,18.9a4.39,4.39,0,0,1-1.31-.18V12.11a4.15,4.15,0,0,1,1.72-.37c1.9,0,3,1.41,3,3.4,0,2.27-1.31,3.76-3.4,3.76M76.66,4h-2.9V20.49a8.21,8.21,0,0,0,3.76.82c3.9,0,6.84-2.31,6.84-6.35a5.25,5.25,0,0,0-5.48-5.62,7.68,7.68,0,0,0-2.22.32V4Z"/><path class="a" d="M106.11,19a3.24,3.24,0,0,1-3.49-3.49,3.4,3.4,0,0,1,3.49-3.72,5.49,5.49,0,0,1,1.36.19v6.84a4.34,4.34,0,0,1-1.36.18m4.26-14.95h-2.9V9.62a8.32,8.32,0,0,0-1.54-.14,5.93,5.93,0,0,0-6.25,6.12c0,3.76,2.76,5.84,6.52,5.84a9.89,9.89,0,0,0,4.22-.86V4.09Z"/><path class="a" d="M126.14,14.24c0-1.36.82-2.59,2.22-2.59s2.18,1.27,2.22,2.59Zm2.27-4.76c-3.27,0-5.17,2.58-5.17,6,0,3.08,1.68,5.93,5.85,5.93a7.41,7.41,0,0,0,4-1.09l-.86-2a5.73,5.73,0,0,1-2.86.77,2.91,2.91,0,0,1-3.21-2.9h7.34v-.68c-.05-3.76-1.91-6.07-5.12-6.07"/><path class="a" d="M47,19.18a1.5,1.5,0,0,1-1.68-1.59A1.41,1.41,0,0,1,46,16.28a3.25,3.25,0,0,1,1.67-.37l1.5,0v2.49a3.46,3.46,0,0,1-2.17.82m.54-9.7a8.86,8.86,0,0,0-4.44,1.13l1,1.86a6.3,6.3,0,0,1,3-.82c1.32,0,2.22.59,2.22,1.91v.36l-2,.09a7.06,7.06,0,0,0-2.94.64,3.27,3.27,0,0,0-2,3.12,3.58,3.58,0,0,0,3.81,3.67,5,5,0,0,0,3.3-1.31h.23a4,4,0,0,0,.77.63l1.5.77,0,0,.05,0V14.78h0V13.65c0-2.77-1.54-4.17-4.58-4.17"/><path class="a" d="M54.27,9.21l0,0V21.13h2.85V13.06a4.58,4.58,0,0,1,2.72-1.13c1.49,0,1.68,1.13,1.68,2.44v6.76h2.9V13.51l0-.45a4.39,4.39,0,0,1,2.72-1.13c1.5,0,1.72,1,1.72,2.4v6.8h2.9V13.56c0-3-1.77-4.13-3.8-4.13a6.67,6.67,0,0,0-4.13,1.77,3.17,3.17,0,0,0-3-1.77A6.33,6.33,0,0,0,56.85,11h-.09a2.32,2.32,0,0,0-1-1L54.27,9.3Z"/><path class="a" d="M92,9.52A4.13,4.13,0,0,0,88.85,11l-.32-1.27H86.08V21.22H89V13.15a3.26,3.26,0,0,1,2.5-1.41,2.79,2.79,0,0,1,1.76.68V9.8A3.57,3.57,0,0,0,92,9.52"/><path class="a" d="M97.82,9.75h-2.9V21.22h2.9Zm-1.45-5.3a1.72,1.72,0,1,0,0,3.44,1.77,1.77,0,0,0,1.81-1.72,1.76,1.76,0,0,0-1.81-1.72"/><path class="a" d="M117.21,24.48c-1.9,0-3.12-.68-3.12-1.86a1.87,1.87,0,0,1,.9-1.49c1.55.58,5.13.27,5.13,1.9,0,.86-1.18,1.45-2.91,1.45m-.22-9a2,2,0,0,1-2-2.13,1.94,1.94,0,0,1,2-2.13,2,2,0,0,1,2,2.18,1.92,1.92,0,0,1-2,2.08M123.15,9h-6.21c-3.12,0-4.67,2.08-4.67,4.21a3.92,3.92,0,0,0,1.91,3.54,2.74,2.74,0,0,0-1.36,2.12,1.68,1.68,0,0,0,.77,1.45,3.07,3.07,0,0,0-2,2.77c0,2,2,3.35,5.3,3.35,4,0,6-1.67,6-3.76,0-4.26-7.52-2.36-7.52-4.44a2,2,0,0,1,.27-.86,4.29,4.29,0,0,0,1.4.18c2.77,0,4.76-1.68,4.76-4.21a4,4,0,0,0-.81-2.45h.31a1.65,1.65,0,0,0,1.41-.86l.5-1,0,0Z"/><path class="b" d="M22.83,15.18a13.35,13.35,0,0,1-.55,3.39A8,8,0,0,1,21,21.12a8.58,8.58,0,0,1-3.1,2.47c-.06,0-.55.29-2.93,1.47l0,.06h.06V15.27h7.82v-.12H15V25.21l.09,0C17.41,24,17.91,23.76,18,23.7a8.93,8.93,0,0,0,3.13-2.52A8.58,8.58,0,0,0,22.4,18.6,13.38,13.38,0,0,0,23,15.18Z"/><path class="b" d="M8.89,15.21v9.91H9l0-.06c-2.37-1.18-2.87-1.42-2.92-1.47A9.16,9.16,0,0,1,3,21.09a8,8,0,0,1-1.27-2.55,12.92,12.92,0,0,1-.55-3.39H1.07v.06H9V15.1H1v.05a14.06,14.06,0,0,0,.55,3.42,9,9,0,0,0,1.31,2.58A9.29,9.29,0,0,0,6,23.67c.08,0,.58.29,2.92,1.48l.09.06v-10Z"/><polygon class="c" points="22.89 1.07 22.89 1.01 14.95 1.01 14.95 9.21 22.98 9.21 22.98 1.01 22.89 1.01 22.89 1.07 22.83 1.07 22.83 9.1 15.07 9.1 15.07 1.13 22.89 1.13 22.89 1.07 22.83 1.07 22.89 1.07"/><polygon class="c" points="8.95 1.07 8.95 1.01 1.01 1.01 1.01 9.21 9.01 9.21 9.01 1.01 8.95 1.01 8.95 1.07 8.89 1.07 8.89 9.1 1.13 9.1 1.13 1.13 8.95 1.13 8.95 1.07 8.89 1.07 8.95 1.07"/><path class="d" d="M12,27.84l-.23-.11c-.34-.18-5.91-2.93-6.23-3.1-1.79-1-5.53-3-5.53-10.14V0H24V14.49c0,7.12-3.74,9.15-5.54,10.14-.31.17-5.91,2.95-6.22,3.1Z"/><path class="a" d="M14.43,9.74V.49H9.53V9.74h-9v4.89h9V26.05c1.31.63,2.44,1.21,2.44,1.21h0s1.13-.58,2.43-1.21V14.63h9V9.74Z"/><rect class="e" x="0.49" y="0.49" width="9.04" height="9.24"/><rect class="e" x="14.43" y="0.49" width="9.04" height="9.24"/><path class="e" d="M9.53,14.63h-9c.06,6.64,3.45,8.55,5.28,9.53.17.09,2.11,1.08,3.79,1.89V14.63Z"/><path class="e" d="M14.43,14.63V26.05c1.65-.84,3.59-1.8,3.79-1.89,1.83-1,5.22-2.89,5.28-9.53Z"/><path class="d" d="M17.53,12.26,17.7,12l-.23-.29-.23.29.17.24c0,.11,0,1.1-.58,1.44a2,2,0,0,0,.47,0,4.58,4.58,0,0,0,.17.56,3.81,3.81,0,0,0,.18-.56,1,1,0,0,0,.46,0c-.58-.37-.58-1.33-.58-1.44"/><path class="d" d="M19,10.58l.17-.24L19,10.05l-.23.29.17.24c0,.11,0,1.1-.58,1.44a1.94,1.94,0,0,0,.46,0,3.81,3.81,0,0,0,.18.56,4.58,4.58,0,0,0,.17-.56,1,1,0,0,0,.47,0C19,11.68,19,10.69,19,10.58"/><path class="d" d="M20.48,12.26l.18-.24-.23-.29-.24.29.18.24c0,.11,0,1.1-.58,1.44a1.94,1.94,0,0,0,.46,0,3.81,3.81,0,0,0,.18.56,4.58,4.58,0,0,0,.17-.56,1,1,0,0,0,.46,0c-.58-.37-.58-1.33-.58-1.44"/><path class="d" d="M22,10.58l.18-.24-.24-.29-.23.29.18.24c0,.11,0,1.1-.58,1.44a1.94,1.94,0,0,0,.46,0,4.58,4.58,0,0,0,.17.56,3.81,3.81,0,0,0,.18-.56,1,1,0,0,0,.46,0C22,11.68,22,10.69,22,10.58"/><path class="d" d="M16.05,10.58l.17-.24L16,10.05l-.23.29.18.24c0,.11,0,1.1-.58,1.44a1.94,1.94,0,0,0,.46,0,4.58,4.58,0,0,0,.17.56,3.81,3.81,0,0,0,.18-.56,1,1,0,0,0,.46,0c-.58-.34-.58-1.33-.58-1.44"/><path class="d" d="M3.59,12.26,3.77,12l-.24-.29L3.3,12l.18.24c0,.11,0,1.1-.58,1.44a1.94,1.94,0,0,0,.46,0,4.58,4.58,0,0,0,.17.56,3.81,3.81,0,0,0,.18-.56,1,1,0,0,0,.46,0,1.63,1.63,0,0,1-.58-1.44"/><path class="d" d="M5,10.58l.17-.24L5,10.05l-.23.29.18.24c0,.11,0,1.1-.58,1.44a1.94,1.94,0,0,0,.46,0,4.58,4.58,0,0,0,.17.56A3.81,3.81,0,0,0,5.16,12a1,1,0,0,0,.46,0C5,11.68,5,10.69,5,10.58"/><path class="d" d="M6.52,12.26,6.69,12l-.23-.29L6.23,12l.17.24c0,.11,0,1.1-.58,1.44a2,2,0,0,0,.47,0,3.14,3.14,0,0,0,.17.56,3.81,3.81,0,0,0,.18-.56,1,1,0,0,0,.46,0c-.58-.37-.58-1.33-.58-1.44"/><path class="d" d="M8,10.58l.17-.24-.23-.29-.23.29.17.24c0,.11,0,1.1-.58,1.44a1.94,1.94,0,0,0,.46,0,3.81,3.81,0,0,0,.18.56A4.58,4.58,0,0,0,8.11,12a1,1,0,0,0,.47,0C8,11.68,8,10.69,8,10.58"/><path class="d" d="M2.11,10.58l.18-.24-.23-.29-.23.29.17.24c0,.11,0,1.1-.58,1.44a1.94,1.94,0,0,0,.46,0,3.81,3.81,0,0,0,.18.56A4.58,4.58,0,0,0,2.23,12a1,1,0,0,0,.46,0c-.6-.34-.58-1.33-.58-1.44"/><path class="d" d="M12.05,16l.18-.23L12,15.47l-.23.29.18.23c0,.12,0,1.1-.58,1.45a1.94,1.94,0,0,0,.46,0A4.76,4.76,0,0,0,12,18a3.92,3.92,0,0,0,.18-.55,1,1,0,0,0,.46,0c-.61-.35-.58-1.33-.58-1.45"/><path class="d" d="M12.05,21l.18-.24L12,20.49l-.23.28.18.24c0,.11,0,1.1-.58,1.45a2.9,2.9,0,0,0,.46,0A4.76,4.76,0,0,0,12,23a3.92,3.92,0,0,0,.18-.55,1.17,1.17,0,0,0,.46,0c-.61-.35-.58-1.34-.58-1.45"/><path class="d" d="M13.41,18.51l.18-.23L13.36,18l-.24.29.18.23c0,.12,0,1.11-.58,1.45a1.94,1.94,0,0,0,.46,0,3.92,3.92,0,0,0,.18.55,4.76,4.76,0,0,0,.17-.55A1,1,0,0,0,14,20c-.58-.37-.58-1.36-.58-1.45"/><path class="d" d="M10.66,18.51l.18-.23L10.6,18l-.23.29.18.23c0,.12,0,1.11-.58,1.45a1.94,1.94,0,0,0,.46,0,4.76,4.76,0,0,0,.17.55,3.92,3.92,0,0,0,.18-.55,1,1,0,0,0,.46,0c-.58-.37-.58-1.36-.58-1.45"/><path class="d" d="M13.41,23.5l.18-.23L13.36,23l-.24.29.18.23c0,.11,0,1.1-.58,1.45a1.94,1.94,0,0,0,.46,0,3.92,3.92,0,0,0,.18.55,4.76,4.76,0,0,0,.17-.55A1,1,0,0,0,14,25c-.58-.35-.58-1.34-.58-1.45"/><path class="d" d="M10.66,23.5l.18-.23L10.6,23l-.23.29.18.23c0,.11,0,1.1-.58,1.45a1.94,1.94,0,0,0,.46,0,4.76,4.76,0,0,0,.17.55,3.92,3.92,0,0,0,.18-.55,1,1,0,0,0,.46,0c-.58-.35-.58-1.34-.58-1.45"/><path class="d" d="M12.05,4.61l.18-.23L12,4.09l-.23.29.18.23c0,.11,0,1.1-.58,1.45a2.9,2.9,0,0,0,.46,0,4.76,4.76,0,0,0,.17.55,3.92,3.92,0,0,0,.18-.55,1.17,1.17,0,0,0,.46,0c-.61-.38-.58-1.34-.58-1.45"/><path class="d" d="M13.41,2.09l.18-.24-.23-.29-.24.29.18.24c0,.11,0,1.1-.58,1.44a1.94,1.94,0,0,0,.46,0,3.81,3.81,0,0,0,.18.56,4.58,4.58,0,0,0,.17-.56,1,1,0,0,0,.46,0c-.58-.34-.58-1.33-.58-1.44"/><path class="d" d="M10.66,2.09l.18-.24-.24-.29-.23.29.18.24c0,.11,0,1.1-.58,1.44a1.94,1.94,0,0,0,.46,0,4.58,4.58,0,0,0,.17.56,3.81,3.81,0,0,0,.18-.56,1,1,0,0,0,.46,0c-.58-.34-.58-1.33-.58-1.44"/><path class="d" d="M13.41,7.1l.18-.23-.23-.29-.24.29.18.23c0,.11,0,1.1-.58,1.45a1.94,1.94,0,0,0,.46,0,3.92,3.92,0,0,0,.18.55,4.76,4.76,0,0,0,.17-.55,1.17,1.17,0,0,0,.46,0c-.58-.35-.58-1.34-.58-1.45"/><path class="d" d="M10.66,7.1l.18-.23-.24-.29-.23.29.18.23c0,.11,0,1.1-.58,1.45a1.94,1.94,0,0,0,.46,0,4.76,4.76,0,0,0,.17.55,3.92,3.92,0,0,0,.18-.55,1.17,1.17,0,0,0,.46,0c-.58-.35-.58-1.34-.58-1.45"/><path class="d" d="M7.59,5l0,.12.06.23c.08.43.17.55.4.55a.25.25,0,0,0,.26-.17l.06-.15.09-.06c.09,0,.11.09.11.29s0,.18.06.38a1.38,1.38,0,0,1,0,.35l-.06.23a2.77,2.77,0,0,1,.06.46.93.93,0,0,1-.09.47.92.92,0,0,1,0,.29l0,.26a2.06,2.06,0,0,0,0,.26l0,.11,0,.09,0,0-.14-.06-.17-.09-.18-.14c-.14.14-.2.14-.58.26l-.17.06-.12.06s-.08-.12-.08-.32a2.44,2.44,0,0,1,0-.44A1.29,1.29,0,0,0,7,8.05l-.11,0h0l0-.08.06-.18.08-.17.18-.23.2-.12.26-.06c.18,0,.26-.11.26-.23s-.08-.17-.23-.23l-.32-.12L7,6.52c-.17-.12-.2-.12-.26-.12l-.11.15a.2.2,0,0,0,.2.23l.08,0,.09,0L7,6.78v0l0,.12a1,1,0,0,1-.23.46l-.06.09a1,1,0,0,1-.4.6l-.09.06-.06.12L6,8.43l-.21.17-.14.15-.09.14-.06,0s-.14-.05-.17-.2L5.24,8.6l-.14,0L5,8.66H4.69a1,1,0,0,0-.43.09l-.09,0-.06-.06,0-.06a1.26,1.26,0,0,1,.24-.61.52.52,0,0,1,.2-.23.35.35,0,0,0-.2-.26l-.15,0,0,0s.06-.08.18-.14a.78.78,0,0,1,.43-.12.56.56,0,0,1,.38.18c.2.17.26.2.37.2a.32.32,0,0,0,.32-.32.62.62,0,0,0-.2-.4,1.13,1.13,0,0,1-.29-.64.61.61,0,0,1,.09-.35L5.5,5.8l0-.09-.14-.09a1.48,1.48,0,0,0-.55.2L4.69,6l0,.06.09.05,0,0,0,.06-.15.2a2.51,2.51,0,0,1-.31.35l-.09.09L4.2,7a1,1,0,0,1-.35.35l-.11.09-.06.11-.09.18-.17.23-.2.2A1.51,1.51,0,0,0,3,8.58c-.06.17-.11.26-.14.26l-.06-.06a.74.74,0,0,0-.35-.29l-.08,0-.21.08-.29.06a.53.53,0,0,0-.4.23L1.42,9l0-.08V8.81l0-.21a1.72,1.72,0,0,1,.14-.49l.12-.23,0-.12a.38.38,0,0,0-.41-.34l-.08-.06.14-.17A.91.91,0,0,1,1.85,7a1,1,0,0,1,.35.09l.18.06.17,0c.17,0,.35-.18.58-.52a.94.94,0,0,0,.14-.41c0-.2-.08-.32-.23-.32a.48.48,0,0,0-.32.15l-.11.23V6.4l-.06.12c-.09,0-.17-.12-.49-.46a.84.84,0,0,1-.29-.67,1,1,0,0,1-.32-.7V4.55A.77.77,0,0,1,1.22,4l.05-.2a1.78,1.78,0,0,1-.14-.3l0-.17L1,3.07.9,2.93c0-.09.06-.12.32-.21l0-.17,0-.17.05-.29a1,1,0,0,0,0-.24.6.6,0,0,0-.05-.23l-.06-.17-.06-.12.06,0a1.21,1.21,0,0,1,.49.29,1.28,1.28,0,0,1,.58,1l0,.14a.72.72,0,0,1,.32.56,1.07,1.07,0,0,1-.15.49L2.32,4l-.06.26a.79.79,0,0,0,.14.46c.12.21.24.29.35.29s.38-.34.38-.75V3.91l0-.26a1.41,1.41,0,0,1,0-.23V3.13L3.1,3l-.17-.17a1.12,1.12,0,0,1-.38-.69A.39.39,0,0,1,3,1.71l.18,0V1.68c0-.35.06-.58.17-.58h0l.15.12.17.11.06.06.08-.2L3.91,1,4,.93,4,.87l0-.06.06.12s0,0,.18.17l-.09.06.06.14,0,.06.14-.14.12-.06.08,0,0,.06.06.11a.56.56,0,0,1,.12.29v.18c.26.08.34.2.34.49a1.32,1.32,0,0,1-.28.67c-.15.14-.15.17-.15.29,0,.58.41.89,1.1.89H6.4a2.08,2.08,0,0,1,.84.15,1.94,1.94,0,0,0,.58.14l.09,0L8,4.32c0-.12-.18-.21-.81-.38-1.28-.35-1.8-.87-1.8-1.71A1.2,1.2,0,0,1,6.61,1.07a2,2,0,0,1,.75.15l.32.11.17,0C8,1.36,8,1.27,8,1.1L8.11,1c.09,0,.23.11.35.29a1,1,0,0,1,.2.49.45.45,0,0,1-.26.4.71.71,0,0,1-.66.38,2.26,2.26,0,0,1-1.08-.43.6.6,0,0,0-.37-.15.2.2,0,0,0-.23.2c0,.12.08.18.31.27a1.51,1.51,0,0,1,.55.28A1.83,1.83,0,0,1,7.74,3,1.38,1.38,0,0,1,8.84,4.2.82.82,0,0,1,8,5.07a.64.64,0,0,1-.41,0"/><path class="b" d="M8.34,8.4l0-.17V8.17l0-.12V8l-.05-.23L8.2,7.62l-.09-.14,0-.06.06-.06.09.06.08,0c.06,0,.06-.09.06-.21S8.37,7,8.31,7L8.2,6.84l-.09-.09,0-.06.06-.05.17,0h0l.06,0v0l0-.18-.06-.17-.05-.06h0L8,6.2H8a.67.67,0,0,1-.61-.46l-.15-.49a1.19,1.19,0,0,0-.37-.47l-.15-.09-.14,0,0,0,.09-.06.25,0a2.13,2.13,0,0,1,.41.11,1.39,1.39,0,0,0,.52.12c.38,0,.61-.2.61-.55a1,1,0,0,0-.32-.67l-.26-.17,0,0v.08h0l-.06.06,0-.14A.8.8,0,0,0,7.1,3L7,3l0,.12.06.14,0,.06,0,0L7,3.3l-.11-.11L6.78,3a.79.79,0,0,0-.32-.26l-.17-.09-.09,0,0,0,0,.09.06.12,0,.06c-.06,0-.17-.12-.29-.29a.86.86,0,0,1-.15-.44.57.57,0,0,1,.58-.58,1,1,0,0,1,.58.2l.35.24a1,1,0,0,0,.44.14L8,2.2l.08,0,0,0,0,0L8,2,7.82,2l-.2-.09a1.23,1.23,0,0,1-.38-.2A.55.55,0,0,0,7,1.56l-.09-.08,0,0,.09,0,.29.11.32.12a2.1,2.1,0,0,0,.52.12.26.26,0,0,0,.26-.27l-.14-.34-.06,0-.06.06v.14L8,1.56l-.12,0-.49-.18a2.34,2.34,0,0,0-.81-.17,1,1,0,0,0-1,1c0,.61.44,1,1.48,1.37s1.19.43,1.19.72a.32.32,0,0,1-.32.29l-.17,0s-.21-.06-.52-.11a3.37,3.37,0,0,0-1-.12,2,2,0,0,0-1.54.49l-.23.09H4.29L4.08,5A1,1,0,0,0,4,5.19l-.09.06c-.06,0-.11-.06-.2-.24l-.17-.23-.15-.14,0-.06,0-.06.12-.2,0-.12c.06,0,.06.06.06.23l.06.21.09.17,0,0c.09,0,.18-.17.21-.38s0-.2.08-.2l0,0,.06.14.09.12.09.06h0c.05,0,.08,0,.08-.18V4.35l0-.12V4.14l.06-.08.06,0,.09.08.14.09.12-.06L4.81,4l-.06-.09c-.06-.11-.11-.17-.17-.17H4.49l-.09,0-.05,0,0,0a.77.77,0,0,1,.14-.32,1.19,1.19,0,0,0,.12-.61c0-.41.08-.67.14-.67l.06.12v.2l0,.12c.06,0,.14-.09.2-.26l0-.15v0L4.9,1.91l-.15-.06-.06,0V1.65l0-.09,0-.08,0-.09a.82.82,0,0,0-.32.23l-.12.12,0,0,0-.12v0a.52.52,0,0,0-.26-.43l-.06.06-.06.08-.08.12-.09.15,0,.08h0v0l0,.09h0l0-.09-.09-.09-.12-.08,0-.06,0,.06,0,.11v.26l-.06.09L3,1.91l-.11,0a.21.21,0,0,0-.21.21.89.89,0,0,0,.12.4l.09.15.08,0,0-.17,0-.14V2.32L3,2.23c.06,0,.06.06.09.18l.06.28L3.25,3l.08.32a.81.81,0,0,0,.15.26l.08.15,0,0,0,0H3.3c-.11,0-.14.11-.14.61a3,3,0,0,0,.14.92l.18.41,0,.2A2.84,2.84,0,0,1,1.94,7.76a.61.61,0,0,0-.4.64v.09a1.44,1.44,0,0,1,.26-.12c.23,0,.26-.08.31-.2l0-.09s0-.05.21-.14l.11-.09.09-.09,0,0v0l-.09.23v.06a.41.41,0,0,0,.26.38,1.65,1.65,0,0,1,.09-.32L3,8A.53.53,0,0,0,3,7.65l0-.23V7.36l.06-.06.06,0,0,.15.09,0c.08,0,.17-.08.26-.26l.05-.2V7l0-.11v0l.06-.09h0l.06.18L3.77,7l.2-.2A.56.56,0,0,0,4,6.46c0-.17,0-.2.08-.2l0,0,0,.08.06.06.17-.2,0-.06-.06-.11-.08-.18a.68.68,0,0,1,.08-.26l.09-.17c.09-.2.15-.23.18-.23l.05,0,0,.06,0,.09.05.06.15-.06A.66.66,0,0,0,5,5.33l.26-.08.15,0,.14,0,.18,0,.14-.11-.12-.23,0-.06v0l0,0c.06,0,.18.12.29.29.67,1,.9,1.3,1.34,1.42S8,6.75,8,7a1.13,1.13,0,0,1-.24.55,1.61,1.61,0,0,0-.4,1v0l.09,0,.11-.06.2,0,.12-.15v0l0-.18v0l.06-.17,0,0L8,8l.11.26c0,.06.06.11.23.17"/><path class="b" d="M2.17,2.84,2.09,3l0,.15A.72.72,0,0,0,2,3.3l.08.21.18-.21,0-.17,0-.17Z"/><path class="b" d="M1.54,1.74l.11.11a1.19,1.19,0,0,1,.26.87,2.9,2.9,0,0,1,0,.41c0,.12,0,.23,0,.32,0,1,.32,1.68.73,1.68.11,0,.2-.06.32-.23L3,4.84,3,4.9l0,.17v.15l0,.17,0,.14v0L3,5.62l-.14,0-.2.09a.79.79,0,0,0-.21.14l-.08.18-.06,0c-.06,0-.12-.08-.21-.2A1,1,0,0,1,2,5.62l.06,0h.23l.06-.06,0,0L2,5.33a.55.55,0,0,1-.26-.26,1.15,1.15,0,0,1-.15-.35l.06-.08.06,0,.09,0,.06-.05-.06-.09a.91.91,0,0,1-.47-.67l.06-.08h.06l.09,0h0l.05-.06-.05-.06-.12-.06-.12-.12a2.1,2.1,0,0,0-.14-.23L1,3.1,1,3l-.06,0,.23-.06c.12,0,.17.06.26.26s.09.2.12.2l0-.08,0-.24,0-.17,0-.12-.09-.05L1.3,2.58l-.05-.17,0-.15a1.46,1.46,0,0,0,.09-.49V1.71Z"/><path class="b" d="M2.43,7.27,2.2,7.21l-.14,0a.76.76,0,0,0-.29-.09.46.46,0,0,0-.32.12l.06,0,.14.12.15.12.11,0a.72.72,0,0,0,.52-.26"/><path class="b" d="M5.39,8.66l.14-.2c.21-.17.32-.32.32-.43V7.85l.06-.14.06,0,0,.08.06,0,.11-.09.09-.11.06-.15,0-.08L6.23,7.3l0-.11.06-.09.06,0,0,.08.06,0,.09,0,.06-.12,0-.06L6.55,7l-.09,0a.53.53,0,0,1-.23-.5l0-.08.06-.12,0-.12-.08-.23-.09-.17c-.06-.12-.06-.15-.11-.15H6L6,5.56l-.09.06-.09.12-.11.06-.12.28c0,.21,0,.27.29.7A.74.74,0,0,1,6,7.21c0,.32-.29.55-.84.67L4.81,8a.58.58,0,0,0-.46.55.53.53,0,0,1,.34-.06h.15L5,8.37l.26-.2.12-.06.09-.06h0l0,0-.08.15a.36.36,0,0,0-.12.29Z"/><path class="b" d="M4.43,7.48l.23.2.15.11.12,0H5c.12,0,.18,0,.18-.08l0-.06L5,7.53,5,7.45l-.26-.09a.71.71,0,0,0-.26.12"/><path class="b" d="M6.92,7.88h.21a.34.34,0,0,0,.34-.29L7.33,7.5c-.2,0-.32.12-.41.38"/><path class="f" d="M4.06,2.58l.08.11s.06-.08.15-.23A1.19,1.19,0,0,0,4.49,2l0-.06h0L4.37,2a.51.51,0,0,1-.26.14L4,2.29v.06l0,.11Z"/><path class="f" d="M3.59,2.17l.12.06.06.09v.23a.13.13,0,0,1-.15.14l-.09-.08-.17-.2a.72.72,0,0,1-.11-.35V2L3.3,2l.09,0Z"/><path class="f" d="M3.88,3H3.77l-.09,0-.12,0L3.45,3a1.67,1.67,0,0,0,.08.35l.09.23c.09.21.17.32.29.32s.12-.08.17-.26c.15-.37.24-.43.24-.58L4.2,2.93l-.09,0L4,3Z"/><polygon class="b" points="4 3.19 3.88 3.22 3.77 3.22 3.74 3.22 3.74 3.27 3.77 3.45 3.79 3.62 3.91 3.74 4.03 3.59 4.06 3.42 4.08 3.25 4.06 3.19 4 3.19"/><path class="d" d="M21.9,5l0,.12.06.23c.09.43.17.55.38.55a.26.26,0,0,0,.26-.17l.06-.15,0-.06c.09,0,.12.09.15.29a3.76,3.76,0,0,0,.06.38,1.5,1.5,0,0,1,0,.35l-.06.23,0,.09a1.13,1.13,0,0,1,0,.29,1.1,1.1,0,0,1-.09.55.83.83,0,0,1,0,.26,1,1,0,0,1,0,.26l0,.23v.14l0,.09,0,0-.14-.06-.18-.09-.17-.14a.7.7,0,0,1-.35.2,1.4,1.4,0,0,0-.41.15l-.11.06c-.06,0-.09-.12-.09-.29a1.46,1.46,0,0,1,.06-.47.68.68,0,0,0-.29-.06l-.12,0h0L21,8a.88.88,0,0,1,.11-.35.74.74,0,0,1,.38-.35l.29-.06c.17,0,.26-.11.26-.23s-.06-.17-.23-.23l-.32-.12-.32-.14L21,6.43l-.09,0-.12.15a.23.23,0,0,0,.23.23l.09,0,.06,0,.06.09a1,1,0,0,1-.18.49L21,7.42l-.06.08a1,1,0,0,1-.41.61l-.08.06-.06.12-.15.17-.2.17-.14.15-.09.14-.06,0c-.06,0-.14-.08-.17-.2l-.12-.12-.14,0-.12,0h-.26a1,1,0,0,0-.44.09l-.08,0-.06-.12a1.32,1.32,0,0,1,.43-.84.31.31,0,0,0-.2-.26l-.14,0,0,0s.06-.08.17-.14A.7.7,0,0,1,19,7.27a.6.6,0,0,1,.4.18c.21.17.26.2.38.2a.33.33,0,0,0,.32-.32.65.65,0,0,0-.2-.4,1,1,0,0,1-.29-.67.63.63,0,0,1,.17-.44l0-.08-.15-.09a.83.83,0,0,0-.31.09c-.24.11-.38.2-.38.26l0,.06.08.05,0,0,0,.06s0,.09-.14.2a1.85,1.85,0,0,1-.32.35l-.09.09L18.46,7a2,2,0,0,1-.32.35L18,7.39,18,7.5a2,2,0,0,1-.29.41l-.2.2a1.65,1.65,0,0,0-.23.47c-.06.17-.12.26-.15.26L17,8.78c-.15-.18-.29-.29-.35-.29l-.09,0-.2.08-.29.06a.69.69,0,0,0-.44.23L15.62,9l-.06-.08V8.81a.73.73,0,0,0,0-.21,1.26,1.26,0,0,1,.14-.49l.15-.23,0-.12c0-.17-.18-.31-.41-.34l-.09-.06.15-.17A1,1,0,0,1,16,7a1,1,0,0,1,.35.09l.17.06.18,0c.17,0,.35-.18.55-.52a.94.94,0,0,0,.14-.41c0-.2-.08-.32-.23-.32a.48.48,0,0,0-.32.15l-.11.23V6.4l-.06.09c-.06,0-.12-.06-.26-.2L16.22,6a.82.82,0,0,1-.28-.67,1,1,0,0,1-.32-.69V4.52A.72.72,0,0,1,15.39,4l0-.2a2.28,2.28,0,0,1-.14-.29l0-.18L15.15,3l-.08-.14c0-.09.08-.15.26-.18l.06,0,0-.17,0-.17,0-.29,0-.26a.45.45,0,0,0-.06-.24l-.08-.17-.06-.09.06-.05.08,0a4.36,4.36,0,0,1,.76.58,1.14,1.14,0,0,1,.26.79.64.64,0,0,1,.32.58,1,1,0,0,1-.15.46l-.14.23-.06.26a.91.91,0,0,0,.14.47c.12.2.21.29.35.29s.38-.35.38-.73V3.91l0-.17V3.51l0-.18V3.22c0-.09,0-.09-.26-.35a1.12,1.12,0,0,1-.38-.73.38.38,0,0,1,.38-.37l.2,0V1.48l.06-.21c0-.14.05-.17.11-.17h0l.15.12.17.11.06.06.08-.2L18.05,1l.09-.11L18.2.87l.05-.06.06.12.06.08.09.09a.52.52,0,0,1,.17.32l.14-.15.12-.05.09,0,0,.06,0,.11c.09.15.12.18.12.29V1.8c.26.05.35.2.35.49a1.15,1.15,0,0,1-.29.67c-.15.14-.15.2-.15.31,0,.56.41.87,1.1.87h.5a2.08,2.08,0,0,1,.84.15,2,2,0,0,0,.58.14l.14-.08c0-.12-.17-.21-.81-.38-1.27-.35-1.8-.87-1.8-1.71A1.2,1.2,0,0,1,20.89,1.1a2,2,0,0,1,.75.15l.32.11.18,0c.11,0,.14-.06.17-.26L22.4,1c.08,0,.23.12.34.29A1.09,1.09,0,0,1,23,1.8a.46.46,0,0,1-.26.4.76.76,0,0,1-.67.38A2.53,2.53,0,0,1,21,2.14.66.66,0,0,0,20.57,2a.21.21,0,0,0-.23.2c0,.12.09.18.32.26a1.13,1.13,0,0,1,.55.29,1.66,1.66,0,0,1,.81.32c.7.23,1.1.67,1.1,1.22a.83.83,0,0,1-.81.87c-.17-.06-.23-.06-.41-.12"/><path class="b" d="M22.66,8.4l0-.14V8.14a1.13,1.13,0,0,0,0-.29l-.06-.14-.09-.12-.08-.2,0-.06h0l.06,0,.09,0c.06,0,.06-.06.06-.2s0-.29-.15-.38l-.11-.09,0-.06.05,0h.09l.09,0h0l0-.06v0l0-.18c0-.17-.06-.23-.12-.23h0l-.2,0h0a.69.69,0,0,1-.58-.46l-.09-.49a1,1,0,0,0-.37-.47l-.18-.08-.14,0-.06,0L21,4.55a1.6,1.6,0,0,1,.66.14,1.56,1.56,0,0,0,.53.12c.37,0,.6-.2.6-.52a1,1,0,0,0-.14-.52,1.65,1.65,0,0,0-.35-.35l-.06,0,0,0v.09h0l-.05.05L22,3.42a.77.77,0,0,0-.61-.49l-.08,0,0,.12.05.15,0,0,0,0-.11-.06-.12-.11L21,3a.72.72,0,0,0-.31-.26l-.21-.08-.08,0,0,0,0,.08.05.15,0,.06c-.05,0-.14-.09-.28-.29A.86.86,0,0,1,20,2.23a.58.58,0,0,1,.58-.58,1,1,0,0,1,.58.2l.38.24a1.06,1.06,0,0,0,.4.14.59.59,0,0,0,.2,0l.09,0,0,0-.06-.06a2.66,2.66,0,0,1-.75-.29,1.44,1.44,0,0,0-.26-.15l-.12-.08,0,0h.06l.35.11.37.12a1.86,1.86,0,0,0,.53.11.23.23,0,0,0,.26-.23l-.06-.2-.15-.17-.05.08v.12l-.15.17-.12,0-.49-.17a2.19,2.19,0,0,0-.81-.17,1,1,0,0,0-1.07,1c0,.61.43,1,1.51,1.36s1.18.44,1.18.73a.32.32,0,0,1-.34.29l-.18,0c-.06,0-.23-.06-.52-.12a3.62,3.62,0,0,0-1-.11A1.91,1.91,0,0,0,19,4.81l-.23.09h-.18l-.2.14-.12.21-.08,0c-.09,0-.12,0-.21-.23l-.14-.23-.17-.15,0-.05,0-.09.05-.12,0-.08V4.29l.06,0c.06,0,.06,0,.06.23l.06.2.08.18.06,0c.09,0,.18-.18.2-.38s0-.2.09-.2.06,0,.12.14l.08.12.09.06h0c.06,0,.09,0,.09-.18V4.38l0-.12V4.17l.06-.08.05,0,.09.09.15.09.11-.09L19,4,19,3.94c-.06-.11-.09-.17-.18-.17h-.08l-.09,0-.06,0,0,0a1.33,1.33,0,0,1,.12-.32,2,2,0,0,0,.14-.61l0-.35c0-.23.06-.29.09-.29l0,0,0,.12v.08l0,.21.11-.12.09-.14,0-.21c0-.17-.09-.26-.32-.32l-.06,0V1.68l0-.09,0-.08,0-.09-.05,0c-.15.09-.21.11-.26.2l-.12.12,0,0,0-.15v0a.61.61,0,0,0-.26-.46l.06.06-.06.09L18,1.36l-.08.23v.06l0,.09h0l-.06-.09-.09-.09-.14-.08-.06-.06a.54.54,0,0,0-.09.38v.05L17.36,2l-.09,0-.12,0a.21.21,0,0,0-.2.23.61.61,0,0,0,.12.38l.17.17,0-.17,0-.14V2.32l.06-.09s.06.06.08.18l.06.28L17.5,3l.09.32a2.73,2.73,0,0,1,.11.26l.09.15,0,0-.06,0-.08,0h-.06c-.12,0-.15.11-.15.61a2.87,2.87,0,0,0,.15,1l.17.41,0,.2A2.82,2.82,0,0,1,16.2,7.76c-.32.15-.41.32-.44.73L16,8.37c.23,0,.26-.08.32-.2l0-.09s0-.05.2-.14l.12-.09.09-.09,0,0h0L16.72,8v.05a.39.39,0,0,0,.26.38l0-.09a1.11,1.11,0,0,1,.08-.23l.15-.2c.06-.09.06-.12.06-.32V7.33l.06-.06.05,0,0,.15.09,0c.09,0,.17-.08.26-.26l.06-.17,0-.23V6.78l.06-.06h0L18,6.9l.09.08c.12,0,.23-.23.26-.49s0-.23.09-.23l0,0,0,.08.05.06.12-.08.06-.09,0-.09-.06-.09-.09-.17a1.14,1.14,0,0,1,.18-.46c.11-.2.14-.23.17-.23l.06,0,0,.06,0,.09.06.06.14-.06.21-.09a.88.88,0,0,1,.26-.08l.14,0h.15l.17,0,.12-.12L20.11,5l-.06-.11L20,4.81v0l0,0c.06,0,.17.12.29.29.61,1,.9,1.31,1.33,1.42s.58.23.58.52a1.09,1.09,0,0,1-.23.55,1.54,1.54,0,0,0-.41,1v.06l.09,0,.12-.06.2,0,.12-.17V8l.11-.18.06.06.12.26c0,.12.11.17.26.23"/><path class="b" d="M16.37,3.16v.2c0,.12,0,.17.06.17l.17-.2,0-.2,0-.15-.11-.11c-.09,0-.12.06-.12.29"/><path class="b" d="M15.85,1.74l.11.11a1.2,1.2,0,0,1,.26.79v.11l0,.35v.29c0,1,.29,1.68.72,1.68.12,0,.23-.09.32-.26l.06-.06,0,.06,0,.17v.15l0,.17,0,.15c0,.08,0,.08-.2.11l-.2.09c-.12.09-.21.12-.21.15L16.72,6l-.06,0c-.06,0-.12-.06-.2-.2s-.12-.21-.12-.27l.06,0h.23l.06,0,0,0-.35-.15c-.09,0-.17-.11-.26-.26a.73.73,0,0,1-.14-.34L16,4.58l.06,0,.09,0,0,0,0,0-.06-.09a.93.93,0,0,1-.46-.66l0-.09h.06l.12,0,.06-.06-.06-.06c-.2-.09-.23-.14-.35-.43a1.66,1.66,0,0,0-.23-.41l.23-.06c.12,0,.17.06.23.26s.09.21.12.21l0-.09,0-.23,0-.18,0-.11-.09-.06-.11-.26,0-.15L15.67,2a1.88,1.88,0,0,0,.06-.32V1.59Z"/><path class="b" d="M16.75,7.27a1.23,1.23,0,0,1-.38-.11.64.64,0,0,0-.29-.09.48.48,0,0,0-.32.12l.06,0,.14.12.15.12.11,0a.74.74,0,0,0,.53-.26"/><path class="b" d="M19.7,8.66l.15-.2c.2-.17.32-.32.32-.43V7.85l0-.14.06,0,0,.08.06,0c.06,0,.08,0,.2-.2l.06-.15,0-.08-.06-.12,0-.11.06-.09.06,0,.06.08,0,0,.08,0,.06-.12,0-.06L20.83,7l-.11,0a.56.56,0,0,1-.24-.47l0-.08.06-.12,0-.12-.09-.23-.08-.17c-.06-.12-.06-.15-.12-.15l-.09,0-.08.06L20,5.77l-.11.05a.39.39,0,0,0-.12.29c0,.18,0,.26.29.7a.87.87,0,0,1,.14.43c0,.32-.31.58-.84.67s-.75.23-.84.64a.58.58,0,0,1,.35-.06H19l.17-.09.26-.2.12-.06.08-.06h0l0,0-.09.12-.11.26Z"/><path class="b" d="M18.75,7.48l.23.2.14.11.12,0h.06c.11,0,.17,0,.17-.08l0-.06-.09-.09-.08-.08L19,7.36a1.63,1.63,0,0,0-.29.12"/><path class="b" d="M21.24,7.88h.23l.14,0,.15-.17,0-.09-.15-.09c-.2,0-.32.12-.4.38"/><path class="f" d="M18.37,2.58l.09.11a1.58,1.58,0,0,0,.17-.23,1,1,0,0,0,.2-.43l0-.06h0l-.08.09-.26.14-.12.12v.06l.06.14Z"/><path class="f" d="M17.7,2l-.08,0-.06,0v0l0,.14a1,1,0,0,0,.08.21l.12.2.17.11h0l0,0,0-.14,0-.14v0L18,2.29l-.14-.06Z"/><path class="f" d="M18.2,3h-.12l-.09,0-.11,0L17.76,3a1,1,0,0,0,.09.32l.08.23c.09.21.18.32.29.32s.18-.08.24-.23l.08-.35.15-.23-.18-.17h0L18.37,3Z"/><polygon class="b" points="18.31 3.19 18.2 3.22 18.11 3.22 18.05 3.22 18.05 3.27 18.08 3.45 18.11 3.62 18.2 3.74 18.34 3.59 18.37 3.42 18.4 3.25 18.37 3.19 18.31 3.19"/><path class="d" d="M7.74,19.53a1.35,1.35,0,0,1,.08.35l0,.32c0,.31.12.49.32.49l.17-.06.09-.09h0l.09.09v.12a1.87,1.87,0,0,0,0,.34v.35a.8.8,0,0,1-.06.38,1.24,1.24,0,0,1,.08.46.65.65,0,0,1-.08.38.93.93,0,0,1,0,.26,1.06,1.06,0,0,1,0,.29,2,2,0,0,0,0,.38v0l-.06.06-.09-.06-.11-.08c-.06,0-.06,0-.15.26a1.7,1.7,0,0,1-.17.29l-.15.23,0,.17-.06,0h0c-.12,0-.26-.26-.41-.78,0-.14-.08-.2-.17-.2l-.15.08,0,.12,0,0c-.06,0-.15-.12-.2-.26a.76.76,0,0,1-.09-.35c0-.23.17-.41.72-.72a.61.61,0,0,0,.32-.61.53.53,0,0,0-.29-.52c-.17-.12-.26-.18-.35-.18l-.14.12.14.14c.12,0,.18.09.18.15s-.06.14-.15.29a.73.73,0,0,1-.23.26.66.66,0,0,1-.38.49,1.57,1.57,0,0,1-.14.29l-.17.2-.12.23c0,.12,0,.15-.09.15s-.17-.12-.32-.26l-.08-.26a.57.57,0,0,1-.26.09l-.21,0c-.11.06-.14.09-.17.09l-.06-.06v-.17a1.32,1.32,0,0,1,.23-.7,1,1,0,0,0-.37-.2l-.06,0,.09-.14.14-.15a.8.8,0,0,1,.43-.17,1.16,1.16,0,0,1,.44.11l.17,0L6,21.53a1.74,1.74,0,0,0-.23-.7,1.13,1.13,0,0,1-.15-.49c0-.26.12-.55.29-.61l-.17-.06-.23.09-.18.17.06.06.06.12a.87.87,0,0,1-.38.61.74.74,0,0,1-.4.55.63.63,0,0,1-.18.34,1.41,1.41,0,0,0-.29.53l-.06.11-.17-.14L3.82,22a.63.63,0,0,1-.08-.23l-.12,0h-.2a.9.9,0,0,0-.44.09l0,0c-.06,0-.09-.12-.09-.24a1.26,1.26,0,0,1,.26-.75L3,20.75l-.05-.06-.09-.06-.06-.06s.12-.14.23-.23a.78.78,0,0,1,.38-.14.43.43,0,0,1,.35.17l.23.14.12-.05,0-.12a.78.78,0,0,0-.37-.52.87.87,0,0,0-.46-.15.58.58,0,0,0-.5.29l-.08.18-.09.06c-.06,0-.09,0-.26-.24l-.21-.23L2,19.53l0-.09-.09-.06a1,1,0,0,1-.32-.63l0-.09a1.31,1.31,0,0,1-.29-.75l0-.12c-.11-.12-.11-.14-.2-.43A1.23,1.23,0,0,0,.9,17l0-.06L1,16.8l.15,0h.14v-.21a1.42,1.42,0,0,1,0-.34l0-.18,0-.14,0-.12,0-.06.06,0,.09,0a1.77,1.77,0,0,1,.32.21,1.14,1.14,0,0,1,.46.72v.06l0,.11.06.12.09.12.11.29c0,.05,0,.11-.14.29a.66.66,0,0,0-.15.34,1.18,1.18,0,0,0,.15.5c.08.17.2.26.29.26s.26-.15.26-.55a3.34,3.34,0,0,1,.06-.58V17.5l-.09-.14-.23-.27c-.23-.26-.29-.37-.29-.57a.33.33,0,0,1,.35-.35h.08v-.06l0-.2c.06-.18.12-.29.15-.29l.08,0,.15,0,.14.09a.45.45,0,0,1,.12-.26c.09-.12.2-.23.26-.23l.11.09.15.14.09.15,0,.05.08-.05.12-.06.14-.06.09,0s0,.06.09.29a1.61,1.61,0,0,1,.06.35c.23,0,.34.17.34.43a1.15,1.15,0,0,1-.37.78l-.09.18c0,.67.23.9,1.07,1a5.24,5.24,0,0,1,1.3.29,3.4,3.4,0,0,0,.64.15c.15,0,.23-.06.23-.15s-.11-.17-.72-.32c-1.42-.28-2-.78-2-1.71a1.12,1.12,0,0,1,1.16-1.15,1.91,1.91,0,0,1,1,.32c.38.23.47.26.55.26s.15-.06.15-.24L8,15.82l.23.17a.64.64,0,0,1,.17.44A.53.53,0,0,1,8,17l-.06.09a.63.63,0,0,1-.55.23,1.32,1.32,0,0,1-.7-.23l-.37-.27c-.18-.11-.26-.17-.38-.17a.25.25,0,0,0-.26.26.34.34,0,0,0,.26.32l.35.12a1,1,0,0,1,.32.14l.17,0a1.3,1.3,0,0,1,.64.18l.14.05.21.06a1.17,1.17,0,0,1,.78,1.07.83.83,0,0,1-.93.87Z"/><path class="b" d="M7.59,24.11,7.65,24l.11-.12a.54.54,0,0,0,.15-.4l0-.26,0-.15L7.94,23,8,23l.11.12.18.12V23a.86.86,0,0,0-.18-.52L8,22.37l0-.06,0,0,.15.09.06-.21a.75.75,0,0,0-.15-.43l-.09-.12,0-.06.05-.05.09,0,.06,0c.06,0,.08-.08.08-.31v-.24c0-.17,0-.2-.08-.2H8.17c-.38,0-.55-.23-.64-.87-.06-.46-.23-.78-.46-.87s-.18-.05-.18-.11L7,19l.15,0a2.4,2.4,0,0,0,.78.17.63.63,0,0,0,.67-.61,1.07,1.07,0,0,0-.35-.75L8,17.7H8l0,.12,0,.09v0l0,0-.06,0-.15-.21a.68.68,0,0,0-.52-.29l-.11.09,0,.09.06.11v0l0,0h0s0,0-.23-.2a1,1,0,0,0-.58-.32l-.06,0,0,0,.06.08.09.12,0,0c-.06,0-.14-.06-.32-.2a.87.87,0,0,1-.4-.7.49.49,0,0,1,.49-.52,1.18,1.18,0,0,1,.52.17l.38.29a.87.87,0,0,0,.61.2l.14,0,.06-.06-.06,0a.87.87,0,0,1-.32-.15l-.37-.29a2.45,2.45,0,0,0-.3-.2,1.44,1.44,0,0,1-.23-.14l0,0,.06,0L7,16a1.48,1.48,0,0,1,.32.21,1.63,1.63,0,0,0,.87.37.39.39,0,0,0,.41-.37l0-.15,0-.08-.06,0,0,0,0,.17-.08.09-.06.08-.15.06c-.11,0-.26-.06-.61-.29a1.92,1.92,0,0,0-1-.35,1,1,0,0,0-1,1c0,.78.47,1.13,1.94,1.45.56.11.82.29.82.52s-.18.38-.47.38h-.2c-.06,0-.32-.09-.78-.21a4.47,4.47,0,0,0-1-.14,1.31,1.31,0,0,0-1.21.55l-.09.06-.06,0-.11-.09-.27-.12-.17.06-.09.06s-.11-.09-.17-.23a1.16,1.16,0,0,1-.14-.52l.05-.12.06.06.06.23c0,.12.11.23.14.23l.12-.08L4,18.66c.06-.15.06-.17.08-.17s.06,0,.09.17l.06.14.09.15.08,0c.06,0,.12-.12.12-.23v-.18l0-.06.06,0,.14.12.12,0,.08,0,0-.06-.11-.14a1.18,1.18,0,0,1-.15-.32L4.66,18l0,0-.09,0-.06,0h0l-.06-.06.15-.17.09-.21c0-.11,0-.23,0-.23l0-.26a1.63,1.63,0,0,1,.12-.52l0-.06.06.12v.11L5,17l.12-.15.06-.17,0-.14A.24.24,0,0,0,5,16.25h0l-.06,0-.09-.08v-.26l0-.18v-.08l-.06,0-.08.06-.12.09-.09.09,0,0c-.06,0-.06,0-.06-.15v0c0-.09,0-.17-.2-.35l0,0,0,0-.09.15-.09.2,0,.15,0,.05-.09-.05a.7.7,0,0,0-.32-.24l0,.06-.06.18v.26l0,.05h0l-.18,0L3,16.2a.2.2,0,0,0-.23.2c0,.09,0,.17.18.38L3.1,17l0-.12,0-.08,0-.12,0-.06c.06,0,.15.21.17.47l0,.29.09.32a.9.9,0,0,0,.2.29l.12.14,0,.06-.15-.06h0c-.15,0-.21.09-.21.35a1.31,1.31,0,0,0,.47.95l.34.29a.84.84,0,0,1,.32.55c0,.24-.26.44-.66.61l-.26.09c-.21.06-.29.2-.35.58l.2,0h.15l.17-.15v-.05l.06-.06.11-.06.09-.06,0,0,0,.06,0,.06,0,.26a.77.77,0,0,0,.12.44l0-.09.14-.2a1,1,0,0,0,.2-.47v0l0-.17,0-.09.06,0,.09.09.06.06.11-.15,0-.17,0-.09,0-.08,0-.06,0,0,.06,0,.06.06.06,0L5,20.4l.12-.23-.06-.06a.57.57,0,0,1-.26-.41l0-.11L5,19.38,5,19.21H5l0,.06,0,.08,0,.15.09.09.11,0a1.82,1.82,0,0,1,.53-.15L6,19.5l0,0,.06,0,0,0-.06-.09-.05-.11,0,0c.12,0,.32.38.5,1a1,1,0,0,0,.63.79.82.82,0,0,1,.53.78,4.3,4.3,0,0,1-.29,1.36,1.39,1.39,0,0,0-.09.41,1.51,1.51,0,0,0,.09.37l0,.18Z"/><path class="b" d="M5.82,23A1.43,1.43,0,0,1,6,22.77a.85.85,0,0,0,.17-.37v-.12c0-.11,0-.17.06-.17l0,0,0,.05.06,0,.08,0,.09-.27v-.17l.06-.06.06.06,0,.06.06-.06.06-.09.06-.05v0l-.06-.06a.63.63,0,0,1-.2-.55c0-.2,0-.35,0-.44s-.06-.11-.15-.31l-.08-.29-.09-.09a.39.39,0,0,0-.38.4,1.58,1.58,0,0,0,.18.61,1.77,1.77,0,0,1,.17.64c0,.29-.12.41-.49.55A1,1,0,0,0,5,22.8l.09,0,.12,0,.11,0,.2-.15,0-.11.06-.06.06,0,.06,0,0,0,0,.09,0,.17a.55.55,0,0,0,.14.4"/><path class="b" d="M1.71,15.94l0,.08,0,.21v.14a1.68,1.68,0,0,0,.06.41l.06.17v0l0,.06L1.71,17l-.29-.12-.15,0,0,.09.12.29.17.23.18.12.06.05,0,.06,0,0H1.68l0,0a2,2,0,0,0,.06.23l.09.23.14.12.15.09.05.08,0,.06H2l0,.06a.73.73,0,0,0,.14.29.37.37,0,0,0,.35.2h.12l.08.06-.08.06-.15.08,0,.09.06.09.14.11.12-.05.26-.18c.26-.06.32-.08.32-.14l0-.09a.66.66,0,0,1-.11-.38l-.06-.17-.06.06-.26.17c-.26,0-.58-.4-.76-.95a2.42,2.42,0,0,1,0-.41,3.59,3.59,0,0,1,0-.46c.06-.24.09-.35.09-.38v-.12a1.3,1.3,0,0,0-.49-.6"/><path class="b" d="M2.26,17a1.31,1.31,0,0,0-.12.49l.06.15,0,0,.09-.15.06-.08.05-.12Z"/><path class="b" d="M3.1,20.46l0,0,.06.05c.14.15.17.18.23.18l.29-.09.06-.06-.09-.08-.09-.09-.2-.12-.29.18"/><path class="b" d="M4.87,21.85l.14.08.12.09.11,0,.09,0L5.5,22l.15-.06.06,0-.09,0-.12,0c-.2-.09-.23-.09-.29-.09s-.26,0-.34.15"/><path class="b" d="M6.81,23.38c.06-.11.08-.14.26-.14s.38-.38.38-.61l0-.06-.06,0-.12.06L7,22.74a.55.55,0,0,0-.29.41Z"/><path class="f" d="M3.51,16.72l.08.11.18.12,0-.06,0-.11v-.12c0-.09-.06-.14-.26-.2l-.11,0-.09-.06,0,0v0l0,.11Z"/><polygon class="f" points="4.49 16.34 4.38 16.43 4.23 16.49 4.08 16.6 4.08 16.75 4.17 16.92 4.2 16.92 4.23 16.89 4.32 16.72 4.49 16.54 4.55 16.4 4.55 16.4 4.52 16.34 4.49 16.34"/><path class="f" d="M4.11,17.24l.12-.06.06,0,.11.12a.76.76,0,0,1-.17.38c-.09.17-.17.31-.26.31s-.26-.17-.41-.46l-.05-.2.11-.15.09,0,.06.06.2.06Z"/><path class="b" d="M3.94,17.41l-.09,0h0l-.08.09.14.32.06,0c.06,0,.09-.09.11-.26l0-.12v0l-.05-.05H4"/><path class="d" d="M21.09,19.41a.68.68,0,0,0,.47.29l.2,0,.12,0,.05.06,0,.15,0,.14,0,.18-.09.14-.12.09,0,0v.08a.46.46,0,0,1-.2.41l-.06,0,0,.06a.65.65,0,0,1-.09.26l-.15.2-.2.32-.12.09-.17-.21,0,.06-.09.06-.14.09-.12.08-.08.09-.06,0s-.09-.06-.12-.2l-.08-.27,0-.17a.44.44,0,0,1,.05-.26,2.84,2.84,0,0,0-.29.06l-.05,0,0-.06,0-.12.08-.26a.64.64,0,0,1,.52-.37l.21,0,.11,0,.18-.14-.06-.09-.29-.08c-.12,0-.2-.09-.35-.27s-.14-.14-.17-.14l-.06.06V20a1.6,1.6,0,0,1-.2.7l-.21.37a.84.84,0,0,0-.14.47c0,.14.06.29.14.32l.12,0,0,0,0,.06,0,.06-.15.17a.63.63,0,0,1-.37.29.68.68,0,0,1-.52.44l0,.06a.59.59,0,0,1-.44.31h0a.56.56,0,0,1-.26.38l-.17.15,0,0-.12.12c-.08,0-.14-.09-.2-.23l-.06.06-.14.08a.65.65,0,0,1-.26.09.63.63,0,0,0-.41.2l-.06.12,0,0-.08-.12a2.45,2.45,0,0,1-.06-.43.91.91,0,0,1,.38-.73V23c0-.43.32-.69.81-.69h.09l.26,0h0a.6.6,0,0,0,.4-.18.5.5,0,0,0,.23-.4,2.21,2.21,0,0,0-.08-.32,1.43,1.43,0,0,1-.06-.35,1.2,1.2,0,0,1,.55-.92l.14-.18,0,0-.08.06-.18.12-.11,0-.15.06-.06.06,0,.06,0,.06,0,.08-.11.18c-.12.17-.18.26-.32.32-.09.26-.2.37-.38.4-.14.29-.26.41-.52.44a.75.75,0,0,1-.23.34l-.09.12-.2,0-.18-.12,0-.08L16.11,22,16,21.93H16l-.17,0-.32.18-.08.14,0,0c-.06,0-.12-.14-.12-.41a.62.62,0,0,1,.12-.46l.2-.29.06-.11,0-.09-.12-.09-.17,0,0,0,0-.05.2-.18a1,1,0,0,1,.44-.17.92.92,0,0,1,.4.14l.23.15.12,0c.11,0,.17-.06.26-.21a.82.82,0,0,0,.09-.34.48.48,0,0,0-.5-.5.74.74,0,0,0-.4.15l-.09.09-.06.14-.05.06s-.12-.12-.21-.26l-.11-.29a.91.91,0,0,1-.06-.38V19a.73.73,0,0,1-.15-.47.6.6,0,0,1,.06-.26.63.63,0,0,1-.08-.34v-.09l0-.12,0-.08c-.08-.09-.08-.18-.17-.5a.89.89,0,0,0-.09-.32l0-.05c0-.06.12-.09.24-.09h.11l0-.14.06-.32c0-.12.06-.15.06-.18l0-.23-.06-.14,0-.09,0,0a1.37,1.37,0,0,1,.67.38.77.77,0,0,1,.29.69v.18a.68.68,0,0,1,.29.49.41.41,0,0,1-.15.32.69.69,0,0,0-.26.58c0,.4.12.63.35.63s.35-.2.38-.52l0-.29,0-.29,0-.2c0-.12-.06-.23-.26-.46s-.29-.38-.29-.58a.4.4,0,0,1,.38-.41l.14,0a.57.57,0,0,1,.09-.35c.06-.14.12-.26.15-.26l.05,0,.09.09.09.06.06,0a.56.56,0,0,1,.23-.37l.17-.15.06,0,.09.12.14.14c.06.06.06.12.09.23l.08,0,.12-.06.09-.06.05,0,0,.06.06.17.09.21,0,.2v.06H19a.36.36,0,0,1,.29.37,1.17,1.17,0,0,1-.5.81l0,.21c0,.61.18.75,1.11.87a3.88,3.88,0,0,1,.63.14s.23.09.61.2a1.72,1.72,0,0,0,.46.09l.18-.09c0-.11-.15-.2-.64-.37l-.67-.26a1.32,1.32,0,0,1-1-1.31,1.22,1.22,0,0,1,1.24-1.24,2.46,2.46,0,0,1,.9.2,2.71,2.71,0,0,0,.55.17c.09,0,.15-.05.15-.2s0-.17.11-.17a.33.33,0,0,1,.27.23,1.06,1.06,0,0,1,.08.4.44.44,0,0,1-.37.47.83.83,0,0,1-.61.32c-.32,0-.47-.06-1-.38a.59.59,0,0,0-.4-.14.29.29,0,0,0-.32.26c0,.14.11.23.37.29a.32.32,0,0,1,.26.14l.12,0a1.44,1.44,0,0,1,.81.35,1.33,1.33,0,0,1,.9,1.07.92.92,0,0,1-.87.9,1.61,1.61,0,0,1-.61-.09"/><path class="b" d="M20.8,21.56l0-.09,0-.12.09-.14a.63.63,0,0,0,.11-.38l0-.14,0-.06,0,0v0h0l.09.06.09.06.09-.15v-.08l-.06-.21,0-.08,0-.06.11.06.06,0c.06,0,.09-.06.12-.18l0-.11,0,0h-.12a.59.59,0,0,1-.43-.21l-.21-.26-.2-.26L20.4,19,20.34,19l.09-.06.4.15a3,3,0,0,0,.78.17.66.66,0,0,0,.67-.67,1,1,0,0,0-.29-.63l-.14-.09,0,.06,0,.08v.06l0,.06c-.06,0-.09-.09-.15-.2s-.14-.26-.37-.38l-.24-.09,0,0,0,.09.06.14h0l0,.06c-.06,0-.06,0-.17-.17a.75.75,0,0,0-.35-.26l-.12,0h0l-.05,0,0,.05v0l0,0c-.06,0-.18-.11-.29-.26a.78.78,0,0,1-.2-.46.59.59,0,0,1,.57-.55l.21,0,.26.14.32.2a1.21,1.21,0,0,0,.58.21.51.51,0,0,0,.23-.06l.11-.09h0l0,0H22a1.33,1.33,0,0,1-.46-.2l-.35-.23L20.86,16l0,0,0,0L21,16l.29.08a1.93,1.93,0,0,1,.34.18,1.56,1.56,0,0,0,.67.23.3.3,0,0,0,.32-.29l0-.23-.06-.09,0,0,0,.06V16c0,.15-.06.21-.21.21a2.62,2.62,0,0,1-.69-.21,2.43,2.43,0,0,0-.81-.2,1.06,1.06,0,0,0-1.08,1c0,.46.32.81.93,1.07l.67.26c.55.23.72.37.72.58s-.17.29-.4.29a1.53,1.53,0,0,1-.5-.12,4.47,4.47,0,0,0-1.36-.29,1.64,1.64,0,0,0-1.3.49l-.12.06-.11-.06L18,19l-.17.11-.09.09-.06.06-.2-.21-.09-.2,0-.2v-.15l0-.14,0-.15,0,0,.06.11v.09c0,.23.09.4.17.4s.15-.14.21-.4l.05-.09s.06,0,.06.15l.12.23.09.06c.05,0,.11-.09.14-.32l.06-.15,0,0,.05.09.09.08.09,0,.06,0,.05-.05-.05-.06a.74.74,0,0,1-.15-.26L18.51,18l0-.05H18.4l-.18.05h0l0,0,.06-.09a1,1,0,0,0,.34-.78,1,1,0,0,1,.15-.47l.06-.06.05.06,0,.12,0,.09v0l0,.06.09,0,.09-.11.09-.32L19,16.25l-.12-.08h-.11l-.09-.06V16l-.06-.21,0-.08,0-.09-.06,0-.11.06-.09.08c-.11.15-.11.15-.17.15l0,0v0l0-.15a.64.64,0,0,0-.2-.43.6.6,0,0,0-.24.49v.09l0,.06h0l-.06,0-.09-.12-.12-.08-.05-.06,0,.06a.6.6,0,0,0-.12.37l0,.15-.06,0c-.11-.06-.11-.06-.17-.06a.22.22,0,0,0-.23.23l.09.26c0,.12.17.23.23.23l0,0v-.15l0-.09h0l0,0c.05,0,.14.2.17.6a1.51,1.51,0,0,0,.29.76l.06.08,0,0-.09,0-.08,0-.18.17-.06.43-.05.61a1.82,1.82,0,0,0,.05.47,3,3,0,0,1,.06.37,1,1,0,0,1-.75,1l-.49.14a.65.65,0,0,0-.5.67.58.58,0,0,1,.23-.09l.15,0,.12,0,.08-.08.12-.15.11-.08,0,.05-.06.12,0,.2a.48.48,0,0,0,.11.29l0-.08.12-.18a.76.76,0,0,0,.17-.35c0-.11,0-.14,0-.14l0,.09,0,.05.06,0,.05,0,.12-.11.09-.15L17,21v-.09l0-.06.08.09.06,0h0l.06,0,.14-.29v-.14l0-.12h0l0-.06.12.18.06.08.14-.14.06-.09,0-.09,0-.08-.06-.09V20a.52.52,0,0,1,.12-.34l.08-.21,0-.06,0,0v.21l.06,0,.09,0,.2-.06.17-.09a1,1,0,0,1,.55-.2.93.93,0,0,1,.38.11l.09,0,.06,0,0-.05,0-.09-.06-.12,0,0,.05,0a2.49,2.49,0,0,1,.18.32.84.84,0,0,0,.49.47l.35.08c.11,0,.14.06.14.21a.7.7,0,0,1-.32.58l-.28.17a.51.51,0,0,0-.18.38,2.59,2.59,0,0,0,.06.4l.06-.06.14-.08.12-.12.06-.17.05-.15.09-.11,0,.11v.06a2.24,2.24,0,0,1,.2.38"/><path class="b" d="M16.25,23.73c0-.38.15-.52.67-.78,1-.52,1.59-1,1.59-1.39a2.44,2.44,0,0,0-.08-.41,2.31,2.31,0,0,1-.06-.32.9.9,0,0,1,.32-.58l.14-.14.15-.23v-.09l.11-.12h.06l.06,0,.06,0,0,.06.05.06.06,0,.06,0,.09,0,.05.06a1,1,0,0,1-.28.61,1.42,1.42,0,0,0-.38.87.85.85,0,0,0,.17.52l0,.06-.06.08L19,22l-.15.12-.06-.06,0-.09-.05,0,0,0,0,.09v.14l-.06.15-.12.11-.05,0-.06-.05-.06-.15,0,0-.06.12a1,1,0,0,1-.08.32l-.12.08-.09.06-.05,0-.06-.11,0,0s-.06,0-.06.17c0,.29-.09.41-.23.49a.55.55,0,0,0-.2.21.53.53,0,0,1-.09-.32l0-.15.06-.11,0,0,0,0-.09.08c-.14.09-.14.12-.2.26a.44.44,0,0,1-.35.35c-.26.06-.29.06-.38.15Z"/><path class="b" d="M15.76,15.82V16l0,.12,0,.17a.63.63,0,0,0,.12.38l.09.26,0,.06,0,0-.06-.09a.25.25,0,0,0-.23-.09h-.15a2.76,2.76,0,0,1,.09.27c.06.26.06.26.2.4s.15.15.15.18l-.06.05H15.7l-.08.18.05.2.06.09.09.08,0,.09-.06.06-.06,0-.06,0-.05.06v.11l.05.21.09.14.12.09L16,19l0,.06-.06.05-.08,0h-.09l-.09.06v.12l.09.14c0,.12.09.21.12.21l.05,0a1,1,0,0,1,.47-.18c.14,0,.32,0,.37,0l.09,0,0-.09,0-.14L17,19l0-.18v-.08L17,18.8c-.15.12-.2.18-.35.18-.35,0-.55-.41-.55-1.1a6.22,6.22,0,0,1,.12-1.16l0-.2a.88.88,0,0,0-.46-.7"/><polygon class="b" points="16.34 17.12 16.31 17.24 16.28 17.36 16.28 17.47 16.28 17.53 16.34 17.47 16.43 17.41 16.52 17.18 16.49 17.07 16.4 16.95 16.34 17.12"/><path class="b" d="M15.62,20.69l.17.14a.36.36,0,0,0,.32.15l.11,0,.09,0,.09,0,.06,0-.15-.14-.17-.12L16,20.54Z"/><path class="b" d="M16.63,22.83a.5.5,0,0,1,.55-.46c.15,0,.23,0,.23.09s-.05.08-.2.17a1.15,1.15,0,0,1-.23.11,1.94,1.94,0,0,1-.35.18Z"/><path class="b" d="M19.76,21l.2-.06h.15l.08-.06.12-.09c.14-.11.17-.11.17-.14s-.05-.06-.2-.06a.56.56,0,0,0-.52.41"/><path class="f" d="M17.44,16.31l.12.06.14.09c.12.06.18.06.18.11l0,.09,0,.12-.12.14c-.05,0-.11-.09-.2-.23l-.12-.32v0l.06,0"/><polygon class="f" points="18.46 16.37 18.31 16.46 18.14 16.52 18.08 16.6 18.08 16.6 18.08 16.75 18.08 16.86 18.17 16.95 18.17 16.95 18.22 16.92 18.31 16.75 18.48 16.57 18.57 16.46 18.57 16.4 18.54 16.34 18.46 16.37"/><path class="f" d="M17.7,17.09l.12.09.09,0,.17-.06.09-.06,0,0,.12.14c0,.12-.09.23-.2.41l-.09.17-.17.15c-.09,0-.15-.06-.26-.32a1.39,1.39,0,0,1-.15-.41l.12-.14Z"/><path class="b" d="M17.82,17.53v.14l.11.15c.06,0,.12-.12.15-.26l0-.12L18,17.38h-.11l-.06.15"/><path class="d" d="M9.18,14.05h.76v1.54h.9V14.05h2.23v1.54h.87V14.05h.72v-4h-.87l0-.05a.48.48,0,0,0-.4-.24.43.43,0,0,0-.41.29h-.61a.45.45,0,0,0-.84,0h-.66a.48.48,0,0,0-.44-.29.39.39,0,0,0-.4.29H9.18Z"/><rect class="e" x="9.5" y="10.4" width="4.87" height="3.33"/><path class="b" d="M10,11.18a.24.24,0,1,0,.23.24.22.22,0,0,0-.23-.24"/><path class="d" d="M10,11.21l-.21.21.21.2.2-.2Zm0,.47a.27.27,0,0,1-.27-.26.27.27,0,0,1,.53,0,.26.26,0,0,1-.26.26"/><path class="b" d="M13.82,11.18a.24.24,0,1,0,.23.24.22.22,0,0,0-.23-.24"/><path class="d" d="M13.82,11.21l-.2.21.2.2.2-.2Zm0,.47a.26.26,0,0,1-.26-.26.26.26,0,1,1,.52,0,.26.26,0,0,1-.26.26"/><path class="b" d="M10,13a.26.26,0,0,0-.24.23.24.24,0,0,0,.47,0A.22.22,0,0,0,10,13"/><path class="d" d="M10,13l-.21.2a.2.2,0,0,0,.21.2l.2-.2Zm0,.46a.26.26,0,0,1-.27-.26.27.27,0,0,1,.53,0,.26.26,0,0,1-.26.26"/><path class="b" d="M13.82,13a.25.25,0,0,0-.23.23.23.23,0,1,0,.46,0,.22.22,0,0,0-.23-.23"/><path class="d" d="M13.82,13l-.2.2.2.2.2-.2Zm0,.46a.26.26,0,0,1-.26-.26.26.26,0,1,1,.52,0,.26.26,0,0,1-.26.26"/><path class="b" d="M10.72,12.29a1.44,1.44,0,0,0,1.19.57A1.43,1.43,0,0,0,13,12.29a1.53,1.53,0,0,0-2.32,0"/><path class="d" d="M11,12.29a1.34,1.34,0,0,1,.93-.35,1.24,1.24,0,0,1,.93.37,1.2,1.2,0,0,1-.93.41,1.54,1.54,0,0,1-.93-.43"/><path class="b" d="M11.36,12.23a1.06,1.06,0,0,0,.52.17.94.94,0,0,0,.55-.17,1.26,1.26,0,0,0-.55-.15,1,1,0,0,0-.52.15"/><rect class="d" x="9.42" y="10.58" width="5.01" height="0.17"/><path class="g" d="M9.45,10.6h5v.15h-5Zm0,.18h5v-.2h-5Z"/><path class="b" d="M10.2,10.37v.5a.19.19,0,0,0,.2.2c.15,0,.2-.06.2-.2V10.4c0-.17-.08-.29-.2-.29l-.09,0-.05,0-.06.06,0,.08"/><path class="b" d="M11.71,10.75v.09a.19.19,0,0,0,.2.2c.14,0,.2-.06.2-.2v-.47c0-.17-.09-.29-.2-.29s-.23.12-.23.29"/><path class="b" d="M13.15,10.37v.5a.2.2,0,0,0,.21.2c.14,0,.2-.06.2-.2V10.4c0-.17-.09-.29-.2-.29l-.09,0-.06,0-.06.06,0,.08"/><rect class="b" x="10.08" y="14.4" width="0.46" height="0.58"/><rect class="b" x="10.08" y="15.13" width="0.46" height="0.17"/><rect class="b" x="13.18" y="14.4" width="0.46" height="0.58"/><rect class="b" x="13.18" y="15.13" width="0.46" height="0.17"/></svg>