<svg xmlns="http://www.w3.org/2000/svg" viewBox="0 0 1628.83 159.5"><defs><style>.a{opacity:0.64;}.b{fill:#b67d2b;}</style></defs><g class="a"><path class="b" d="M312.52,85.86a9.81,9.81,0,0,0-13.11-9.29,9.83,9.83,0,0,0-8.63-5.95,9.85,9.85,0,0,0-19.35,0h-.18a9.87,9.87,0,0,0-9,5.85,9.84,9.84,0,0,0-12.75,9.42,9.29,9.29,0,0,0,.91,4A9.87,9.87,0,0,0,259.65,96h42.91a9.83,9.83,0,0,0,10.08-9.68v0c0-.06-.07-.14-.07-.2S312.52,85.92,312.52,85.86Z"/><path class="b" d="M312.57,86.07c0-.07,0-.15,0-.21A9.86,9.86,0,0,0,302.68,76a9.75,9.75,0,0,0-3.26.57,9.85,9.85,0,0,0-8.64-5.95,9.84,9.84,0,0,0-16.86-4.91,10,10,0,0,1,2.14-.24,9.84,9.84,0,0,1,9.67,8,9.87,9.87,0,0,1,8.64,6,9.73,9.73,0,0,1,3.25-.56,9.86,9.86,0,0,1,9.86,9.85c0,.07,0,.14,0,.21s.07.14.07.21v0a10,10,0,0,1-2.77,6.88,10.08,10.08,0,0,0,7.82-9.76v0C312.64,86.21,312.57,86.13,312.57,86.07Z"/></g><g class="a"><path class="b" d="M1545.13,72.43a16.45,16.45,0,0,0-22-15.51A16.49,16.49,0,0,0,1508.71,47a16.47,16.47,0,0,0-32.38,0h-.3a16.5,16.5,0,0,0-15,9.8,16.49,16.49,0,0,0-21.31,15.79,15.46,15.46,0,0,0,1.54,6.72,16.51,16.51,0,0,0,15.47,10.19l71.78-.11c9.21,0,16.83-7,16.83-16.23v0c0-.11-.1-.24-.1-.35S1545.13,72.54,1545.13,72.43Z"/><path class="b" d="M1545.2,72.78c0-.11-.06-.24-.06-.35a16.46,16.46,0,0,0-22-15.51A16.49,16.49,0,0,0,1508.71,47a16.45,16.45,0,0,0-28.22-8.16,16.14,16.14,0,0,1,3.57-.41,16.48,16.48,0,0,1,16.21,13.41,16.49,16.49,0,0,1,14.46,9.93,16.45,16.45,0,0,1,22,15.51c0,.11.07.24.07.35s.1.24.1.35v0a16.66,16.66,0,0,1-4.62,11.5,16.84,16.84,0,0,0,13.06-16.34v0C1545.3,73,1545.2,72.89,1545.2,72.78Z"/></g><g class="a"><path class="b" d="M97.93,126.32a15.29,15.29,0,0,0-20.37-14.44,15.28,15.28,0,0,0-13.41-9.24,15.3,15.3,0,0,0-30.07,0l-.28,0a15.32,15.32,0,0,0-14,9.08,15.57,15.57,0,0,0-4.51-.67A15.31,15.31,0,0,0,0,126.32a14.36,14.36,0,0,0,1.43,6.24,15.32,15.32,0,0,0,14.35,9.49H82.45c8.55,0,15.66-6.49,15.66-15.05v0c0-.11-.1-.22-.1-.33S97.93,126.42,97.93,126.32Z"/><path class="b" d="M98,126.64c0-.1-.06-.22-.06-.32A15.31,15.31,0,0,0,82.63,111a15.15,15.15,0,0,0-5.06.87,15.3,15.3,0,0,0-13.42-9.24A15.29,15.29,0,0,0,38,95a15.78,15.78,0,0,1,3.32-.37,15.31,15.31,0,0,1,15,12.48,15.31,15.31,0,0,1,13.41,9.24A15.29,15.29,0,0,1,90.09,130.8c0,.1.08.22.07.32s.11.22.11.33v0A15.44,15.44,0,0,1,86,142.16,15.63,15.63,0,0,0,98.11,127v0C98.11,126.86,98,126.75,98,126.64Z"/></g><g class="a"><path class="b" d="M1628.75,94.73a6.47,6.47,0,0,0-6.47-6.48,6.59,6.59,0,0,0-2.14.37,6.47,6.47,0,0,0-5.67-3.91,6.47,6.47,0,0,0-12.72,0h-.12a6.47,6.47,0,0,0-5.91,3.84,6.31,6.31,0,0,0-1.91-.29,6.48,6.48,0,0,0-6.48,6.48,6.17,6.17,0,0,0,.61,2.64,6.49,6.49,0,0,0,6.07,4h28.2a6.46,6.46,0,0,0,6.62-6.36v0s0-.09,0-.14S1628.75,94.77,1628.75,94.73Z"/><path class="b" d="M1628.79,94.86s0-.09,0-.13a6.48,6.48,0,0,0-6.48-6.48,6.59,6.59,0,0,0-2.14.37,6.46,6.46,0,0,0-5.67-3.91,6.46,6.46,0,0,0-11.08-3.22,6.44,6.44,0,0,1,7.76,5.12,6.46,6.46,0,0,1,5.67,3.91,6.33,6.33,0,0,1,2.14-.37,6.48,6.48,0,0,1,6.48,6.47s0,.1,0,.14,0,.09,0,.14h0a6.51,6.51,0,0,1-1.82,4.52,6.62,6.62,0,0,0,5.14-6.41v0S1628.79,94.91,1628.79,94.86Z"/></g><path class="b" d="M1067,137a8.31,8.31,0,0,0-11.06-7.85,8.33,8.33,0,0,0-7.29-5,8.31,8.31,0,0,0-16.33,0h-.15a8.32,8.32,0,0,0-7.6,4.94,8.21,8.21,0,0,0-2.45-.37,8.31,8.31,0,0,0-8.31,8.32,6.84,6.84,0,0,0,.77,3.14,8.12,8.12,0,0,0,7.8,4.9h36.21c4.65,0,8.51-3,8.51-7.67v0c0-.06,0-.12-.06-.18S1067,137.08,1067,137Z"/><path class="b" d="M1067.06,137.2s0-.12,0-.17a8.31,8.31,0,0,0-11.06-7.85,8.33,8.33,0,0,0-7.29-5,8.3,8.3,0,0,0-12.36-5.64,8.3,8.3,0,0,1,7.88,6.76,8.33,8.33,0,0,1,7.29,5,8.31,8.31,0,0,1,11.06,7.85s0,.12,0,.17.06.12.06.18v0a7.28,7.28,0,0,1-3.93,6.55c4.6,0,8.41-3.06,8.41-7.67v0C1067.12,137.32,1067.07,137.26,1067.06,137.2Z"/><path class="b" d="M1018,129.85a8.48,8.48,0,0,1,2.16.35,8.7,8.7,0,0,1,.81-1.39A8.41,8.41,0,0,0,1018,129.85Z"/><path class="b" d="M504.15,151.46a8.31,8.31,0,0,0-11.07-7.85,8.33,8.33,0,0,0-7.29-5,8.31,8.31,0,0,0-16.33,0h-.15a8.32,8.32,0,0,0-7.6,4.94,8.21,8.21,0,0,0-2.45-.37,8.31,8.31,0,0,0-8.31,8.32,6.84,6.84,0,0,0,.77,3.14,8.12,8.12,0,0,0,7.8,4.9h36.21c4.65,0,8.51-3,8.51-7.67v0c0-.06-.05-.12-.06-.18S504.15,151.51,504.15,151.46Z"/><path class="b" d="M504.18,151.63s0-.12,0-.17a8.31,8.31,0,0,0-11.07-7.85,8.33,8.33,0,0,0-7.29-5A8.3,8.3,0,0,0,473.43,133a8.3,8.3,0,0,1,7.88,6.76,8.33,8.33,0,0,1,7.29,5,8.31,8.31,0,0,1,11.06,7.85s0,.12,0,.17.06.12.06.18v0a7.28,7.28,0,0,1-3.93,6.55c4.6,0,8.41-3.06,8.41-7.67v0C504.24,151.75,504.19,151.69,504.18,151.63Z"/><path class="b" d="M455.07,144.28a8.48,8.48,0,0,1,2.16.35,8.7,8.7,0,0,1,.81-1.39A8.41,8.41,0,0,0,455.07,144.28Z"/><path class="b" d="M1375.27,110.92a9,9,0,0,0-12-8.52,9.05,9.05,0,0,0-7.92-5.47,9,9,0,0,0-17.76,0h-.17a9,9,0,0,0-8.25,5.37,9,9,0,0,0-11.71,8.64,7.45,7.45,0,0,0,.84,3.42,8.82,8.82,0,0,0,8.48,5.33h39.37c5.06,0,9.26-3.29,9.26-8.34v0c0-.07-.06-.14-.06-.2S1375.27,111,1375.27,110.92Z"/><path class="b" d="M1375.32,111.11c0-.06,0-.13,0-.19a9,9,0,0,0-12-8.52,9.05,9.05,0,0,0-7.92-5.47,9,9,0,0,0-8.88-7.36,8.92,8.92,0,0,0-4.56,1.23,9,9,0,0,1,8.57,7.35,9.07,9.07,0,0,1,7.92,5.46,9.24,9.24,0,0,1,3-.51,9,9,0,0,1,9,9c0,.06,0,.13,0,.19s.06.13.06.19v0a7.93,7.93,0,0,1-4.27,7.13c5,0,9.15-3.33,9.15-8.34v0C1375.38,111.24,1375.32,111.17,1375.32,111.11Z"/><path class="b" d="M1321.92,103.12a9,9,0,0,1,2.34.38,8.44,8.44,0,0,1,.89-1.51A8.88,8.88,0,0,0,1321.92,103.12Z"/><polygon class="b" points="1288.56 123.29 1289.43 120.73 1287.82 118.57 1290.52 118.61 1292.07 116.4 1292.87 118.98 1295.45 119.78 1293.25 121.34 1293.28 124.03 1291.12 122.42 1288.56 123.29"/><polygon class="b" points="1482.09 6.88 1482.95 4.33 1481.34 2.17 1484.04 2.2 1485.6 0 1486.4 2.58 1488.97 3.38 1486.77 4.93 1486.81 7.63 1484.64 6.02 1482.09 6.88"/></svg>