<svg xmlns="http://www.w3.org/2000/svg" viewBox="0 0 469.27 194.15"><defs><style>.a{opacity:0.1;}.b{fill:#fff;}</style></defs><g class="a"><path class="b" d="M21.31,10.65A10.66,10.66,0,1,1,10.65,0,10.66,10.66,0,0,1,21.31,10.65Z"/><path class="b" d="M21.31,68.27A10.66,10.66,0,1,1,10.65,57.61,10.66,10.66,0,0,1,21.31,68.27Z"/><path class="b" d="M21.31,125.88a10.66,10.66,0,1,1-10.66-10.65A10.66,10.66,0,0,1,21.31,125.88Z"/><path class="b" d="M21.31,183.5a10.66,10.66,0,1,1-10.66-10.66A10.65,10.65,0,0,1,21.31,183.5Z"/><path class="b" d="M77.3,10.65A10.66,10.66,0,1,1,66.65,0,10.65,10.65,0,0,1,77.3,10.65Z"/><path class="b" d="M77.3,68.27A10.66,10.66,0,1,1,66.65,57.61,10.66,10.66,0,0,1,77.3,68.27Z"/><path class="b" d="M77.3,125.88a10.66,10.66,0,1,1-10.65-10.65A10.65,10.65,0,0,1,77.3,125.88Z"/><path class="b" d="M77.3,183.5a10.66,10.66,0,1,1-10.65-10.66A10.65,10.65,0,0,1,77.3,183.5Z"/><path class="b" d="M133.3,10.65A10.66,10.66,0,1,1,122.64,0,10.66,10.66,0,0,1,133.3,10.65Z"/><path class="b" d="M133.3,68.27a10.66,10.66,0,1,1-10.66-10.66A10.66,10.66,0,0,1,133.3,68.27Z"/><circle class="b" cx="122.64" cy="125.88" r="10.66" transform="matrix(0.01, -1, 1, 0.01, -4.8, 246.9)"/><path class="b" d="M133.3,183.5a10.66,10.66,0,1,1-10.66-10.66A10.65,10.65,0,0,1,133.3,183.5Z"/><path class="b" d="M189.29,10.65A10.66,10.66,0,1,1,178.64,0,10.65,10.65,0,0,1,189.29,10.65Z"/><path class="b" d="M189.29,68.27a10.66,10.66,0,1,1-10.65-10.66A10.66,10.66,0,0,1,189.29,68.27Z"/><path class="b" d="M189.29,125.88a10.66,10.66,0,1,1-10.65-10.65A10.65,10.65,0,0,1,189.29,125.88Z"/><path class="b" d="M189.29,183.5a10.66,10.66,0,1,1-10.65-10.66A10.65,10.65,0,0,1,189.29,183.5Z"/><path class="b" d="M245.29,10.65A10.66,10.66,0,1,1,234.63,0,10.66,10.66,0,0,1,245.29,10.65Z"/><path class="b" d="M245.29,68.27a10.66,10.66,0,1,1-10.66-10.66A10.66,10.66,0,0,1,245.29,68.27Z"/><path class="b" d="M245.29,125.88a10.66,10.66,0,1,1-10.66-10.65A10.66,10.66,0,0,1,245.29,125.88Z"/><path class="b" d="M245.29,183.5a10.66,10.66,0,1,1-10.66-10.66A10.65,10.65,0,0,1,245.29,183.5Z"/><path class="b" d="M301.28,10.65A10.66,10.66,0,1,1,290.63,0,10.65,10.65,0,0,1,301.28,10.65Z"/><path class="b" d="M301.28,68.27a10.66,10.66,0,1,1-10.65-10.66A10.66,10.66,0,0,1,301.28,68.27Z"/><path class="b" d="M301.28,125.88a10.66,10.66,0,1,1-10.65-10.65A10.65,10.65,0,0,1,301.28,125.88Z"/><path class="b" d="M301.28,183.5a10.66,10.66,0,1,1-10.65-10.66A10.65,10.65,0,0,1,301.28,183.5Z"/><path class="b" d="M357.28,10.65A10.66,10.66,0,1,1,346.62,0,10.66,10.66,0,0,1,357.28,10.65Z"/><path class="b" d="M357.28,68.27a10.66,10.66,0,1,1-10.66-10.66A10.66,10.66,0,0,1,357.28,68.27Z"/><circle class="b" cx="346.62" cy="125.88" r="10.66" transform="translate(-21.79 142.23) rotate(-22.5)"/><path class="b" d="M357.28,183.5a10.66,10.66,0,1,1-10.66-10.66A10.65,10.65,0,0,1,357.28,183.5Z"/><path class="b" d="M413.27,10.65A10.66,10.66,0,1,1,402.62,0,10.65,10.65,0,0,1,413.27,10.65Z"/><path class="b" d="M413.27,68.27a10.66,10.66,0,1,1-10.65-10.66A10.66,10.66,0,0,1,413.27,68.27Z"/><path class="b" d="M413.27,125.88a10.66,10.66,0,1,1-10.65-10.65A10.65,10.65,0,0,1,413.27,125.88Z"/><path class="b" d="M413.27,183.5a10.66,10.66,0,1,1-10.65-10.66A10.65,10.65,0,0,1,413.27,183.5Z"/><path class="b" d="M469.27,10.65A10.66,10.66,0,1,1,458.61,0,10.66,10.66,0,0,1,469.27,10.65Z"/><path class="b" d="M469.27,68.27a10.66,10.66,0,1,1-10.66-10.66A10.66,10.66,0,0,1,469.27,68.27Z"/><path class="b" d="M469.27,125.88a10.66,10.66,0,1,1-10.66-10.65A10.66,10.66,0,0,1,469.27,125.88Z"/><path class="b" d="M469.27,183.5a10.66,10.66,0,1,1-10.66-10.66A10.65,10.65,0,0,1,469.27,183.5Z"/></g></svg>