<svg xmlns="http://www.w3.org/2000/svg" viewBox="0 0 469.27 194.15"><defs><style>.a{opacity:0.1;}.b{fill:#828487;}</style></defs><g class="a"><path class="b" d="M21.31,10.65A10.66,10.66,0,1,1,10.66,0,10.65,10.65,0,0,1,21.31,10.65Z"/><path class="b" d="M21.31,68.27A10.66,10.66,0,1,1,10.66,57.61,10.66,10.66,0,0,1,21.31,68.27Z"/><circle class="b" cx="10.66" cy="125.88" r="10.66" transform="translate(-85.89 44.4) rotate(-45)"/><path class="b" d="M21.31,183.5a10.66,10.66,0,1,1-10.65-10.66A10.65,10.65,0,0,1,21.31,183.5Z"/><path class="b" d="M77.3,10.65A10.66,10.66,0,1,1,66.65,0,10.65,10.65,0,0,1,77.3,10.65Z"/><path class="b" d="M77.3,68.27A10.66,10.66,0,1,1,66.65,57.61,10.66,10.66,0,0,1,77.3,68.27Z"/><path class="b" d="M77.3,125.88a10.66,10.66,0,1,1-10.65-10.65A10.65,10.65,0,0,1,77.3,125.88Z"/><path class="b" d="M77.3,183.5a10.66,10.66,0,1,1-10.65-10.66A10.65,10.65,0,0,1,77.3,183.5Z"/><path class="b" d="M133.3,10.65A10.66,10.66,0,1,1,122.64,0,10.66,10.66,0,0,1,133.3,10.65Z"/><path class="b" d="M133.3,68.27a10.66,10.66,0,1,1-10.66-10.66A10.66,10.66,0,0,1,133.3,68.27Z"/><path class="b" d="M133.3,125.88a10.66,10.66,0,1,1-10.66-10.65A10.66,10.66,0,0,1,133.3,125.88Z"/><path class="b" d="M133.3,183.5a10.66,10.66,0,1,1-10.66-10.66A10.65,10.65,0,0,1,133.3,183.5Z"/><path class="b" d="M189.29,10.65A10.66,10.66,0,1,1,178.64,0,10.65,10.65,0,0,1,189.29,10.65Z"/><path class="b" d="M189.29,68.27a10.66,10.66,0,1,1-10.65-10.66A10.66,10.66,0,0,1,189.29,68.27Z"/><path class="b" d="M189.29,125.88a10.66,10.66,0,1,1-10.65-10.65A10.65,10.65,0,0,1,189.29,125.88Z"/><path class="b" d="M189.29,183.5a10.66,10.66,0,1,1-10.65-10.66A10.65,10.65,0,0,1,189.29,183.5Z"/><path class="b" d="M245.29,10.65A10.66,10.66,0,1,1,234.63,0,10.66,10.66,0,0,1,245.29,10.65Z"/><path class="b" d="M245.29,68.27a10.66,10.66,0,1,1-10.66-10.66A10.66,10.66,0,0,1,245.29,68.27Z"/><circle class="b" cx="234.63" cy="125.88" r="10.66" transform="translate(105.75 358.89) rotate(-89.27)"/><path class="b" d="M245.29,183.5a10.66,10.66,0,1,1-10.66-10.66A10.65,10.65,0,0,1,245.29,183.5Z"/><path class="b" d="M301.29,10.65A10.66,10.66,0,1,1,290.63,0,10.66,10.66,0,0,1,301.29,10.65Z"/><path class="b" d="M301.29,68.27a10.66,10.66,0,1,1-10.66-10.66A10.66,10.66,0,0,1,301.29,68.27Z"/><circle class="b" cx="290.63" cy="125.88" r="10.66" transform="translate(-26.05 120.8) rotate(-22.5)"/><path class="b" d="M301.29,183.5a10.66,10.66,0,1,1-10.66-10.66A10.65,10.65,0,0,1,301.29,183.5Z"/><path class="b" d="M357.28,10.65A10.66,10.66,0,1,1,346.63,0,10.65,10.65,0,0,1,357.28,10.65Z"/><path class="b" d="M357.28,68.27a10.66,10.66,0,1,1-10.65-10.66A10.66,10.66,0,0,1,357.28,68.27Z"/><path class="b" d="M357.28,125.88a10.66,10.66,0,1,1-10.65-10.65A10.65,10.65,0,0,1,357.28,125.88Z"/><path class="b" d="M357.28,183.5a10.66,10.66,0,1,1-10.65-10.66A10.65,10.65,0,0,1,357.28,183.5Z"/><path class="b" d="M413.27,10.65A10.66,10.66,0,1,1,402.62,0,10.65,10.65,0,0,1,413.27,10.65Z"/><path class="b" d="M413.27,68.27a10.66,10.66,0,1,1-10.65-10.66A10.66,10.66,0,0,1,413.27,68.27Z"/><path class="b" d="M413.27,125.88a10.66,10.66,0,1,1-10.65-10.65A10.65,10.65,0,0,1,413.27,125.88Z"/><path class="b" d="M413.27,183.5a10.66,10.66,0,1,1-10.65-10.66A10.65,10.65,0,0,1,413.27,183.5Z"/><path class="b" d="M469.27,10.65A10.66,10.66,0,1,1,458.61,0,10.66,10.66,0,0,1,469.27,10.65Z"/><path class="b" d="M469.27,68.27a10.66,10.66,0,1,1-10.66-10.66A10.66,10.66,0,0,1,469.27,68.27Z"/><path class="b" d="M469.27,125.88a10.66,10.66,0,1,1-10.66-10.65A10.66,10.66,0,0,1,469.27,125.88Z"/><path class="b" d="M469.27,183.5a10.66,10.66,0,1,1-10.66-10.66A10.65,10.65,0,0,1,469.27,183.5Z"/></g></svg>