<svg xmlns="http://www.w3.org/2000/svg" viewBox="0 0 130.07 23.92"><defs><style>.a{fill:#fff;}</style></defs><polygon class="a" points="65.11 21.86 58.48 13.34 64.37 5.81 61.01 5.81 56.79 11.17 52.62 5.81 49.31 5.81 55.14 13.27 48.4 21.86 51.76 21.86 56.83 15.42 61.86 21.86 65.11 21.86"/><path class="a" d="M29.08,1.86V5.79A13.29,13.29,0,0,0,26,5.49c-5.49,0-9.15,3.7-9.15,8.63s3.3,8.13,9.11,8.13a13.88,13.88,0,0,0,5.83-1.17V1.86H29.08m0,17.76a10.07,10.07,0,0,1-2.87.41c-4.35,0-6.5-2.23-6.5-6,0-4.38,3.12-6.35,6.46-6.35a8.84,8.84,0,0,1,2.91.41Z"/><path class="a" d="M48.63,20.71l-1-1.82A10.55,10.55,0,0,1,42.56,20c-3.62,0-6.41-2.21-6.48-5.63H49l0-.78c.15-5-3-8.11-7.53-8.11a8.18,8.18,0,0,0-8.28,8.13c-.09,5.25,3.6,8.63,8.89,8.63a12.58,12.58,0,0,0,6.5-1.56m-12.44-8.5a5.23,5.23,0,0,1,5.29-4.53,4.63,4.63,0,0,1,4.66,4.53Z"/><path class="a" d="M93.47,20.71l-1-1.82A10.55,10.55,0,0,1,87.4,20c-3.62,0-6.42-2.21-6.48-5.63H93.86l0-.78c.16-5-3-8.11-7.52-8.11a8.17,8.17,0,0,0-8.28,8.13C78,18.89,81.7,22.27,87,22.27a12.71,12.71,0,0,0,6.5-1.56M81,12.21a5.22,5.22,0,0,1,5.29-4.53A4.62,4.62,0,0,1,91,12.21Z"/><path class="a" d="M15.4,20.71l-1-1.82A10.49,10.49,0,0,1,9.32,20C5.7,20,2.93,17.82,2.84,14.4h13l0-.78c.15-5-3-8.11-7.53-8.11A8.18,8.18,0,0,0,0,13.64c-.08,5.25,3.62,8.63,8.89,8.63a12.62,12.62,0,0,0,6.51-1.56M3,12.21A5.23,5.23,0,0,1,8.24,7.68a4.6,4.6,0,0,1,4.64,4.53Z"/><path class="a" d="M78.62,20.71l-1-1.89A10.78,10.78,0,0,1,72.92,20c-3.88,0-5.94-2.3-6-6.16,0-3.68,2.24-6.07,6.1-6.07a9.35,9.35,0,0,1,4.4,1.13l1-1.95A10.3,10.3,0,0,0,73,5.49c-6.37,0-9,4.44-8.91,8.58s2.56,8.18,8.67,8.18a12.06,12.06,0,0,0,5.88-1.54"/><path class="a" d="M99.65,20l.93,1.76a7.39,7.39,0,0,1-2.4.52c-2.08,0-2.91-1.11-2.91-3V1.89H98V18.58c0,1.61.59,1.63,1.65,1.39"/><path class="a" d="M112.66.52a8.27,8.27,0,0,1,.52,2.91,8.22,8.22,0,0,1-.52,2.9,8.27,8.27,0,0,1-2.91.52,8.22,8.22,0,0,1-2.9-.52,8.22,8.22,0,0,1-.52-2.9,8.27,8.27,0,0,1,.52-2.91,8.37,8.37,0,0,1,5.81,0"/><path class="a" d="M129.55,17.39a8.37,8.37,0,0,1,0,5.81,8.37,8.37,0,0,1-5.81,0,8.37,8.37,0,0,1,0-5.81,8.37,8.37,0,0,1,5.81,0"/><path class="a" d="M112.46,9.13a5,5,0,0,1,0,5.46,5.06,5.06,0,0,1-5.46,0,5.2,5.2,0,0,1-.8-2.73,5,5,0,0,1,.8-2.73,5,5,0,0,1,2.73-.8,5.25,5.25,0,0,1,2.73.8"/><path class="a" d="M120.94,17.58a5.19,5.19,0,0,1,0,5.47,5,5,0,0,1-2.73.8,5,5,0,0,1-2.73-.8,5.15,5.15,0,0,1-.8-2.73,5.06,5.06,0,0,1,.8-2.74,5.06,5.06,0,0,1,2.73-.8,5,5,0,0,1,2.73.8"/><path class="a" d="M121.29.37a20.57,20.57,0,0,1,.26,3.1,20.79,20.79,0,0,1-.26,3.1,18.26,18.26,0,0,1-3.1.26,20.57,20.57,0,0,1-3.1-.26,18.26,18.26,0,0,1-.26-3.1,20.57,20.57,0,0,1,.26-3.1,20.57,20.57,0,0,1,3.1-.26,16.28,16.28,0,0,1,3.1.26"/><path class="a" d="M129.77,8.78a20.57,20.57,0,0,1,.26,3.1,20.79,20.79,0,0,1-.26,3.1,17.37,17.37,0,0,1-3.1.26,20.79,20.79,0,0,1-3.1-.26,17.29,17.29,0,0,1-.26-3.1,19.54,19.54,0,0,1,.26-3.1,20.35,20.35,0,0,1,3.1-.26,20.68,20.68,0,0,1,3.1.26"/><path class="a" d="M121.09,9a8.25,8.25,0,0,1,0,5.82,8.4,8.4,0,0,1-2.9.52,8.5,8.5,0,0,1-2.91-.52,8.4,8.4,0,0,1,0-5.82,8.5,8.5,0,0,1,2.91-.52,8.4,8.4,0,0,1,2.9.52"/><rect class="a" x="123.35" y="0.17" width="6.55" height="6.55"/><path class="a" d="M109.75,23.92a3.6,3.6,0,1,1,3.6-3.6,3.59,3.59,0,0,1-3.6,3.6"/></svg>