<svg xmlns="http://www.w3.org/2000/svg" xmlns:xlink="http://www.w3.org/1999/xlink" viewBox="0 0 392.66 543.57"><defs><style>.a{isolation:isolate;}.b{fill:url(#a);}.c{fill:#3e3e3f;}.d{fill:#b36d33;}.e{fill:#6f7173;}.f{fill:#895322;}.g{fill:#f8f2ed;}.h{fill:#fed44e;}.i{fill:#ffc104;}.j{fill:#7e8083;}.k{fill:#e2d4ca;}.l{fill:#7ae5c9;}.m{fill:#002164;}.n{fill:#ffae02;}.o{fill:#f38b00;}.p{fill:#e8a393;}.q{fill:#7270f5;}.r{fill:#353b9a;}.s{fill:#ca0045;opacity:0.32;mix-blend-mode:multiply;}</style><linearGradient id="a" x1="-1899.53" y1="690.51" x2="-1899.53" y2="329.88" gradientTransform="matrix(0.39, 0.93, 0.97, -0.38, 472.34, 2178.21)" gradientUnits="userSpaceOnUse"><stop offset="0" stop-color="#ffc70f"/><stop offset="1" stop-color="#fdf06d"/></linearGradient></defs><g class="a"><path class="b" d="M159,468.18c-27.11-7.35-52.78-24.88-61.77-50.36-16.14-45.76,25.53-94,18-141.8-3.82-24.21-19.84-44.89-36.1-63.83C68.84,200.14,58,188.06,49.57,174.84h0a105.14,105.14,0,0,1-11.72-24c-.29-.9-.54-1.78-.76-2.65-7.69-23.77-4.52-42.81.32-56a78.61,78.61,0,0,1,9.44-18.87h0a122,122,0,0,1,17.6-20.54C107.07,12.34,170.47-7,229.71,2.29s112.83,46.94,139.71,98.18c25.64,48.88,27,106.35,18.75,160.45-8.57,56.41-28,113.19-68,155.51S216.49,483.74,159,468.18Z"/><polygon class="c" points="44.06 398.15 44.06 405.19 127.72 405.19 127.72 423.57 44.06 423.57 44.06 430.62 222.46 430.62 222.46 398.15 44.06 398.15"/><path class="d" d="M244,435.5v0h5.41v-4.86H61.89v22.43H249.45v-4.86H244c-1.78-.16-3.2-2.93-3.2-6.34S242.26,435.66,244,435.5Z"/><rect class="e" x="141.6" y="398.15" width="80.86" height="32.46"/><rect class="f" x="61.89" y="430.62" width="103.52" height="22.44"/><path class="g" d="M44.06,405.19v0c2.58.23,4.63,4.24,4.63,9.17s-2,8.93-4.63,9.16v0H134V405.19Z"/><polygon class="h" points="263.7 543.57 263.7 538.64 141.36 538.64 141.36 525.78 263.7 525.78 263.7 520.85 2.82 520.85 2.82 543.57 263.7 543.57"/><rect class="i" x="2.82" y="520.85" width="118.24" height="22.72"/><path class="g" d="M263.7,538.64h0c-3.77-.17-6.78-3-6.78-6.42s3-6.25,6.78-6.41v0H132.23v12.86Z"/><polygon class="c" points="16.79 453.06 16.79 460.1 106.45 460.1 106.45 478.48 16.79 478.48 16.79 485.52 207.99 485.52 207.99 453.06 16.79 453.06"/><rect class="j" x="121.33" y="453.05" width="110.04" height="32.47"/><path class="g" d="M16.79,460.1v0c2.77.24,5,4.24,5,9.17s-2.2,8.93-5,9.17v0h202.1V460.1Z"/><path class="k" d="M121.61,460.1H16.79v0c2.77.24,5,4.24,5,9.17s-2.2,8.93-5,9.17v0H121.61Z"/><polygon class="d" points="252.68 520.85 252.68 513.19 151.47 513.19 151.47 493.19 252.68 493.19 252.68 485.52 49.49 485.52 49.49 520.85 252.68 520.85"/><rect class="f" x="26.01" y="485.52" width="110.52" height="35.33"/><path class="g" d="M252.68,513.19v0c-2.77-.26-5-4.62-5-10s2.21-9.72,5-10v0H38.54v20Z"/><path class="k" d="M136.25,513.19H252.68v0c-2.77-.26-5-4.62-5-10s2.21-9.72,5-10v0H136.25Z"/><rect class="g" x="186.17" y="448.19" width="57.87" height="0.01"/><path class="g" d="M240.84,441.84c0-3.4,1.42-6.18,3.2-6.34v0h-72.1v12.71H244C242.26,448,240.84,445.25,240.84,441.84Z"/><path class="l" d="M143.47,296.93s-10.33,35.57-15.42,41.39-21.68,14.39-21.68,14.39l4.4,7.44s30.18-14.68,35.41-26.68a87.66,87.66,0,0,0,6.1-18.43c.83-4.4,4.24-15.35,2.54-19.72C153.71,292.47,145.84,291,143.47,296.93Z"/><path class="f" d="M143.47,296.93s-10.33,35.57-15.42,41.39-21.68,14.39-21.68,14.39l4.4,7.44s30.18-14.68,35.41-26.68a87.66,87.66,0,0,0,6.1-18.43c.83-4.4,4.24-15.35,2.54-19.72C153.71,292.47,145.84,291,143.47,296.93Z"/><path class="m" d="M39.93,466.71l-7.62-6.79s-30.46-2.14-32.24.41S29,476.68,32.89,476.43,39.41,469.51,39.93,466.71Z"/><path class="n" d="M95.75,368.38s-28.8-7-31.17-2.47-32.27,94-32.27,94l7.62,6.79S72,391.18,81.27,383.29,100.05,371.5,95.75,368.38Z"/><path class="o" d="M95.75,368.38s-28.8-7-31.17-2.47-32.27,94-32.27,94l7.62,6.79S72,391.18,81.27,383.29,100.05,371.5,95.75,368.38Z"/><path class="n" d="M110.6,351.9a26.76,26.76,0,0,1-6-2.29c-1.6-.84-3.15-1.64-5.08-1.38-1.37.19-12.44,4.59-9.49,6.55,1,.64,3.34-.47,4.29-.8,1.36-.47,2.73-1.1,4-1.65-1.19-.06-7.17,2.36-6.55,3.7,1.11,2.34,7.17-.79,8.58-1.55-1.08.16-4.83,1.5-4.82,2.81,0,2,4.46.34,5.43-.13a6.48,6.48,0,0,1,2-1,8.38,8.38,0,0,1,2.71.46,16.57,16.57,0,0,0,4.72.09c.92-.08,3.07.1,3.52-.65a3.14,3.14,0,0,0-.59-3.21A7,7,0,0,0,110.6,351.9Z"/><path class="p" d="M110.6,351.9a26.76,26.76,0,0,1-6-2.29c-1.6-.84-3.15-1.64-5.08-1.38-1.37.19-12.44,4.59-9.49,6.55,1,.64,3.34-.47,4.29-.8,1.36-.47,2.73-1.1,4-1.65-1.19-.06-7.17,2.36-6.55,3.7,1.11,2.34,7.17-.79,8.58-1.55-1.08.16-4.83,1.5-4.82,2.81,0,2,4.46.34,5.43-.13a6.48,6.48,0,0,1,2-1,8.38,8.38,0,0,1,2.71.46,16.57,16.57,0,0,0,4.72.09c.92-.08,3.07.1,3.52-.65a3.14,3.14,0,0,0-.59-3.21A7,7,0,0,0,110.6,351.9Z"/><polygon class="m" points="60.71 304.4 53.94 307.06 77.21 360.64 84.06 357.11 60.71 304.4"/><rect class="m" x="81.58" y="356.17" width="44.3" height="6.56"/><path class="m" d="M204.23,325.63c-5.93-3.24-6.92-6.81-3.64-18.64s-5.3-24.1-13.56-27.34c-6.07-2.39-11.4-3.44-15.09-9.61s3.3-19.34-8.39-29.09c-8.52-7.11-20.74-1.43-20.74-1.43-2.63-1.39-3.71,13.24-3.9,24.24,14.8,21.63,10.58,49.87,5.19,74.08a10.61,10.61,0,0,1-.54,1.62c1.16,18.74,2.09,34.25,2.09,34.25s35.59,19.22,59.79,2.76S216.1,332.11,204.23,325.63Z"/><path class="m" d="M99.59,462.27l-9,5s-11.07,27.16-9,29.53,24.85-21.56,25.75-25.22S102.25,463.56,99.59,462.27Z"/><path class="n" d="M111.11,366.78s-58,3.87-63.47,8.83,43.86,91.1,43.86,91.1l8.09-4.44s-12.2-41-15.36-50.44S75,390.92,76.1,389.41s59.63,6.9,59.18-8.84S111.11,366.78,111.11,366.78Z"/><path class="n" d="M139.74,273.33s6.1,15.84,2.37,27.65l20.33-4.69s-8.31-26.52-11.87-31S139.74,273.33,139.74,273.33Z"/><path class="o" d="M148.21,287.56c6.66,0,10.11,4.69,10.43,9.6l3.8-.87s-8.31-26.52-11.87-31-10.83,8.08-10.83,8.08a63.06,63.06,0,0,1,3.42,15.38A11.07,11.07,0,0,1,148.21,287.56Z"/><path class="n" d="M137.64,252.68s-7.9,3.6-9.79,6.64-.23,7.24-.39,10-1,6.9-.52,7.58,3.35,0,3.82.6,4.25,2.85,5.43,5.4,2.75,2.77,5.5,1.5,13.28-14.55,13.4-20.78S145.46,250.13,137.64,252.68Z"/><path class="m" d="M144.33,244.23s-3.69,7-4.07,9.82,2.42,11,4.07,12.13.25-9.21,4.45-6.06-.26,9.09,0,10.31a7.62,7.62,0,0,0,6.48,5.46c4.32.36,11.44-20.14,6.73-25.23S149.29,244.23,144.33,244.23Z"/><path class="q" d="M168.71,349.75l-26.92-1.94s-14,14.93-27.85,14.93H66.61s2.39,18.79,13.78,33.7c0,0,45.13,3.17,67,1.44S190.17,373.1,168.71,349.75Z"/><path class="r" d="M171.23,352.76c-.77-1-1.59-2-2.52-3l-26.92-1.94s-13.64,14.5-27.3,14.89C131,364.3,162.5,367.78,171.23,352.76Z"/><path class="s" d="M79.11,365.76c6.86-.64,13.52-2.21,20.28-3H69.7C72.63,364.18,74.07,366.23,79.11,365.76Z"/><path class="d" d="M159.86,287.34s-12.36,4.64-16.55,5.07c0,0-8.71,18.32-12.09,23.28s8.58,23.93,9.26,32.12c0,0,7.2,6.55,29,2.52C169.49,350.33,175.18,298.87,159.86,287.34Z"/><path class="f" d="M163.17,298.28c-3.78-1.65-10.36,0-12.2,3.66-2.28,4.48.06,12.43-.21,17.28-.3,5.09-.63,11.86-2,16.82a34.42,34.42,0,0,1-7.11,12.57c2.8,1.61,10.9,4.85,27.82,1.72,0,0,3.47-31.38-2.3-50.62C165.61,299.2,164.16,298.72,163.17,298.28Z"/><path class="n" d="M114.84,351.9a26.84,26.84,0,0,1-6-2.29c-1.6-.84-3.15-1.64-5.08-1.38-1.37.19-12.44,4.59-9.49,6.55,1,.64,3.34-.47,4.3-.8,1.36-.47,2.72-1.1,4-1.65-1.19-.06-7.18,2.36-6.55,3.7,1.1,2.34,7.16-.79,8.57-1.55-1.07.16-4.82,1.5-4.82,2.81,0,2,4.46.34,5.43-.13a6.69,6.69,0,0,1,2-1,8.34,8.34,0,0,1,2.71.46,16.58,16.58,0,0,0,4.72.09c.92-.08,3.07.1,3.53-.65a3.12,3.12,0,0,0-.6-3.21A7,7,0,0,0,114.84,351.9Z"/><path class="d" d="M113,351.64l2.38,8.51s58.28-6.47,59.63-16.33-2.37-55.77-16.43-51-.17,38.08-2.37,40.66S113,351.64,113,351.64Z"/><path class="m" d="M144.91,240.36a12.1,12.1,0,0,0-14.19.61c-7.25,5.58-7,13.94-13,13.22,0,0,3.94,9.7,12.58,7.4S147.91,246.18,144.91,240.36Z"/></g></svg>