<svg xmlns="http://www.w3.org/2000/svg" viewBox="0 0 421.9 193.96"><defs><style>.a{fill:#343433;}.b{fill:gray;}.c{fill:#f74e63;}.d{fill:#fff;}.e{fill:#1a6198;}.f{fill:#4779e1;}</style></defs><path class="a" d="M124.79,187.84s-3.32-2.82-5.15-4.65a9.2,9.2,0,0,1-2.33-4l-1.44-15.41H75.54l-1.45,15.42a9.3,9.3,0,0,1-2.33,4.14C69.93,185.22,66.6,188,66.6,188s-3,2,1.5,2.7c2.57.38,14,.57,23.26.57h8.7c9.4,0,20.68-.24,23.25-.62,4.49-.66,1.48-2.76,1.48-2.76"/><path class="a" d="M186.87,43.28H4.39C1.77,43.28,0,45.92,0,48.56V155.74c0,2.64,1.77,5.34,4.39,5.34H186.87c2.62,0,4.9-2.7,4.9-5.34V48.56c0-2.64-2.28-5.28-4.9-5.28M183.55,152H7.31V51.5H183.55Z"/><path class="a" d="M297.7,176.61V92.26c0-2.6-2.37-4.23-5-4.23H166.81a4,4,0,0,0-4.26,4.23v84.35ZM168.94,96.25H289.48V172H168.94Z"/><path class="a" d="M139.58,178.82s-1.34,10.57,4,12.4H313.9s7.73.18,6.05-12.58Z"/><path class="b" d="M358.42,192.59c0,.62-.51,1.37-1.14,1.37H285.34c-.62,0-1.13-.75-1.13-1.37s.51-1.37,1.13-1.37h71.94a1.36,1.36,0,0,1,1.14,1.37"/><path class="c" d="M254.34,130.63a16.34,16.34,0,1,1-22.2-6.43,16.34,16.34,0,0,1,22.2,6.43"/><path class="d" d="M246,129.67a5.42,5.42,0,0,0-3.6-1.58c-2.16,0-4.09,1.72-4.93,3.7a8.33,8.33,0,0,0-.42,1.31,7.74,7.74,0,0,0-1.34-.34c-2.12-.35-4.61.35-5.76,2.19a5.46,5.46,0,0,0-.58,3.88c.7,3.78,4,6.6,7.74,7.82a24.57,24.57,0,0,0,7.95,1,24.21,24.21,0,0,0,3.41-7.26c.95-3.79.35-8.11-2.47-10.72"/><path class="e" d="M108.13,100.57A11.15,11.15,0,1,1,97,89.42a11.15,11.15,0,0,1,11.15,11.15"/><path class="d" d="M102.86,99.27A1.19,1.19,0,0,0,102.4,97h-4a10.68,10.68,0,0,0,.74-3.38c0-1.58-1.89-1.4-1.89-.49a3.92,3.92,0,0,1-1.59,3.08,3.92,3.92,0,0,0-1.43,2.23v6.7h7a1.19,1.19,0,0,0,1.19-1.19,1.16,1.16,0,0,0-.26-.73,1.19,1.19,0,0,0,.68-1.07,1.16,1.16,0,0,0-.32-.81,1.2,1.2,0,0,0,.77-1.11,1.18,1.18,0,0,0-.47-1"/><rect class="d" x="90.37" y="98.18" width="3.41" height="6.95"/><path class="f" d="M92.94,103.87a.45.45,0,1,1-.9,0,.45.45,0,1,1,.9,0"/><path class="e" d="M307.2,54.28A12.24,12.24,0,1,1,295,42.05,12.24,12.24,0,0,1,307.2,54.28"/><path class="d" d="M301.42,52.86a1.3,1.3,0,0,0-.51-2.5h-4.37a11.46,11.46,0,0,0,.82-3.72c0-1.73-2.07-1.53-2.07-.54a4.29,4.29,0,0,1-1.75,3.39A4.27,4.27,0,0,0,292,51.94v7.34h7.7a1.31,1.31,0,0,0,1-2.1,1.3,1.3,0,0,0,.74-1.18,1.27,1.27,0,0,0-.35-.88,1.3,1.3,0,0,0,.33-2.26"/><rect class="d" x="287.72" y="51.66" width="3.74" height="7.62"/><path class="f" d="M290.53,57.91a.49.49,0,1,1-1,0,.49.49,0,0,1,1,0"/><path class="c" d="M404,34.9a10.52,10.52,0,1,1-10.52-10.52A10.52,10.52,0,0,1,404,34.9"/><path class="d" d="M399.55,31.77a3.52,3.52,0,0,0-1.54-2,3.69,3.69,0,0,0-3.93.56,5.17,5.17,0,0,0-.64.6,4.63,4.63,0,0,0-.65-.6,3.69,3.69,0,0,0-3.93-.56,3.55,3.55,0,0,0-1.53,2c-.78,2.35.22,5,1.93,6.81a15.45,15.45,0,0,0,4.18,3,15.55,15.55,0,0,0,4.17-3c1.71-1.84,2.72-4.46,1.94-6.81"/><path class="e" d="M385.9,11.33A11.33,11.33,0,1,1,374.58,0,11.32,11.32,0,0,1,385.9,11.33"/><path class="d" d="M380.55,10a1.19,1.19,0,0,0,.74-1.11,1.21,1.21,0,0,0-1.21-1.2h-4a11.07,11.07,0,0,0,.75-3.45c0-1.6-1.92-1.41-1.92-.49a4,4,0,0,1-1.61,3.14,3.92,3.92,0,0,0-1.45,2.26V16h7.12a1.2,1.2,0,0,0,.95-2,1.19,1.19,0,0,0,.37-1.91,1.2,1.2,0,0,0,.3-2.09"/><path class="e" d="M421.9,38.22a6,6,0,1,1-6-6,6,6,0,0,1,6,6"/><path class="d" d="M419.06,37.52a.64.64,0,0,0-.25-1.23h-2.15a5.64,5.64,0,0,0,.4-1.83c0-.85-1-.75-1-.26a2.12,2.12,0,0,1-.85,1.67,2,2,0,0,0-.77,1.2v3.6h3.78a.64.64,0,0,0,.64-.64.6.6,0,0,0-.14-.39.63.63,0,0,0,.37-.58.64.64,0,0,0-.17-.43.64.64,0,0,0,.16-1.11"/><rect class="d" x="412.33" y="36.93" width="1.84" height="3.75"/><path class="f" d="M413.71,40a.24.24,0,0,1-.24.24.24.24,0,1,1,0-.48.24.24,0,0,1,.24.24"/></svg>