<svg xmlns="http://www.w3.org/2000/svg" xmlns:xlink="http://www.w3.org/1999/xlink" viewBox="0 0 751.01 832.5"><defs><style>.a{fill:#696a6d;}.b{fill:url(#a);}.c{fill:#fbbebe;}.d{fill:#464353;}.e,.m{opacity:0.1;}.e{isolation:isolate;}.f{fill:#fffcdf;}.g{fill:#f4a628;}.h{fill:#9d602a;}.i{fill:#3f3d56;}.j{fill:#895322;}.k{fill:#3a4b5c;}.l{fill:#fff;}</style><linearGradient id="a" x1="-229.42" y1="3154.86" x2="-229.42" y2="3498.53" gradientTransform="matrix(1, 0, 0, -1, 573.11, 3987.36)" gradientUnits="userSpaceOnUse"><stop offset="0" stop-color="gray" stop-opacity="0.25"/><stop offset="0.54" stop-color="gray" stop-opacity="0.12"/><stop offset="1" stop-color="gray" stop-opacity="0.1"/></linearGradient></defs><path class="a" d="M26.33,448c26.27,30.15,50.24,33.09,77.85,48.22,33.73,18.48,57,32.38,64.86,70,12.79,61.54,64.83,207.13,210.3,128.64,52.14-28.14,79-87,94.16-141.21,12.87-46.11,59.83-68.08,95.39-91.54,43.67-28.83,86.2-63.22,121.48-103,72.64-82,73.64-159.54,36.49-243.72C715.64,90,696.07,50.66,633.75,20.05,549.64-21.27,460.57,3.58,369,73.42c-21,16-39.14,35.31-59.25,52.37a350.73,350.73,0,0,1-68.31,45.36C184.38,200,118.91,213.63,69,253.52A201,201,0,0,0,8.83,333.75C-7.22,372.79-1.39,416.2,26.33,448Z"/><path class="b" d="M484.06,804.84a26,26,0,0,0-2.69-7A24.34,24.34,0,0,0,477,793c-4.87-4.43-10.86-8.92-17.32-7.8a23,23,0,0,0-5.74,2.1c-.94.43-1.89.87-2.86,1.24a14.22,14.22,0,0,1-8.62.75c-1.48-.39-2.86-1.11-4.32-1.55a13.93,13.93,0,0,0-2.11-.46,35.48,35.48,0,0,0,4.09-2.16c7.25-4.43,13-12.45,12.23-21a35.16,35.16,0,0,0-2.25-8.37l-2.58-7.14c-1.12-3.09-2.27-6.24-4.31-8.81a22.25,22.25,0,0,0-8.83-6.25c-7.16-3.12-15-4.21-22.71-5.28l-.54-.07V644.71a5.38,5.38,0,0,0-5.38-5.38H395.56c-.45-2.75-.9-5.48-1.35-8.22-1.27-7.8-2.6-15.75-6.2-22.78-2.35-4.6-6.1-9-11.15-9.89a11,11,0,0,1-2.89-.67c-1.48-.73-2.29-2.34-3.43-3.53-2.93-3.08-7.69-3.12-11.62-4.71-3.47-1.38-6.31-4-9.47-6s-7.09-3.42-10.58-2.12a6.31,6.31,0,0,1-.08.76l-2.24-1a24.94,24.94,0,0,1-6.83-4.12c-2.5-2.35-3.83-5.47-4.86-8.79-.11-.34-.21-.67-.32-1a31.13,31.13,0,0,0,8.36-16l.55,1.77a9.63,9.63,0,0,0,.43,1.17,4.65,4.65,0,0,0,1.34,1.9,2.35,2.35,0,0,0,.57.33,1.91,1.91,0,0,0,.58.15,2.32,2.32,0,0,0,.83-.06,3.18,3.18,0,0,0,2-1.87,4.53,4.53,0,0,0,.23-.82,4.4,4.4,0,0,0,.05-.51v-.7a1.51,1.51,0,0,0,0-.34v-.17a1.76,1.76,0,0,0-.07-.4c0-.12,0-.07,0-.1s-.08-.35-.11-.52V551s-.06-.28-.09-.42a2.83,2.83,0,0,1-.07-.28v0h0c-.07-.27-.13-.53-.19-.8a23.18,23.18,0,0,1-.37-7.1A75.33,75.33,0,0,1,340.5,532l.14-.61.15-.71c.11-.49.22-1,.32-1.46h0l.24-1.24.18-1.1v-.14a31.81,31.81,0,0,0,.24-7.55h0a15.89,15.89,0,0,0-3.79-9.5c-1.69-1.87-3.91-3.26-5.48-5.23s-2.29-4.11-3.81-5.92c-4.2-5-15-8.87-21.58-9.54-7.57-.77-19.8,1.17-25.91,5.64-2.25,1.64-3.8,4-5.38,6.29-2.88,4.2-6.17,8.4-10.8,10.76-1.75.89-3.75,1.56-4.91,3.11a8.21,8.21,0,0,0-1.32,3.48,69.09,69.09,0,0,0-1.38,13.3h0v1.68a12.17,12.17,0,0,0,1,4.86c.11.23.23.45.35.67l.09.14a27.51,27.51,0,0,1,2.15,3.67,5.44,5.44,0,0,1,.33,1.11,8.36,8.36,0,0,1-.19,2.95h0a2.15,2.15,0,0,1-.09.44l-.06.29a.54.54,0,0,1-.06.3c-.05.29-.1.58-.14.86h0a6.1,6.1,0,0,0,.15,2.33,3,3,0,0,0,1.5,2,4.26,4.26,0,0,0,1.21.38c.42.07.85.12,1.27.21a6.67,6.67,0,0,1,1.54.58,6,6,0,0,1,1.29.83,7.4,7.4,0,0,1,.56.56,9.36,9.36,0,0,1,1,1.31c.14.24.28.48.4.72a16.94,16.94,0,0,1,1.15,3c.18.63.32,1.26.45,1.89.06.29.11.57.16.84s.09.56.14.84h0a1.93,1.93,0,0,0,.53-.11,3.65,3.65,0,0,0,1.85-2.62c.06-.19.1-.37.14-.55.16-.68.32-1.42.47-2.12a31.16,31.16,0,0,0,12.28,13.51c.18.56.37,1.11.53,1.68.88,3,1.3,6.23-.23,8.89a9.32,9.32,0,0,1-5,3.86,3.26,3.26,0,0,0-1.11-.94c-1.76-.89-3.89.19-5.38,1.51-2.68,2.44-4.88,5.93-8.42,6.73-1.27.29-2.68.23-3.75,1a8.84,8.84,0,0,0-1.74,2.29,8,8,0,0,1-6.88,3.43c-1.23-.06-2.69-.34-3.53.56-.62.67-.67,1.73-1.34,2.37-.9.89-2.38.46-3.64.4a7.27,7.27,0,0,0-6,3.43,22.28,22.28,0,0,0-2.69,6.73v0a3.8,3.8,0,0,0-.49.41,7.12,7.12,0,0,0-1.49,2.4,115.08,115.08,0,0,0-9.48,39.12,4,4,0,0,1-.43,1.9,10.05,10.05,0,0,1-1,1.08,3.76,3.76,0,0,0,.54,5.3l.09.08a3.77,3.77,0,0,1,.72-1c-.08.31-.14.61-.19.89a23.86,23.86,0,0,0-.08,5.91q1,14,1.93,28c.19,2.64.37,5.28.61,7.91q.7,7.65,2,15.25c0,.22.08.46.14.67-5.48,1.74-10.35,4.89-12.4,10.14-.71,1.81-1,3.79-1.91,5.53-1,1.91-2.54,3.44-3.59,5.31-1.81,3.21-1.89,7.15-1.23,10.75,1.27,7,5.07,13.31,10.09,18.42H221a10.5,10.5,0,0,0-4.59,1.65c-10.61,6.2-16.68,19.5-14.46,31.64a13.46,13.46,0,0,0,2.78,6.59,10.37,10.37,0,0,0,4.9,3,16.91,16.91,0,0,0,3.61.67c8.27.67,16.28-3.16,24.56-3.48a66.5,66.5,0,0,1,8.23.38q6,.5,12,.63c6.52.16,10.18-1.58,14.34-6.44a17.56,17.56,0,0,0,2.53-4c3.54-.2,7.44-.51,10.27-.74l0,.39c.15,1.35.39,2.89,1.46,3.74a5.19,5.19,0,0,0,2,.83c6.79,1.67,13.66,3.36,20.66,3.36a89.58,89.58,0,0,0,9.81-.75l12.28-1.42a60.65,60.65,0,0,1,10.56,2.3c3.55,1.2,6.86,3,10.33,4.41,8.07,3.27,16.74,4.44,25.34,5.58,1.46.19,3.14.33,4.23-.67,1.4-1.35.93-3.59.54-5.48a22.88,22.88,0,0,1-.38-2.32,118.26,118.26,0,0,1,17,5.89l1,.42c.28,1.47,1.63,2.64,2.93,4.22a11.43,11.43,0,0,0,1.49,1.84,4.8,4.8,0,0,0,2.13.76A99.19,99.19,0,0,0,434,826.56a27.65,27.65,0,0,1,5.68-.19,23.14,23.14,0,0,1,4.1.92l7.78,2.23c5.73,1.64,11.6,3.3,17.55,2.93a22.84,22.84,0,0,0,3.59-.52c4.7-1.09,9.09-3.72,11.35-7.95C487.25,818.24,485.78,811.16,484.06,804.84Z"/><path class="c" d="M266.4,803.53c-1.42-3.23-2.77-6.94-1.35-10.17a8.66,8.66,0,0,1,4.48-4.2,21.37,21.37,0,0,1,6.05-1.49,84,84,0,0,1,19.67-.27c.48,3.78-.53,7.61-1.4,11.26-.78,3.36-1.24,3.86-4.7,4C286.9,802.82,266.93,804.72,266.4,803.53Z"/><path class="d" d="M326.28,728c53.1,0,96.15,12,96.15,26.89s-43.05,26.9-96.15,26.9-96.16-12-96.16-26.9S273.17,728,326.28,728Z"/><path class="e" d="M326.28,728c53.1,0,96.15,12,96.15,26.89s-43.05,26.9-96.15,26.9-96.16-12-96.16-26.9S273.17,728,326.28,728Z"/><path class="f" d="M343.51,612.88a30,30,0,0,1-15.42,14,38.76,38.76,0,0,1-12.24,2.32,34.86,34.86,0,0,1-13.52-1.65c-5.76-2.08-10.54-6.34-14.12-11.31A68.91,68.91,0,0,1,280,599.89c-1.14-3-2.21-6.15-1.68-9.3,3.46-.78,7.25-1.94,9-5,1.53-2.64,1.11-5.8.23-8.81-.25-.85-.54-1.7-.83-2.52-.67-1.94-3-5.65-1.35-7.32,1-1,5.34-1.59,6.83-2.28,4.58-2.11,8.8-5.16,13.83-6.16,4.35-.87,8.84-.06,13.19.84a4.52,4.52,0,0,1,1.62.59,3.9,3.9,0,0,1,1.21,1.81c1.24,3,2,6.35,3,9.49s2.37,6.37,4.86,8.7a24.63,24.63,0,0,0,6.84,4.08l6,2.73a7.7,7.7,0,0,1,2.81,1.82,7.14,7.14,0,0,1,1.35,3.66A34.07,34.07,0,0,1,343.51,612.88Z"/><path class="e" d="M325,571.22a30.93,30.93,0,0,1-37.43,5.55c-.25-.85-.54-1.7-.82-2.52-.68-1.94-3-5.65-1.35-7.32,1-1,5.34-1.59,6.83-2.28,4.57-2.11,8.8-5.16,13.83-6.16,4.35-.87,8.84-.06,13.18.84a4.5,4.5,0,0,1,1.63.59,3.9,3.9,0,0,1,1.21,1.81C323.32,564.75,324.05,568.08,325,571.22Z"/><path class="f" d="M302.74,517.51a30.93,30.93,0,1,1-30.93,30.93A30.93,30.93,0,0,1,302.74,517.51Z"/><path class="g" d="M397,648.82l-2.55-15.4c-1.28-7.72-2.61-15.6-6.2-22.55-2.36-4.56-6.1-8.91-11.15-9.81a10.8,10.8,0,0,1-2.91-.67c-1.47-.71-2.28-2.31-3.42-3.5-2.93-3-7.7-3.08-11.63-4.63-3.47-1.34-6.31-3.93-9.47-5.91s-7.09-3.36-10.59-2.1c-.56,6-1.16,12.17-3.71,17.65a26.43,26.43,0,0,1-39.85,9.93c-6-4.52-9.83-11.47-11.62-18.76-.44-1.77-.94-3.81-2.57-4.62s-3.89.19-5.38,1.49c-2.69,2.41-4.88,5.87-8.42,6.68-1.28.3-2.69.24-3.76,1A8.74,8.74,0,0,0,262,599.9a8.07,8.07,0,0,1-6.88,3.4c-1.23-.06-2.69-.34-3.53.55-.62.67-.67,1.72-1.35,2.35-.9.88-2.38.45-3.64.4a7.38,7.38,0,0,0-6,3.36,21.66,21.66,0,0,0-2.69,6.64c7.35,16.36,14.07,32.75,21.42,49.11a4.2,4.2,0,0,1,.53,2,5.07,5.07,0,0,1-.91,2c-3.61,5.79-3.49,13.07-3.09,19.87s.88,14-2.16,20.09c-.83,1.68-1.91,3.21-2.69,4.88-1.84,3.8-2.51,15.93-1.43,20h152c-2.9-8-1.8-24-1.19-32.41.42-5.92-.67-11.83-1.14-17.75C398.25,672.35,399,660.88,397,648.82Z"/><path class="f" d="M226.28,666.44a24,24,0,0,0-.08,5.87l1.93,27.75c.19,2.61.37,5.22.61,7.83.46,5.06,1.15,10.09,2,15.1a2.68,2.68,0,0,0,2.75,2.62c8.51,1.8,17.3,1.73,26,1.24,13.24-.75,26.47-2.43,39.73-2.14,3.42.07,7.4,0,9.47-2.69s.87-7-1.83-9.21-6.38-2.69-9.85-2.69c-4.59,0-9.18.6-13.76.33a68.06,68.06,0,0,1-12.39-2.28l-11.43-2.84a44.32,44.32,0,0,1,3-10c2.24-5.83,4.34-11.86,4.38-18.1s-2.31-12.82-7.43-16.4c-4.21-2.93-9.63-3.48-14.76-3.36-3.73.11-10.18-.78-13.59.67C228.35,659.32,226.79,663.8,226.28,666.44Z"/><path class="d" d="M404.75,729.88c2.24-.85,4.71-.54,7.11-.22,7.73,1.06,15.57,2.14,22.73,5.23a22.31,22.31,0,0,1,8.83,6.19,30.45,30.45,0,0,1,4.31,8.74l2.59,7.07a34.42,34.42,0,0,1,2.25,8.29c.81,8.47-5,16.45-12.27,20.85s-15.85,6-24.2,7.6-16.74,3.46-25.05,5.38a100.67,100.67,0,0,1-11.79,2.32c-8.9,1-18.21-.48-26.67,2.47-3.36,1.18-6.66,2.93-10.15,3.74a64,64,0,0,1-7,1.07l-16,1.83a89.57,89.57,0,0,1-9.82.75c-7,0-13.87-1.66-20.66-3.31a5.3,5.3,0,0,1-2-.81c-1.07-.85-1.31-2.35-1.46-3.71q-1-9-1.8-18.05c-.17-2-.29-4.08.78-5.72,1.35-2,4-2.65,6.36-3a165.47,165.47,0,0,1,30.72-2.13c3.9-3.91,10.34-3.93,15.46-6a47.23,47.23,0,0,0,5.46-3,71.28,71.28,0,0,1,29.94-9.46,28.14,28.14,0,0,0,6.12-.87c4-1.24,7.57-4.58,11.64-3.76.5-1.4.85-3.26,2-4.21.58-.49,1.29-.82,1.82-1.35,1.12-1.13,1.22-2.92,1.06-4.51a13.17,13.17,0,0,1-.14-4.76,6.37,6.37,0,0,1,.75-1.66A9.09,9.09,0,0,1,404.75,729.88Z"/><path class="h" d="M404.75,729.88c2.24-.85,4.71-.54,7.11-.22,7.73,1.06,15.57,2.14,22.73,5.23a22.31,22.31,0,0,1,8.83,6.19,30.45,30.45,0,0,1,4.31,8.74l2.59,7.07a34.42,34.42,0,0,1,2.25,8.29c.81,8.47-5,16.45-12.27,20.85s-15.85,6-24.2,7.6-16.74,3.46-25.05,5.38a100.67,100.67,0,0,1-11.79,2.32c-8.9,1-18.21-.48-26.67,2.47-3.36,1.18-6.66,2.93-10.15,3.74a64,64,0,0,1-7,1.07l-16,1.83a89.57,89.57,0,0,1-9.82.75c-7,0-13.87-1.66-20.66-3.31a5.3,5.3,0,0,1-2-.81c-1.07-.85-1.31-2.35-1.46-3.71q-1-9-1.8-18.05c-.17-2-.29-4.08.78-5.72,1.35-2,4-2.65,6.36-3a165.47,165.47,0,0,1,30.72-2.13c3.9-3.91,10.34-3.93,15.46-6a47.23,47.23,0,0,0,5.46-3,71.28,71.28,0,0,1,29.94-9.46,28.14,28.14,0,0,0,6.12-.87c4-1.24,7.57-4.58,11.64-3.76.5-1.4.85-3.26,2-4.21.58-.49,1.29-.82,1.82-1.35,1.12-1.13,1.22-2.92,1.06-4.51a13.17,13.17,0,0,1-.14-4.76,6.37,6.37,0,0,1,.75-1.66A9.09,9.09,0,0,1,404.75,729.88Z"/><path class="i" d="M272.58,807.69c-4.16,4.82-7.82,6.54-14.34,6.38q-6-.14-12-.62a66.51,66.51,0,0,0-8.23-.39c-8.29.33-16.3,4.13-24.58,3.46a17.8,17.8,0,0,1-3.61-.67,10.57,10.57,0,0,1-4.9-3,13.33,13.33,0,0,1-2.78-6.53A30.74,30.74,0,0,1,216.6,775a10.53,10.53,0,0,1,4.59-1.64,11,11,0,0,1,4.66,1l.1,0a35.12,35.12,0,0,1,11.52,7.69,6.7,6.7,0,0,0,1.76,1.42,6.18,6.18,0,0,0,2.08.39l8.84.56a20.91,20.91,0,0,1,4.44.61,35.58,35.58,0,0,1,4.66,2c4.75,2.13,10,2.69,15.16,3.51a2.3,2.3,0,0,1,1.35.54,2.09,2.09,0,0,1,.41.88A17.12,17.12,0,0,1,272.58,807.69Z"/><path class="c" d="M397.06,791.17c4.94-.13,10.49-.38,14.12,3,3.47,3.14,3.92,8.33,4.15,13l.26,5.42a10.93,10.93,0,0,1-.51,4.9c-1.19,2.69-4.43,4-7.4,3.83s-5.69-1.45-8.4-2.62a117.87,117.87,0,0,0-22.86-7.2q.39-5.62,1.28-11.2c.41-2.58.48-6.89,2.2-9s4.19-1,6.67-.62A53.35,53.35,0,0,0,397.06,791.17Z"/><path class="j" d="M266.46,736.65c0,.67-1.06,0-1.15-.72-.74-5.44-5.06-9.92-10.09-12.1s-10.75-2.3-16.2-1.78c-8.24.78-17.48,3.93-20.5,11.63-.71,1.81-1,3.76-1.9,5.48-1,1.9-2.55,3.41-3.6,5.25-1.81,3.19-1.88,7.1-1.23,10.7,1.75,9.62,8.33,17.84,16.3,23.54s17.28,9.09,26.56,12.16a461.61,461.61,0,0,0,75.31,18,72.06,72.06,0,0,1,12.29,2.53c3.55,1.19,6.87,3,10.34,4.37,8.07,3.24,16.75,4.4,25.35,5.53,1.47.19,3.15.33,4.23-.67,1.4-1.3.93-3.55.54-5.42a29.14,29.14,0,0,1,3.43-20.68c1.44-2.42,3.31-4.9,3-7.71-.32-3.26-3.58-5.58-6.82-6.1s-6.53.25-9.79.67a5.22,5.22,0,0,1-3.32-.33,6.25,6.25,0,0,1-1.31-1.15,14.73,14.73,0,0,0-17.17-2.4c-1.2.67-3-.83-4.28-1.4l-14.14-6.4c-16.24-7.35-32.57-14.73-49.75-19.38a10.39,10.39,0,0,1-3.84-1.6c-.85-.67-1.46-1.58-2.25-2.33-1.71-1.62-4.1-2.27-6.16-3.42S266,739,266.46,736.65Z"/><rect class="k" x="261.39" y="641.57" width="149.94" height="95.48" rx="5.36"/><path class="l" d="M336,685.27a4,4,0,1,1-4,4A4,4,0,0,1,336,685.27Z"/><path class="i" d="M281.37,498.24c-2.26,1.64-3.8,4-5.38,6.24-2.89,4.16-6.18,8.31-10.81,10.63-1.75.88-3.76,1.55-4.92,3.08a8.3,8.3,0,0,0-1.31,3.45,68.66,68.66,0,0,0-1.39,13.18,14.71,14.71,0,0,0,1.07,6.48c.92,1.88,2.58,3.48,2.93,5.53.26,1.6-.33,3.19-.54,4.8s.15,3.51,1.64,4.27a9.72,9.72,0,0,0,2.49.59c4.47,1,6,6.24,6.65,10.58,1.52-.09,2.2-1.83,2.52-3.25L279,543.1c.5-2.24,1.34-4.84,3.58-5.63,1.5-.52,3.14,0,4.71.1,6.15.5,11.36-4.25,17.37-5.56a22.17,22.17,0,0,1,5.86-.39c4.75.23,10.27,2.18,11.28,6.61.16.73.26,1.59.94,1.94s1.38.06,2.08,0c3-.3,4.79,3.09,5.66,5.86l3.16,10.08c.47,1.53,1.26,3.33,2.91,3.52s2.83-1.26,3.06-2.69a11.77,11.77,0,0,0-.6-4.36c-1.49-6.62.79-13.4,2.17-20s1.63-14.26-3-19.37c-1.69-1.85-3.91-3.23-5.48-5.18s-2.29-4.08-3.81-5.87c-4.21-5-15-8.78-21.59-9.42C299.71,491.89,287.48,493.81,281.37,498.24Z"/><g class="m"><path d="M336.56,554.92c-1.65-.2-2.45-2-2.92-3.51q-1.58-5.05-3.16-10.09c-.86-2.78-2.64-6.16-5.65-5.86-.71.08-1.47.35-2.09,0s-.77-1.21-.94-1.93c-1-4.44-6.52-6.38-11.27-6.62a22.17,22.17,0,0,0-5.86.39c-6,1.34-11.22,6.05-17.37,5.56-1.59-.13-3.23-.62-4.71-.1-2.27.78-3.08,3.36-3.58,5.64l-4.66,20.7c-.32,1.43-1,3.17-2.53,3.25-.67-4.33-2.17-9.57-6.64-10.57a10.49,10.49,0,0,1-2.49-.58,2.87,2.87,0,0,1-1.3-1.45c-.12.63-.26,1.25-.34,1.88-.21,1.6.15,3.51,1.64,4.27a9.62,9.62,0,0,0,2.49.59c4.47,1,6,6.24,6.64,10.58,1.52-.09,2.21-1.83,2.53-3.25L279,543.1c.5-2.24,1.34-4.84,3.58-5.63,1.5-.52,3.14,0,4.71.1,6.15.5,11.35-4.25,17.37-5.56a22.17,22.17,0,0,1,5.86-.39c4.75.23,10.26,2.18,11.27,6.61.17.73.27,1.59.94,1.94s1.38.06,2.09,0c3-.3,4.79,3.09,5.65,5.86,1,3.36,2.11,6.73,3.16,10.08.47,1.53,1.27,3.33,2.92,3.52s2.83-1.26,3.05-2.69a9,9,0,0,0-.4-3.57A2.76,2.76,0,0,1,336.56,554.92Z"/><path d="M261.57,542.12c-.35-2-2-3.64-2.93-5.53a11.22,11.22,0,0,1-1-4c0,.75-.06,1.51-.07,2.27a14.6,14.6,0,0,0,1.07,6.48c.75,1.52,2,2.87,2.59,4.42A10.23,10.23,0,0,0,261.57,542.12Z"/><path d="M341.19,527.81c-1.23,5.87-3.14,11.84-2.54,17.71.38-4.33,1.64-8.7,2.54-13a34.46,34.46,0,0,0,.78-10A42.22,42.22,0,0,1,341.19,527.81Z"/></g></svg>