<svg xmlns="http://www.w3.org/2000/svg" xmlns:xlink="http://www.w3.org/1999/xlink" viewBox="0 0 310.7 644.39"><defs><style>.a{isolation:isolate;}.b{opacity:0.1;mix-blend-mode:multiply;fill:url(#a);}</style><linearGradient id="a" x1="247.44" y1="749.55" x2="-64.28" y2="-326.88" gradientUnits="userSpaceOnUse"><stop offset="0" stop-color="#a36d0b"/><stop offset="1" stop-color="#e2771d"/></linearGradient></defs><g class="a"><path class="b" d="M299.5,259.71c-15.69,18.28-41.79,17.92-64.57,15.78-19.16-1.79-41.68-1.13-59.38,7.86-15.65,8-28.59,25.12-27.88,44.11.92,25,23.71,43.47,26.68,68.29,3.3,27.21-17.86,50.08-38.1,66.09s-43.58,33.35-48,60.38c-1.62,9.88-.38,20-.92,30.07-1.4,27.74-16.4,53.52-36.91,69.78C35.57,633.8,18.08,640.94,0,644.39V0H128.56c7.74,9.05,14.4,19.29,20.73,29.59,27.88,45.43,50,97.88,96.13,124.5,13.65,7.86,28.43,13.39,40.77,23.51,11.42,9.41,20.4,22.87,23.43,38.23S309.3,248.28,299.5,259.71Z"/></g></svg>