<svg xmlns="http://www.w3.org/2000/svg" viewBox="0 0 799 667.12"><defs><style>.a{fill:#f9a826;}.b{fill:#2f2e41;}.c{fill:#9f616a;}.d{fill:#3f3d56;}.e{fill:#ccc;}.f{fill:#ededed;}.g{fill:#e6e6e6;}.h{opacity:0.1;isolation:isolate;}.i{fill:#8985a8;}.j{fill:#f2f2f2;}</style></defs><path class="a" d="M649,630.2H164l.22-51.42c.55-130.12,104.41-237.33,234.5-239.54,1.41,0,2.82,0,4.23,0h0a245.41,245.41,0,0,1,85.75,15.41c92.06,34.28,153.84,121.38,158,219.52Z"/><rect class="b" y="630.2" width="799" height="2"/><polygon class="b" points="398.29 400.21 419.66 415.75 441.03 598.37 491.54 598.37 474.06 390.49 404.12 363.29 398.29 400.21"/><path class="b" d="M308.92,341.92s-5.83,66.06,17.48,68,112.69-19.43,112.69-19.43L481.83,542l64.11-33s-38.86-171-62.17-180.68-101-29.14-101-29.14L326.4,308.9Z"/><path class="b" d="M448.8,594.49s-11.66,44.68-3.89,48.57a138.33,138.33,0,0,1,13.6,7.77v-7.77s9.72,9.71,9.72,17.48,52.45,9.71,52.45,0-1.94-21.37-11.65-27.2-21.38-38.85-21.38-38.85Z"/><polygon class="b" points="505.14 514.83 509.02 551.75 522.63 575.06 555.65 538.14 530.4 497.35 505.14 514.83"/><path class="b" d="M536.22,551.74s7.16-24.46,14.27-21.94,34.3,27.77,34.3,27.77l19.43,11.66s38.86,3.89,27.2,15.54S577,612,557.6,604.2s-23.32-9.71-23.32-9.71l-5.83,3.88-23.31-5.83,3.89-40.8S514.85,569.23,536.22,551.74Z"/><circle class="c" cx="374.97" cy="54.39" r="44.68"/><path class="c" d="M346.8,80.62s3.89,40.8-7.77,40.8,1.94,50.51,33,50.51S414.8,111.7,414.8,111.7s-21.37-7.77-17.48-33S346.8,80.62,346.8,80.62Z"/><path class="d" d="M343.71,118.31l-16.34,7-44.32,18.76a9,9,0,0,0-5.44,9.29L294.35,302.1S276.86,339,304.06,341l3.89,13.6L339,317.64l116.57-3.89,1.94-188.45-53.33-21.07S397,144.33,343.71,118.31Z"/><path class="d" d="M289.49,149.59l-7.18-2.05A5.92,5.92,0,0,0,275,151.6c-.06.23-.11.46-.15.7l-19,119.5a41.46,41.46,0,0,0,4,25.92C265.73,308.87,278,319,303.09,307l17.49-126.28Z"/><path class="d" d="M435.2,122.39l23.31,3.88,64.11,89.37,5.83,15.54,36.92-11.65s-2,17.48,17.48,15.54c0,0-23.31,64.11-71.88,44.68S446.86,202,446.86,202Z"/><polygon class="e" points="462.4 161.25 374.97 126.27 371.09 137.93 411.89 172.9 462.4 161.25"/><path class="b" d="M348.07,57.24c1.65-.44,1.89-2.63,1.95-4.34.29-9.14,5.8-18.52,14.55-21.18a24.26,24.26,0,0,1,10.31-.57,38.9,38.9,0,0,1,14,4.66c2.28,1.28,4.52,2.82,7.1,3.21,1.71.26,9.1,2.41,10.8,2.71,3.74.67,7.21,4,10.8,2.77,3.43-1.19,4.19-5.63,4.28-9.27C422,27,415.73,15.51,410.2,9.36c-4.2-4.68-10.52-6.83-16.7-7.95A110.78,110.78,0,0,0,371.67.08c-9.89.18-20.06.94-29,5.22S326.29,18.09,325.86,28c-.09,2.06.13,4.13-.05,6.18-.42,5-3.08,9.53-4.33,14.4a26.4,26.4,0,0,0,3.68,21.06c3.31,4.87,16.55,9.29,16.36,15.17,2.39-2.47-3.25-5-.86-7.45a5.87,5.87,0,0,0,1.75-7.19l-2.54-9.91c-.46-1.82-.92-3.78-.22-5.51C342.37,48,345.32,58,348.07,57.24Z"/><polygon class="f" points="371.09 137.93 334.18 281.7 477.94 332.21 561.48 262.27 613.94 104.9 528.45 167.07 371.09 137.93"/><rect class="g" x="446.86" y="100.57" width="1.94" height="144.67" transform="translate(166.38 561.79) rotate(-75.22)"/><rect class="g" x="442.97" y="110.28" width="1.94" height="144.67" transform="translate(154.1 565.27) rotate(-75.22)"/><rect class="g" x="441.03" y="119.99" width="1.94" height="144.67" transform="translate(143.26 570.62) rotate(-75.22)"/><rect class="g" x="439.09" y="129.71" width="1.94" height="144.67" transform="translate(132.42 575.98) rotate(-75.22)"/><rect class="g" x="437.14" y="139.42" width="1.94" height="144.67" transform="translate(121.58 581.34) rotate(-75.22)"/><rect class="g" x="435.2" y="149.14" width="1.94" height="144.67" transform="translate(110.74 586.7) rotate(-75.22)"/><rect class="g" x="433.26" y="158.85" width="1.94" height="144.67" transform="translate(99.9 592.05) rotate(-75.22)"/><rect class="g" x="431.31" y="168.56" width="1.94" height="144.67" transform="translate(89.06 597.41) rotate(-75.22)"/><rect class="g" x="429.37" y="178.28" width="1.94" height="144.67" transform="translate(78.22 602.77) rotate(-75.22)"/><path class="c" d="M311.85,243.68s43.7-26.09,63.12-8.61-56.34,42.74-56.34,42.74Z"/><path class="d" d="M264.23,256.44l56.35-21.37s-9.72,36.91,9.71,38.86l-27.2,33S248.69,307,264.23,256.44Z"/><polygon class="g" points="412.49 255.64 487.25 280.84 469.56 319.41 394.8 294.21 412.49 255.64"/><polygon class="e" points="544.97 173.87 601.31 131.13 585.77 183.59 527.48 226.33 544.97 173.87"/><rect class="g" x="510.58" y="223.41" width="70.72" height="1.94" transform="translate(-24.63 375.56) rotate(-37.18)"/><rect class="g" x="506.69" y="244.78" width="70.72" height="1.94" transform="translate(-38.33 377.56) rotate(-37.18)"/><path class="c" d="M577,237s48.57-29.14,17.49-40.8-31.09,33-31.09,33S561.48,239,577,237Z"/><polygon class="h" points="292.4 171.93 290.46 247.7 320.57 239.1 296.29 239.93 292.4 171.93"/><path class="i" d="M80.41,595.93c6.07,22.45,26.87,36.36,26.87,36.36s11-22.5,4.89-44.95S85.29,551,85.29,551,74.34,573.48,80.41,595.93Z"/><path class="d" d="M89.33,591.11C106,607.33,108,632.27,108,632.27s-25-1.36-41.65-17.59-18.7-41.16-18.7-41.16S72.67,574.89,89.33,591.11Z"/><rect class="j" x="626" y="379.2" width="30" height="30"/><rect class="j" x="506" y="39.2" width="30" height="30"/><circle class="j" cx="159" cy="328.2" r="15"/></svg>