<svg xmlns="http://www.w3.org/2000/svg" viewBox="0 0 408.14 340.78"><defs><style>.a{fill:#f9a826;}.b{fill:#2f2e41;}.c{fill:#9f616a;}.d{fill:#3f3d56;}.e{fill:#ccc;}.f{fill:#ededed;}.g{fill:#e6e6e6;}.h{opacity:0.1;isolation:isolate;}.i{fill:#8985a8;}.j{fill:#f2f2f2;}</style></defs><path class="a" d="M331.52,321.92H83.77l.12-26.27c.28-66.47,53.33-121.23,119.79-122.36l2.15,0h0a125.28,125.28,0,0,1,43.81,7.87c47,17.51,78.58,62,80.68,112.14Z"/><rect class="b" y="321.92" width="408.14" height="1.02"/><polygon class="b" points="203.45 204.43 214.37 212.37 225.28 305.66 251.09 305.66 242.16 199.47 206.43 185.58 203.45 204.43"/><path class="b" d="M157.8,174.66s-3,33.74,8.93,34.73,57.56-9.92,57.56-9.92l21.84,77.41L278.87,260s-19.84-87.33-31.75-92.3-51.61-14.88-51.61-14.88l-28.78,5Z"/><path class="b" d="M229.25,303.67s-5.95,22.83-2,24.81a73.32,73.32,0,0,1,6.95,4v-4s5,5,5,8.94,26.79,5,26.79,0-1-10.92-6-13.9-10.92-19.85-10.92-19.85Z"/><polygon class="b" points="258.03 262.99 260.02 281.84 266.97 293.75 283.84 274.89 270.94 254.05 258.03 262.99"/><path class="b" d="M273.91,281.84s3.66-12.49,7.29-11.21,17.52,14.19,17.52,14.19l9.93,5.95s19.85,2,13.89,7.94-27.79,13.9-37.71,9.93-11.91-5-11.91-5l-3,2-11.91-3,2-20.84S263,290.77,273.91,281.84Z"/><circle class="c" cx="191.54" cy="27.78" r="22.83"/><path class="c" d="M177.15,41.18s2,20.84-4,20.84,1,25.8,16.87,25.8,21.84-30.76,21.84-30.76S201,53.09,203,40.19,177.15,41.18,177.15,41.18Z"/><path class="d" d="M175.57,60.43,167.23,64l-22.64,9.58a4.58,4.58,0,0,0-2.78,4.74l8.55,76s-8.93,18.85,5,19.84l2,7,15.88-18.85,59.55-2,1-96.26L206.48,53.24S202.77,73.73,175.57,60.43Z"/><path class="d" d="M147.88,76.41l-3.67-1a3,3,0,0,0-3.74,2.08c0,.12-.06.24-.08.36l-9.73,61a21.22,21.22,0,0,0,2.07,13.24c3,5.69,9.25,10.86,22.09,4.72l8.94-64.51Z"/><path class="d" d="M222.31,62.52l11.91,2L267,110.15l3,7.94,18.86-6s-1,8.93,8.93,7.94c0,0-11.91,32.75-36.72,22.82s-32.75-39.69-32.75-39.69Z"/><polygon class="e" points="236.2 82.37 191.54 64.5 189.56 70.46 210.4 88.32 236.2 82.37"/><path class="b" d="M177.8,29.24c.84-.23,1-1.35,1-2.22.15-4.67,3-9.46,7.43-10.82a12.5,12.5,0,0,1,5.27-.29,19.84,19.84,0,0,1,7.13,2.38,11.09,11.09,0,0,0,3.63,1.64c.87.14,4.65,1.23,5.52,1.39,1.91.34,3.68,2.05,5.51,1.41s2.14-2.88,2.19-4.73c.09-4.23-3.12-10.08-5.94-13.22-2.15-2.39-5.38-3.49-8.53-4.06A57.13,57.13,0,0,0,189.85,0c-5,.09-10.24.48-14.79,2.67s-8.38,6.53-8.6,11.58c-.05,1.05.06,2.11,0,3.15-.21,2.56-1.57,4.87-2.21,7.36a13.47,13.47,0,0,0,1.88,10.76c1.69,2.48,8.45,4.74,8.35,7.75,1.22-1.27-1.66-2.54-.44-3.81a3,3,0,0,0,.9-3.67l-1.3-5.06A4.55,4.55,0,0,1,173.5,28C174.89,24.51,176.39,29.61,177.8,29.24Z"/><polygon class="f" points="189.56 70.46 170.7 143.9 244.14 169.7 286.81 133.97 313.61 53.59 269.94 85.34 189.56 70.46"/><rect class="g" x="228.26" y="51.37" width="0.99" height="73.9" transform="translate(84.99 286.97) rotate(-75.22)"/><rect class="g" x="226.28" y="56.33" width="0.99" height="73.9" transform="translate(78.72 288.75) rotate(-75.22)"/><rect class="g" x="225.28" y="61.3" width="0.99" height="73.9" transform="translate(73.18 291.48) rotate(-75.22)"/><rect class="g" x="224.29" y="66.26" width="0.99" height="73.9" transform="translate(67.64 294.22) rotate(-75.22)"/><rect class="g" x="223.3" y="71.22" width="0.99" height="73.9" transform="translate(62.1 296.96) rotate(-75.22)"/><rect class="g" x="222.31" y="76.18" width="0.99" height="73.9" transform="translate(56.57 299.69) rotate(-75.22)"/><rect class="g" x="221.32" y="81.14" width="0.99" height="73.9" transform="translate(51.03 302.43) rotate(-75.22)"/><rect class="g" x="220.32" y="86.11" width="0.99" height="73.9" transform="matrix(0.26, -0.97, 0.97, 0.26, 45.49, 305.17)"/><rect class="g" x="219.33" y="91.07" width="0.99" height="73.9" transform="translate(39.96 307.9) rotate(-75.22)"/><path class="c" d="M159.3,124.48s22.32-13.33,32.24-4.4-28.78,21.83-28.78,21.83Z"/><path class="d" d="M135,131l28.78-10.91s-5,18.85,5,19.85l-13.9,16.87S127,156.8,135,131Z"/><polygon class="g" points="210.71 130.59 248.9 143.46 239.86 163.16 201.67 150.29 210.71 130.59"/><polygon class="e" points="278.38 88.82 307.16 66.98 299.22 93.78 269.45 115.61 278.38 88.82"/><rect class="g" x="260.81" y="114.12" width="36.12" height="0.99" transform="translate(-12.58 191.84) rotate(-37.18)"/><rect class="g" x="258.83" y="125.04" width="36.12" height="0.99" transform="translate(-19.58 192.86) rotate(-37.18)"/><path class="c" d="M294.75,121.07s24.81-14.89,8.93-20.84-15.87,16.87-15.87,16.87S286.81,122.06,294.75,121.07Z"/><polygon class="h" points="149.37 87.83 148.37 126.53 163.75 122.14 151.35 122.56 149.37 87.83"/><path class="i" d="M41.07,304.41C44.18,315.88,54.8,323,54.8,323s5.6-11.49,2.5-23-13.73-18.57-13.73-18.57S38,293,41.07,304.41Z"/><path class="d" d="M45.63,302c8.52,8.29,9.56,21,9.56,21s-12.77-.69-21.28-9-9.55-21-9.55-21S37.12,293.66,45.63,302Z"/><rect class="j" x="319.77" y="193.7" width="15.32" height="15.32"/><rect class="j" x="258.47" y="20.02" width="15.32" height="15.32"/><circle class="j" cx="81.22" cy="167.65" r="7.66"/></svg>