<svg xmlns="http://www.w3.org/2000/svg" xmlns:xlink="http://www.w3.org/1999/xlink" viewBox="0 0 668.22 198.39"><defs><style>.a{fill:url(#a);}.b{font-size:35.8px;letter-spacing:-0.03em;}.b,.c{fill:#393b3d;font-family:Poppins-ExtraLight, Poppins;font-weight:200;}.c{font-size:49.92px;letter-spacing:-0.02em;}.d{font-family:Poppins-Light, Poppins;font-weight:300;}.d,.e{letter-spacing:-0.03em;}.e{font-family:Poppins-SemiBold, Poppins;font-weight:600;}.f{opacity:0.3;}.g,.h{fill:none;}.g{stroke:#3e3e3f;stroke-linecap:round;stroke-linejoin:round;}</style><linearGradient id="a" x1="423.28" y1="88.3" x2="610.29" y2="88.3" gradientUnits="userSpaceOnUse"><stop offset="0.07" stop-color="#fedc3f"/><stop offset="1" stop-color="#fdf06d"/></linearGradient></defs><ellipse class="a" cx="516.78" cy="88.3" rx="93.51" ry="88.3"/><text class="b" transform="translate(252.03 70.58)">get more about </text><text class="c" transform="translate(0 120.29)">your<tspan class="d" x="101.94" y="0"> </tspan><tspan class="e" x="115.66" y="0">favorite subjects.</tspan></text><g class="f"><path class="g" d="M533,16.89C536.76,8.67,548.08,5,556,9.47c3.48,1.95,6.11,5.09,9.17,7.66,6.34,5.32,15.7,8.1,23,4.23,4.24-2.24,7.16-6.3,10.65-9.6,7-6.63,17.41-10.22,26.68-7.45,8.55,2.56,14.72,9.77,21.61,15.43,5,4.09,11.43,7.51,17.61,7.54"/><path class="g" d="M533,37.25c3.81-8.23,15.13-11.88,23-7.43,3.48,2,6.11,5.09,9.17,7.66,6.34,5.32,15.7,8.1,23,4.23,4.24-2.24,7.16-6.3,10.65-9.6,7-6.63,17.41-10.22,26.68-7.45,8.55,2.56,14.72,9.77,21.61,15.43,5,4.09,11.43,7.51,17.61,7.54"/><path class="g" d="M533,57.59c3.81-8.21,15.13-11.87,23-7.42,3.48,2,6.11,5.09,9.17,7.66,6.34,5.32,15.7,8.11,23,4.23,4.24-2.24,7.16-6.3,10.65-9.59,7-6.64,17.41-10.23,26.68-7.46,8.55,2.56,14.72,9.77,21.61,15.43,5,4.09,11.43,7.51,17.61,7.54"/><path class="g" d="M533,78c3.81-8.22,15.13-11.88,23-7.43,3.48,2,6.11,5.09,9.17,7.66,6.34,5.32,15.7,8.11,23,4.24,4.24-2.25,7.16-6.31,10.65-9.6,7-6.64,17.41-10.23,26.68-7.46,8.55,2.56,14.72,9.77,21.61,15.44,5,4.08,11.43,7.5,17.61,7.53"/></g><g class="f"><path class="g" d="M667.72,116.84a23,23,0,0,1-3-.73,35.7,35.7,0,0,1-11.58-6.54c-6.9-5.66-13.06-12.87-21.61-15.43-9.27-2.77-19.65.82-26.69,7.45-3.49,3.3-6.4,7.36-10.64,9.6-7.33,3.87-16.68,1.09-23-4.23-3.06-2.57-5.7-5.71-9.18-7.67-7.89-4.44-19.22-.79-23,7.43"/><path class="g" d="M667.72,137.19a23,23,0,0,1-3-.73,35.7,35.7,0,0,1-11.58-6.54c-6.9-5.66-13.06-12.87-21.61-15.43-9.27-2.77-19.65.82-26.69,7.45-3.49,3.3-6.4,7.36-10.64,9.6-7.33,3.87-16.68,1.09-23-4.23-3.06-2.57-5.7-5.71-9.18-7.67-7.89-4.44-19.22-.79-23,7.43"/><path class="g" d="M667.72,157.54a23,23,0,0,1-3-.73,35.7,35.7,0,0,1-11.58-6.54c-6.9-5.66-13.06-12.87-21.61-15.43-9.27-2.77-19.65.82-26.69,7.45-3.49,3.3-6.4,7.36-10.64,9.6-7.33,3.87-16.68,1.09-23-4.23-3.06-2.57-5.7-5.7-9.18-7.66-7.89-4.45-19.22-.8-23,7.42"/><path class="g" d="M667.72,177.89a23,23,0,0,1-3-.73,35.7,35.7,0,0,1-11.58-6.54c-6.9-5.66-13.06-12.87-21.61-15.43-9.27-2.77-19.65.82-26.69,7.46-3.49,3.29-6.4,7.35-10.64,9.59-7.33,3.87-16.68,1.09-23-4.23-3.06-2.57-5.7-5.7-9.18-7.66-7.89-4.45-19.22-.79-23,7.42"/></g><path class="h" d="M667.72,95.2V198.39h-3V95.16Z"/></svg>