<svg xmlns="http://www.w3.org/2000/svg" xmlns:xlink="http://www.w3.org/1999/xlink" viewBox="0 0 1193.64 382.96"><defs><style>.a{isolation:isolate;}.b,.c{opacity:0.2;mix-blend-mode:multiply;}.b{fill:url(#a);}.c{fill:url(#b);}</style><linearGradient id="a" x1="302.18" y1="191.49" x2="1235.31" y2="191.49" gradientUnits="userSpaceOnUse"><stop offset="0" stop-color="#e8c3dc"/><stop offset="1" stop-color="#5868b0"/></linearGradient><linearGradient id="b" x1="250.21" y1="564.04" x2="888.84" y2="-266.18" gradientUnits="userSpaceOnUse"><stop offset="0" stop-color="#a36d0b"/><stop offset="1" stop-color="#e2771d"/></linearGradient></defs><g class="a"><path class="b" d="M1193.64,0v382.5c-50.4,1.88-109.26-2-173.9-14.28C775.87,322,715.05,232.11,595.22,153.27,520.9,104.41,398.07,63.9,318.65,15.43,310.26,10.31,302.16,5.2,294.43,0Z"/><path class="c" d="M1193.62,0V226.91c-100.79,32-221.45,2-311.21-45.25C804.49,140.55,742.85,59.53,650.31,50.73c-58.49-5.56-117.13,10.83-172.17,28.94-74.69,24.58-144.06,45.92-223.47,39.53-68.85-5.48-127.94-44-185.75-79.89C47.24,25.78,24.07,11.65,0,0Z"/></g></svg>