<svg xmlns="http://www.w3.org/2000/svg" viewBox="0 0 766.23 287.68"><defs><style>.a{opacity:0.6;}.b{fill:#4b4b4d;}.c{fill:#393839;}.d{fill:#444344;}.e{fill:#895322;}.f{fill:#fae0b2;}.g{fill:#a26809;}.h{fill:#f7cc7f;}.i{fill:#b75742;}.j{fill:#be7a12;}.k{fill:#184655;}.l{fill:#e6e6e6;}.m{fill:#f9bf26;}.n{opacity:0.2;isolation:isolate;}.o{fill:#facb21;}.p{fill:#2f2e41;}.q{fill:#a0616a;}.r{fill:#575a89;}.s{fill:#3f3d56;}.t{fill:#fff;}.u{fill:#b3b3b3;}.v{fill:#d0cde1;}</style></defs><g class="a"><path class="b" d="M119.77,206.23s-23.61-80-25.51-97.69,11.31-12.18,11.31-12.18-11.1-33.64-3.07-41.63,15.27,6.9,15.27,6.9,2.44-40.84,11-40.85c15.95,0,15.63,44.53,15.63,44.53S148.48,47.87,157,52.65c12.88,7.21-5.59,42.18-5.59,42.18s16.41,0,22.17,8.29C184,118,119.77,206.23,119.77,206.23Z"/></g><g class="a"><path class="b" d="M127.49,195.63s-68.07-11.38-82.88-23.44-.15-17.5-.15-17.5-34.2-17.53-33.8-29.45,17.39-5.86,17.39-5.86-28.82-32.86-22-39.1c12.71-11.62,46,22.54,46,22.54S42.18,86.57,52.6,84c15.7-3.87,27.3,36.18,27.3,36.18s-3-15.82,7.88-13.71C107.22,110.25,127.49,195.63,127.49,195.63Z"/><path class="c" d="M87.78,106.47c-10.85-2-7.88,13.71-7.88,13.71S68.3,80.13,52.6,84c-10.42,2.57-.53,18.82-.53,18.82s-33.31-34.16-46-22.54L127.26,195.65C125.1,184.63,106,109.76,87.78,106.47Z"/></g><g class="a"><path class="c" d="M146.86,205S111,168.57,93,164.77s-14.81,9-14.81,9S42.33,142.5,34,150.08s.68,14.92.68,14.92S4.88,159.71.6,169.5C-6,184.55,43.11,192.74,43.11,192.74s-20.56,1.42-15.79,10.85C34.51,217.82,146.86,205,146.86,205Z"/><path class="d" d="M.6,169.5c4.28-9.79,34.11-4.5,34.11-4.5s-9-7.33-.68-14.92,43,19.48,43,19.48-8.19-15.64,9.87-11.85,60,47.31,60,47.31Z"/></g><path class="e" d="M320.8,207.12H122.35a14,14,0,0,1-13.73-14.23v-8.47a14,14,0,0,1,13.73-14.23H320.8a28.11,28.11,0,0,0-.36,36.5Z"/><path class="f" d="M317.74,174.42H207.66a14,14,0,0,0-13.72,14.23h0a14,14,0,0,0,13.72,14.24H317.75A28.21,28.21,0,0,1,317.74,174.42Z"/><path class="g" d="M251.08,144.53a.82.82,0,0,0-.82-1.16h-105c-8.23,0-14.9,6-14.9,13.41h0c0,7.41,6.67,13.41,14.9,13.41h105a.83.83,0,0,0,.82-1.17h0A25.7,25.7,0,0,1,251.08,144.53Z"/><path class="h" d="M250.42,145.86h-52c-9.66,0-17.49,5-17.49,11.24s7.83,11.24,17.49,11.24h52.38A25.65,25.65,0,0,1,250.42,145.86Z"/><path class="i" d="M237,151.19H230.2c-1.46,0-2.64.49-2.64,1.09v.1H237Z"/><path class="b" d="M242.76,153.93c0-1.51-1.77-2.74-3.95-2.74h-8.7c1.65,0,3,.93,3,2.08l0,29.39,4.8-3.78,4.9,3.78Z"/><path class="f" d="M231.77,142.4H170.68c-5.42,0-9.82-5.21-9.82-11.64h0c0-6.43,4.4-11.65,9.82-11.65h61.09a20.5,20.5,0,0,0-.43,22.63Z"/><path class="j" d="M160.87,130.76h0c0-6.43,4.5-11.65,10-11.65h62a.57.57,0,0,0,.52-.61h0a.57.57,0,0,0-.52-.6h-98.4c-6.12,0-11.08,5.76-11.08,12.86h0c0,7.09,5,12.85,11.08,12.85h98.4a.57.57,0,0,0,.52-.6h0a.57.57,0,0,0-.52-.61h-62C165.37,142.4,160.87,137.19,160.87,130.76Z"/><path class="k" d="M221.11,124.83h-6.78c-1.46,0-2.64.48-2.64,1.08V126h9.42Z"/><path class="b" d="M226.89,127.52c0-1.48-1.77-2.69-4-2.69h-8.69c1.65,0,3,.92,3,2l0,28.82L222,152l4.9,3.7Z"/><path class="e" d="M268.36,92.93H112a8.8,8.8,0,0,0-8.79,8.79v7.4a8.8,8.8,0,0,0,8.79,8.79H268.36l-.08-.09A17.9,17.9,0,0,1,268.36,92.93Z"/><path class="f" d="M265.59,96.63H182a8.79,8.79,0,0,0-8.79,8.79h0a8.78,8.78,0,0,0,8.79,8.79h83.57A17.93,17.93,0,0,1,265.59,96.63Z"/><path class="l" d="M415.23,237.82c193.85,0,351,11.16,351,24.93s-157.15,24.93-351,24.93-351-11.16-351-24.93S221.38,237.82,415.23,237.82Z"/><path class="m" d="M689.45,276.71c-57.24-10.19-119.82-8.5-185.47,0,29.92-25.26,55.74-50.52,25.82-75.78,58.37,12,66.54,10.82,131.47,0C646.21,226.19,674.39,251.45,689.45,276.71Z"/><path class="n" d="M689.45,276.71c-57.24-10.19-119.82-8.5-185.47,0,29.92-25.26,55.74-50.52,25.82-75.78,58.37,12,66.54,10.82,131.47,0C646.21,226.19,674.39,251.45,689.45,276.71Z"/><path class="o" d="M675.49,265.93c-48.62-8.13-101.79-6.78-157.55,0,25.42-20.16,47.35-40.33,21.93-60.49,49.59,9.61,56.53,8.64,111.68,0C638.76,225.6,662.69,245.77,675.49,265.93Z"/><path class="p" d="M657,181.63a25.91,25.91,0,1,1-25.91,25.91A25.91,25.91,0,0,1,657,181.63Z"/><polygon class="q" points="539.38 177.49 557.32 180.48 566.3 206.41 540.37 222.37 510.46 177.49 538.38 177.49 539.38 177.49"/><circle class="q" cx="590.23" cy="175.5" r="41.88" transform="translate(-20.53 97.13) rotate(-9.25)"/><path class="p" d="M358.89,22.93s-101.71,11-119.66,9-25.92-4-25.92-4-12,15.95-6,22.94a43.15,43.15,0,0,0,12,10s11-3,19,0,88.74,16,102.7,4S358.89,22.93,358.89,22.93Z"/><path class="p" d="M365.87,245.3s-66.81-19-78.77-102.71v-8s-13.22,23.2-18,27.93c-5.48,5.48-24.93,54.84-23.93,59.82s0,7,0,7l-28.92-3v-9S231.76,171,232.75,160s38.39-87.25,38.39-87.25,14-28.92,37.89,0S335,121.65,335,121.65l30.91,59.83Z"/><path class="p" d="M216.3,24.93,184.39,14S154.48-8,161.46,14s38.89,69.8,47.86,64.81,19.77-17.36,17.36-19.15S208.32,44.87,216.3,24.93Z"/><path class="p" d="M220.16,211.49,194.4,224.07s-31.15,4.79-13.78,13.78,65.3,18.57,67.69,10.18,1.45-22.3-1.07-21.93S227.35,228.26,220.16,211.49Z"/><path class="r" d="M352.91,179.49s-13,55.84,9,67.8,175.5,14,187.47-8,6-21.93,6-21.93l-31.91-35.9,25.93-2s0-8-9-9-36.89-11-60.82-4-37.89-14-37.89-14Z"/><polygon class="s" points="335.96 4.99 319.01 97.72 435.67 83.76 456.61 0 335.96 4.99"/><polygon class="t" points="339.45 8.48 325.49 91.24 431.68 78.78 452.13 3.49 339.45 8.48"/><polygon class="u" points="323 98.72 319.01 97.72 317.01 101.71 348.92 190.46 351.92 189.31 352.91 183.48 323 98.72"/><polygon class="v" points="319.01 96.72 350.92 189.46 471.57 171.51 435.67 83.76 319.01 96.72"/><polygon class="s" points="334.96 93.73 334.96 98.72 423.71 88.75 422.71 83.76 334.96 93.73"/><polygon class="s" points="336.95 103.7 350.92 142.59 441.65 131.62 425.7 94.73 336.95 103.7"/><path class="q" d="M450.63,158.55l-3-8s-22.94-39.89-34.9-31.91,24.93,46.87,24.93,46.87h12Z"/><path class="q" d="M374.85,164.53l-3-12s-8-36.89,6-34.9,18,36.9,18,36.9l-1,8Z"/><path class="r" d="M398.78,159.54s-25.93-4-26.92,2-6,95.72,18.94,98.72,148.58,15.95,135.61-15-32.9-26.92-32.9-26.92l-84.76,9Z"/><polygon class="r" points="477.05 171.01 450.63 152.56 433.18 166.03 455.12 189.96 477.05 171.01"/><polygon class="n" points="406.26 188.96 410.25 226.85 479.05 222.86 419.22 221.87 406.26 188.96"/><circle class="p" cx="610.9" cy="183.11" r="49.86" transform="translate(390.98 781.74) rotate(-86.51)"/><polygon class="m" points="354.4 37.39 416.23 35.24 422.21 12.46 358.39 14.39 354.4 37.39"/><polygon class="l" points="338.45 50.36 432.18 47.37 433.18 43.38 339.45 46.68 338.45 50.36"/><polygon class="l" points="336.46 60.33 430.19 57.34 431.19 53.35 337.45 56.65 336.46 60.33"/><polygon class="l" points="335.46 68.31 429.19 65.31 430.19 61.33 336.46 64.62 335.46 68.31"/></svg>