<svg xmlns="http://www.w3.org/2000/svg" xmlns:xlink="http://www.w3.org/1999/xlink" viewBox="0 0 1920 319.92"><defs><style>.a{fill:none;}.b{isolation:isolate;}.c{fill:#757779;}.d{fill:#58595b;}.e{clip-path:url(#a);}.f{fill:#d2001b;}.ag,.f,.t{mix-blend-mode:screen;}.g,.l{fill:#c8c6c3;}.h{fill:#f0eae5;}.i{fill:#525f6c;}.j{fill:#afced9;}.k{fill:#21262b;}.ad,.l,.q,.u,.w,.x{mix-blend-mode:multiply;}.m{fill:#fff;}.n{fill:#ffcb05;}.o{fill:#fbad18;}.p{fill:#895322;}.q{fill:#c1021d;}.r{fill:#aaa8a9;}.s{fill:#c7cdca;}.t{fill:#588f8f;}.u{fill:#5c5d5c;}.ad,.u{opacity:0.5;}.v{fill:#f6f4e7;}.w,.y{fill:#e8c563;}.z{fill:#2467c1;}.aa{fill:#713d00;}.ab{fill:#ea9b00;}.ac{fill:#fdd900;}.ae{fill:#cd8400;}.af{opacity:0.6;}.ag{fill:#74b394;}.ah{fill:#6b5222;}.ai{fill:#598e3f;}.aj{fill:#467437;}.ak{fill:#91c65b;}.al{fill:#88b84e;}.am{fill:#4e813c;}.an{fill:#416f35;}.ao{fill:#b3c935;}.ap{fill:#aab739;}.aq{fill:#82b04b;}.ar{fill:url(#b);}.as{fill:#77787b;}.at{opacity:0.1;}.au{fill:#b67d2b;}.av{opacity:0.2;}.aw{fill:#404041;}.ax{fill:#c86c37;}.ax,.ay,.az,.bh,.bi,.bl,.bm,.bn,.bo,.ce,.ck,.cm,.cw,.cx,.cy,.cz{fill-rule:evenodd;}.ay{fill:#5a5a5d;}.az{fill:#fdcf9c;}.ba{clip-path:url(#c);}.bb{fill:url(#d);}.bc{clip-path:url(#e);}.bd{fill:url(#f);}.be{clip-path:url(#g);}.bf{fill:url(#h);}.bg{clip-path:url(#i);}.bh{fill:#f1f1f1;}.bi{fill:#f1cabb;}.bj{clip-path:url(#j);}.bk{fill:url(#k);}.bl{fill:#4f5055;}.bm{fill:#424242;}.bn{fill:#806c52;}.bo{fill:#c3652a;}.bp{clip-path:url(#l);}.bq{fill:url(#m);}.br{clip-path:url(#n);}.bs{fill:url(#o);}.bt{clip-path:url(#p);}.bu{fill:url(#q);}.bv{clip-path:url(#r);}.bw{fill:url(#s);}.bx{clip-path:url(#t);}.by{fill:url(#u);}.bz{clip-path:url(#v);}.ca{clip-path:url(#w);}.cb{clip-path:url(#x);}.cc{fill:url(#y);}.cd{clip-path:url(#z);}.ce{fill:#e7e5e5;}.cf{clip-path:url(#aa);}.cg{fill:url(#ab);}.ch{clip-path:url(#ac);}.ci{clip-path:url(#ad);}.cj{clip-path:url(#ae);}.ck{fill:#474752;}.cl{clip-path:url(#af);}.cm{fill:#d1d2d2;}.cn{clip-path:url(#ag);}.co{fill:#ffca07;}.cp{fill:#496e6f;}.cq{fill:#3e8277;}.cr{clip-path:url(#ah);}.cs{fill:url(#ai);}.ct{clip-path:url(#aj);}.cu{clip-path:url(#ak);}.cv{fill:url(#al);}.cw{fill:#7e664a;}.cx{fill:#4b4b4e;}.cy{fill:#3d3e3f;}.cz{fill:#d0d1d2;}.da{clip-path:url(#am);}.db{fill:url(#an);}.dc{clip-path:url(#ao);}.dd{fill:url(#ap);}.de{clip-path:url(#aq);}.df{clip-path:url(#ar);}.dg{fill:url(#as);}.dh{clip-path:url(#at);}.di{fill:url(#au);}.dj{clip-path:url(#av);}.dk{clip-path:url(#aw);}.dl{clip-path:url(#ax);}.dm{fill:url(#ay);}.dn{clip-path:url(#az);}.do{clip-path:url(#ba);}.dp{fill:url(#bb);}.dq{clip-path:url(#bc);}</style><clipPath id="a"><path class="a" d="M1471.83,212.73s75-18.81,170.57-7.25l20.82-104.67-23-22.72-54.86-3.77,4.72-6.28L1561,44.38l-47.57,19.83,4,12.94-58.77,8.31-17.25,28.87Z"/></clipPath><linearGradient id="b" y1="235.56" x2="71.83" y2="235.56" gradientUnits="userSpaceOnUse"><stop offset="0" stop-color="#ffc70f"/><stop offset="1" stop-color="#fdf06d"/></linearGradient><clipPath id="c"><path class="a" d="M807.48,230.94c-.53.24-3.93,5.49-3.56,6.05.06.1,10.74,6,11.91,6.87,1.69,1.22,3.62,2,4.94,1.14s7.71-8.18,8.13-8.34a22.94,22.94,0,0,1,5.45.35c2.77.38,6.2.08,7.52,1.69s9,8,9.63,8.06,5.33-5.25,4.85-5.54-9.84-7-11.88-7.7-9.74-2.66-10.05-2.77-9.95-1.62-9.95-1.62a14.08,14.08,0,0,0-1.76,3.1c-.3,1-4,6.8-4.32,6.75s-8.33-6-9-6.7-1.35-1.49-1.87-1.36l-.08,0"/></clipPath><linearGradient id="d" x1="-1938.8" y1="-602" x2="-1937.39" y2="-602" gradientTransform="matrix(-35.1, 0, 0, 35.1, -67184.64, 21367.33)" gradientUnits="userSpaceOnUse"><stop offset="0" stop-color="#8e9194"/><stop offset="0" stop-color="#8d9093"/><stop offset="0.1" stop-color="#77797c"/><stop offset="0.21" stop-color="#67696c"/><stop offset="0.33" stop-color="#5e5f62"/><stop offset="0.49" stop-color="#5b5c5f"/><stop offset="0.71" stop-color="#58595c"/><stop offset="0.88" stop-color="#505052"/><stop offset="1" stop-color="#454446"/></linearGradient><clipPath id="e"><path class="a" d="M824.11,229.62a10.36,10.36,0,0,0,.43,2.5,28.6,28.6,0,0,0,3,3.08,4.42,4.42,0,0,1,1.38,1.46,22.94,22.94,0,0,1,5.45.35c2.77.38,6.2.08,7.52,1.69s9,8,9.63,8.06,5.33-5.25,4.85-5.54-9.84-7-11.88-7.7-9.74-2.66-10.05-2.77-9.95-1.62-9.95-1.62a4.49,4.49,0,0,0-.36.49"/></clipPath><linearGradient id="f" x1="-1938.78" y1="-601.88" x2="-1937.37" y2="-601.88" gradientTransform="matrix(-35.09, 0, 0, 35.09, -67174.28, 21357.71)" xlink:href="#d"/><clipPath id="g"><path class="a" d="M831.52,210.37a3,3,0,0,0-1.2,2.51c.61.81,5.59,9.11,7.85,9.29s10.86.93,11.31.9.55.76,2.82.6,3.55-.91,3.49-1.39a5.7,5.7,0,0,0-.2-.86s.25-.12.16-.61a.91.91,0,0,0-.38-.64.52.52,0,0,0,.12-.55,1.14,1.14,0,0,0-.56-.52c.23-.68-.08-1.06-.73-.89s-1.15.63-1.22.41c-.64-2.23-3.78,1.4-3.85,1.46a52.5,52.5,0,0,1-9.14-1.42c-.43-.34-3.69-5.37-5.21-7.2-1.08-1.31-1.63-1.69-2.32-1.53a3.81,3.81,0,0,0-.94.44"/></clipPath><linearGradient id="h" x1="-1946.24" y1="-885.15" x2="-1944.83" y2="-885.15" gradientTransform="matrix(12.69, 0, 0, -12.69, 25525.28, -11012.85)" gradientUnits="userSpaceOnUse"><stop offset="0" stop-color="#f7d2b7"/><stop offset="0.52" stop-color="#e1c2b1"/><stop offset="1" stop-color="#d2a587"/></linearGradient><clipPath id="i"><rect class="a" x="835.2" y="215.9" width="17.43" height="9.79" transform="translate(-28.23 203.58) rotate(-13.53)"/></clipPath><clipPath id="j"><path class="a" d="M830.61,215.12c.61,1,4.78,5.46,4.78,5.46s4.59-2.57,4.44-2.75c-2.28-2.88-4.34-7.68-6.85-7.91a2,2,0,0,0-.55,0c-1.71.42-2.9,3.39-1.82,5.16"/></clipPath><linearGradient id="k" x1="-1594.49" y1="-959.22" x2="-1593.08" y2="-959.22" gradientTransform="matrix(6.01, 0, 0, -6.01, 10406.98, -5546.26)" gradientUnits="userSpaceOnUse"><stop offset="0" stop-color="#946852"/><stop offset="1" stop-color="#3a1e14"/></linearGradient><clipPath id="l"><path class="a" d="M829.79,208.89c3.69,1.58,2.57,4.49,4.23,4.12,1.1-.24-.83-3.34-.83-3.35,0-.29.49-2.57.49-2.57l-2.61-.68c-.05.27-1.28,2.48-1.28,2.48"/></clipPath><radialGradient id="m" cx="-952.97" cy="-1494.13" r="1.41" gradientTransform="matrix(2.07, 0, 0, -2.07, 2809.46, -2885.47)" xlink:href="#h"/><clipPath id="n"><path class="a" d="M837.13,201.79c-.52.29,0,2.56,1.41,3.88s4.3-.54,4.82-.89-1.71-.26-3-1a8.64,8.64,0,0,1-2.32-2.59,10.71,10.71,0,0,1-1,.61"/></clipPath><linearGradient id="o" x1="-1443.83" y1="-1083.69" x2="-1442.42" y2="-1083.69" gradientTransform="matrix(4.16, 0, 0, -4.16, 6842.35, -4302.7)" xlink:href="#k"/><clipPath id="p"><path class="a" d="M837.36,200.71c-.52.15-.19,1.47-.09,1.74.33,1,5.91.65,6.67.23.47-.26.06-1.71,0-1.89,0,0-6-.23-6.6-.09h0"/></clipPath><linearGradient id="q" x1="-1518.22" y1="-1021.83" x2="-1516.81" y2="-1021.83" gradientTransform="matrix(4.91, 0, 0, -4.91, 8284.34, -4813.19)" gradientUnits="userSpaceOnUse"><stop offset="0" stop-color="#f6d5ca"/><stop offset="0.5" stop-color="#f2dad2"/><stop offset="1" stop-color="#f7e9e4"/></linearGradient><clipPath id="r"><path class="a" d="M836,204.34c-.17.24-.17,1.18.36,1.27s3.73.13,5.5.16a1.11,1.11,0,0,0,1.14-1.16c0-.37-.09-.69-.32-.69-.79,0-4.47-.27-6,.11a1.15,1.15,0,0,0-.65.31"/></clipPath><linearGradient id="s" x1="-1525.52" y1="-1015.69" x2="-1524.11" y2="-1015.69" gradientTransform="matrix(4.99, 0, 0, -4.99, 8454.05, -4868.54)" xlink:href="#q"/><clipPath id="t"><path class="a" d="M824.59,198.09c-1.55,9.28,14.64,13.35,19.15,6.65a.22.22,0,0,0-.2-.34c-2.59.29-5.17,1.18-5.76-2a.63.63,0,0,1,.82-.7,9,9,0,0,0,5.72,0,.79.79,0,0,0,.57-.76,3.29,3.29,0,0,0-.18-1.3,15.31,15.31,0,0,0,.69-1.9c.05-.43-.24-.65-1.08-.71a1.7,1.7,0,0,1-1.48-.84,15.42,15.42,0,0,1-.22-2.2,12.66,12.66,0,0,0-1.54-3,7.28,7.28,0,0,1-1.71-1.29,20,20,0,0,0-7.75,0c-3.54.85-6.16,3.28-7,8.42"/></clipPath><linearGradient id="u" x1="-2073.19" y1="-689.8" x2="-2071.78" y2="-689.8" gradientTransform="matrix(0, -18.64, -18.64, 0, -12025.56, -38445.78)" gradientUnits="userSpaceOnUse"><stop offset="0" stop-color="#eac5b6"/><stop offset="0.01" stop-color="#eac5b6"/><stop offset="0.58" stop-color="#e09978"/><stop offset="0.84" stop-color="#b46f5d"/><stop offset="1" stop-color="#b46f5d"/></linearGradient><clipPath id="v"><rect class="a" x="826.39" y="201.1" width="16.36" height="7.61" transform="translate(-24.78 200.99) rotate(-13.53)"/></clipPath><clipPath id="w"><rect class="a" x="842.95" y="197.67" width="2.69" height="1.99" transform="translate(-23.05 203.09) rotate(-13.53)"/></clipPath><clipPath id="x"><path class="a" d="M841.25,183.13c-.66,2.26-3.64,2.41-7.12,2.69s-7.27.65-10,3.21c-1.94,1.84-1.49,3.62-1.48,3.63h0a7.42,7.42,0,0,0,1.26,9.9c.36.34,3.76,2.33,2.2,3a.77.77,0,0,1-.65.05.83.83,0,0,0,.85.45,3.29,3.29,0,0,0,.82-.11c.09,0,.13,0,.1,0s-1.11.46-1,.48c3.32.58,4.08-1.31,3.74-3.3a2.13,2.13,0,0,0-1.22-.56,2,2,0,0,1-1.68-2.12c0-2.61,3.45-2.29,4.4-1.16.38.45-.28,2.11,1.77,3.18a6.24,6.24,0,0,0,.57.28s-1.66-3.12-.79-3.86c2.28-1.95.54-5.83.65-6.08A2.26,2.26,0,0,1,836,191c3.56,0,6.68.75,7.45-3.77a5.24,5.24,0,0,0-.77-3.55,9.37,9.37,0,0,1-.54.91c-.07,0,.09-.62,0-1.08L842,183a13.27,13.27,0,0,1-.67,1.19s0-1.06-.07-1.05h0"/></clipPath><linearGradient id="y" x1="-2049.53" y1="-579.44" x2="-2048.12" y2="-579.44" gradientTransform="matrix(-17.3, 0, 0, 17.3, -34609.95, 10220.79)" xlink:href="#k"/><clipPath id="z"><rect class="a" x="830.91" y="185.35" width="14.21" height="16.16" transform="translate(-22 201.34) rotate(-13.52)"/></clipPath><clipPath id="aa"><path class="a" d="M836.91,196.06c0,.31.51-.19,1.72-.6a26.43,26.43,0,0,1,3-.75.39.39,0,0,0,.19-.08c.12-.08.14-.35-.13-.51a2.76,2.76,0,0,0-1.63.06c-1.39.33-3.11,1.14-3.17,1.88"/></clipPath><linearGradient id="ab" x1="-1598.92" y1="-918.35" x2="-1597.51" y2="-918.35" gradientTransform="matrix(6.42, 0, 0, -6.42, 11108.35, -5702.99)" xlink:href="#k"/><clipPath id="ac"><rect class="a" x="825.54" y="205.24" width="3.11" height="0.73" transform="translate(-25.15 199.05) rotate(-13.52)"/></clipPath><clipPath id="ad"><rect class="a" x="826.34" y="203.14" width="4.04" height="3.24" transform="translate(-24.92 199.48) rotate(-13.53)"/></clipPath><clipPath id="ae"><rect class="a" x="823.36" y="186.06" width="20.78" height="13.22" transform="translate(-21.94 200.36) rotate(-13.53)"/></clipPath><clipPath id="af"><rect class="a" x="804.56" y="230.66" width="24.38" height="15.21" transform="translate(-33.08 197.68) rotate(-13.53)"/></clipPath><clipPath id="ag"><rect class="a" x="826.54" y="228.46" width="28.8" height="20.54" transform="translate(-32.51 203.31) rotate(-13.53)"/></clipPath><clipPath id="ah"><path class="a" d="M819.13,207.68c-1.84,1.32-9.32,6.8-9.56,7a.8.8,0,0,1-.4.14,4.68,4.68,0,0,0-2.13,1c-1.61,1.18-1.94,3.12-1.59,3.45a.92.92,0,0,0,.82.18s-.12.24.27.56a.88.88,0,0,0,.7.25,1.1,1.1,0,0,0,.41.62,1,1,0,0,0,.71.06c.26.67.74.67,1.13.13s1-2.38,1.2-2.25a1.84,1.84,0,0,1,.78.92c.38,1.26,1.64,1.89,1.71,1.21a11.47,11.47,0,0,0-.82-2.3,10.94,10.94,0,0,1-.66-2.58,54.35,54.35,0,0,1,8-5c.55,0,6.57,2.21,8.91,2.63s1.85-.06,2.33-1.46a3,3,0,0,0-.69-2.69c-.91-.21-8-2.73-10.55-2.11a1.66,1.66,0,0,0-.57.24"/></clipPath><linearGradient id="ai" x1="-1800.58" y1="-633.77" x2="-1799.17" y2="-633.77" gradientTransform="matrix(0, 19.04, 19.04, 0, 12883.3, 34478.18)" xlink:href="#h"/><clipPath id="aj"><rect class="a" x="804.92" y="211.52" width="22.72" height="8.79" transform="translate(-27.86 196.89) rotate(-13.53)"/></clipPath><clipPath id="ak"><path class="a" d="M820.64,212.42c0,.52,8,3.71,9.85,1.85,1.4-1.43,1.24-4.53-.9-5.35-1.09-.41-7.14-1.6-7.14-1.6s-1.81,4.86-1.81,5.1"/></clipPath><linearGradient id="al" x1="-1963.34" y1="-330.99" x2="-1961.93" y2="-330.99" gradientTransform="matrix(-7.6, 0, 0, 7.6, -14086.43, 2727.55)" xlink:href="#k"/><clipPath id="am"><path class="a" d="M828.09,199.67a1.79,1.79,0,0,0,.55,2c.61.53,1.25.9,1.82.61s.82-.9.52-1.2-.79-.12-.91-.55.19-.33.33-.7a.9.9,0,0,0-.15-.66c-.19-.35-.6-.32-1-.31a2.22,2.22,0,0,0-.38,0,1.09,1.09,0,0,0-.75.73"/></clipPath><radialGradient id="an" cx="-1027.34" cy="-1430.78" r="1.41" gradientTransform="matrix(2.24, 0, 0, -2.24, 3137.79, -3008.08)" gradientUnits="userSpaceOnUse"><stop offset="0" stop-color="#f7d2b7"/><stop offset="0.52" stop-color="#e1c2b1"/><stop offset="1" stop-color="#b38f76"/></radialGradient><clipPath id="ao"><path class="a" d="M853.83,218.13a15.05,15.05,0,0,0-1.49.72c-.11.07-.19.11-.21.15a.57.57,0,0,0,.2.82,4.69,4.69,0,0,0,2.4-.57c.47-.26.46-.5.24-1s-.35-.37-.7-.29l-.44.13"/></clipPath><linearGradient id="ap" x1="-1946.18" y1="-885.32" x2="-1944.77" y2="-885.32" gradientTransform="matrix(12.69, 0, 0, -12.69, 25535.53, -11004.62)" xlink:href="#h"/><clipPath id="aq"><rect class="a" x="852.04" y="218.81" width="3.16" height="0.87" transform="translate(-27.61 206.34) rotate(-13.57)"/></clipPath><clipPath id="ar"><path class="a" d="M852.74,221.07a.58.58,0,0,0,.13.84,4.79,4.79,0,0,0,2.44-.37c.49-.23.5-.47.32-.94s-.46-.41-1.13-.26h0a11.93,11.93,0,0,0-1.76.73"/></clipPath><linearGradient id="as" x1="-1946.24" y1="-885.41" x2="-1944.83" y2="-885.41" gradientTransform="matrix(12.69, 0, 0, -12.69, 25542.72, -11017.91)" xlink:href="#h"/><clipPath id="at"><path class="a" d="M853,222.34a.59.59,0,0,0,.14.84,4.75,4.75,0,0,0,2.43-.37c.5-.23.5-.47.32-.94s-.45-.41-1.12-.26h0a12.5,12.5,0,0,0-1.77.73"/></clipPath><linearGradient id="au" x1="-1946.22" y1="-885.45" x2="-1944.81" y2="-885.45" gradientTransform="matrix(12.69, 0.01, 0.01, -12.69, 25542.12, -10993.65)" xlink:href="#h"/><clipPath id="av"><rect class="a" x="852.89" y="222.39" width="3.17" height="0.73" transform="translate(-28.4 205.92) rotate(-13.52)"/></clipPath><clipPath id="aw"><rect class="a" x="852.65" y="221.12" width="3.17" height="0.73" transform="translate(-28.1 205.62) rotate(-13.51)"/></clipPath><clipPath id="ax"><path class="a" d="M852.64,220a.59.59,0,0,0,.13.84,4.68,4.68,0,0,0,2.44-.38c.49-.22.5-.46.32-.93s-.46-.41-1.12-.26h0a11.93,11.93,0,0,0-1.76.73"/></clipPath><linearGradient id="ay" x1="-1946.29" y1="-885.43" x2="-1944.88" y2="-885.43" gradientTransform="matrix(12.69, 0, 0, -12.69, 25544.38, -11010.45)" xlink:href="#h"/><clipPath id="az"><rect class="a" x="852.56" y="220.06" width="3.16" height="0.73" transform="translate(-27.86 205.7) rotate(-13.51)"/></clipPath><clipPath id="ba"><path class="a" d="M852.57,219.29l-.58.33a11.39,11.39,0,0,0,.74,1,1.66,1.66,0,0,0,.72.34.68.68,0,0,0,.39-.33,3.31,3.31,0,0,0-.26-1.06c-.11-.22-.36-.65-.36-.65Z"/></clipPath><linearGradient id="bb" x1="-1946.25" y1="-885.47" x2="-1944.84" y2="-885.47" gradientTransform="matrix(12.68, 0.01, 0.01, -12.68, 25540.05, -10988.32)" xlink:href="#h"/><clipPath id="bc"><rect class="a" x="850.43" y="217.95" width="3.2" height="3.39" transform="translate(-27.74 205.56) rotate(-13.54)"/></clipPath></defs><g class="b"><polygon class="c" points="1762.32 85.35 1805.48 50.69 1920 224.25 1632.47 224.25 1762.32 85.35"/><polygon class="d" points="1830.93 224.25 1729.14 13.67 1545.22 224.25 1830.93 224.25"/><g class="e"><polygon class="f" points="1534.02 82.58 1545.2 83.56 1549.07 90.38 1534.02 82.58"/><path class="g" d="M1463.82,106.86l22.36,112.5,65.71-13.11-1.27-109.06C1506.24,95.67,1463.82,106.86,1463.82,106.86Z"/><path class="h" d="M1468,110.14l21.18,108.72,62.71-12.61-5.23-103.2C1500.86,102.42,1468,110.14,1468,110.14Z"/><polygon class="i" points="1478.04 127.72 1475.01 111.49 1496.06 108.53 1498.26 125.08 1478.04 127.72"/><path class="j" d="M1484,121.55c-.41-3.34-1.2-6.67-1.32-10l-6,.86,2.79,15.2,5.28-.69Q1484.31,124.21,1484,121.55Z"/><path class="j" d="M1491.82,125.93l5.57-.73-2.05-15.49-5.45.77C1490.78,115.6,1491.21,120.78,1491.82,125.93Z"/><path class="j" d="M1489.16,110.58l-6.06.86c.65,5.13,1.38,10.25,2.09,15.36l5.94-.77C1490.6,120.86,1490.06,115.7,1489.16,110.58Z"/><polygon class="i" points="1507.48 117.66 1506.44 106.78 1520.49 106.07 1520.96 117.11 1507.48 117.66"/><path class="j" d="M1511.88,116.67c-.05-.91-.1-1.82-.13-2.73-.07-2.23-.39-4.47-.27-6.7l-4,.21.88,9.52Z"/><path class="j" d="M1516.65,116.35l.5,0c1.06,0,2.12-.08,3.19-.14l-.4-9.37-3.63.18C1516.56,110.1,1516.58,113.23,1516.65,116.35Z"/><path class="j" d="M1516.2,116.37c0-3.12-.11-6.24-.38-9.35l-4,.21c.11,3.14.27,6.28.43,9.42C1513.54,116.54,1514.87,116.44,1516.2,116.37Z"/><polygon class="i" points="1484.43 168.68 1480.45 145.96 1504.68 142.44 1507.7 165.59 1484.43 168.68"/><path class="j" d="M1491.09,160.24c-.57-4.67-1.58-9.33-1.81-14l-6.92,1,3.66,21.27,6.09-.81C1491.74,165.2,1491.39,162.73,1491.09,160.24Z"/><path class="j" d="M1500.29,166.58l6.4-.85-2.82-21.66-6.26.92C1498.78,152.14,1499.44,159.38,1500.29,166.58Z"/><path class="j" d="M1496.77,145.11l-7,1c.91,7.16,1.89,14.32,2.87,21.47l6.84-.91C1498.73,159.48,1498,152.26,1496.77,145.11Z"/><polygon class="i" points="1490.24 200.31 1487.2 184.08 1508.25 181.12 1510.45 197.67 1490.24 200.31"/><path class="j" d="M1496.16,194.14c-.41-3.35-1.2-6.68-1.32-10l-6,.85,2.79,15.21,5.28-.7Q1496.5,196.8,1496.16,194.14Z"/><path class="j" d="M1504,198.52l5.56-.73-2-15.5-5.45.78C1503,188.18,1503.41,193.36,1504,198.52Z"/><path class="j" d="M1501.36,183.17l-6.07.86c.65,5.13,1.38,10.24,2.09,15.36l5.94-.78C1502.79,193.45,1502.26,188.29,1501.36,183.17Z"/><polygon class="i" points="1512.93 152.55 1511.88 141.67 1525.93 140.97 1526.4 152 1512.93 152.55"/><path class="j" d="M1517.33,151.57c-.06-.91-.11-1.83-.14-2.74-.07-2.23-.39-4.47-.27-6.69l-4,.2.88,9.53Z"/><path class="j" d="M1522.09,151.24l.5,0c1.06,0,2.12-.07,3.19-.14l-.4-9.37-3.63.19C1522,145,1522,148.12,1522.09,151.24Z"/><path class="j" d="M1521.64,151.26c-.05-3.12-.11-6.24-.38-9.35l-4,.21c.12,3.14.27,6.28.43,9.42C1519,151.43,1520.31,151.34,1521.64,151.26Z"/><polygon class="i" points="1517.19 190.59 1516.14 179.71 1530.19 179 1530.66 190.04 1517.19 190.59"/><path class="j" d="M1521.58,189.61c0-.92-.1-1.83-.13-2.74-.07-2.23-.39-4.47-.27-6.7l-4,.21.88,9.52Z"/><path class="j" d="M1526.35,189.28l.5,0,3.19-.15-.4-9.37-3.63.18C1526.26,183,1526.28,186.16,1526.35,189.28Z"/><path class="j" d="M1525.9,189.3c-.05-3.12-.11-6.24-.38-9.35l-4,.21c.11,3.14.27,6.28.43,9.42C1523.24,189.47,1524.57,189.38,1525.9,189.3Z"/><path class="k" d="M1500.68,115.84c-5.16.3-10.58.8-16.12,1.46-14,1.67-24.27,3.91-24.37,3.94l-.42.09,2.2,10.5,39.55-4.73-.4-11.29Zm-5.49,1.26,1,9.76-5.24.63-1-9.91C1491.7,117.4,1493.46,117.24,1495.19,117.1Zm-6.12.57,1,9.92-4.75.57-1.46-9.91.75-.09C1486.14,118,1487.61,117.82,1489.07,117.67Zm-16.74,2.23c1.34-.22,2.77-.44,4.27-.66L1478,129l-4,.47Zm.9,9.71-4.54.55-1.71-9.35c1.33-.24,2.84-.5,4.49-.77Zm4.23-10.5c1.77-.25,3.64-.5,5.59-.75l1.46,9.9-5.6.67ZM1460.8,122c.78-.17,2.65-.55,5.33-1l1.7,9.3-5.17.62Zm39.83,4.33-3.54.42-1-9.72,4.23-.3Z"/><path class="k" d="M1509.8,155.59c-5.14.31-10.57.8-16.11,1.46-14,1.68-24.27,3.92-24.37,3.94l-.42.09,2.2,10.51,39.56-4.74-.41-11.28Zm-5.48,1.26,1,9.76-5.24.63-1.06-9.91C1500.83,157.15,1502.59,157,1504.32,156.85Zm-6.12.57,1,9.92-4.75.57L1493,158l.75-.08C1495.27,157.74,1496.74,157.58,1498.2,157.42Zm-16.74,2.23c1.34-.22,2.77-.44,4.28-.66l1.43,9.8-4,.47Zm.9,9.71-4.53.55-1.72-9.35c1.34-.24,2.84-.5,4.49-.77Zm4.23-10.49q2.65-.39,5.6-.76l1.45,9.9-5.6.68Zm-16.66,2.88c.78-.17,2.65-.55,5.33-1l1.7,9.3-5.17.62Zm39.83,4.33-3.54.43-1-9.73c1.43-.11,2.84-.21,4.23-.29Z"/><path class="k" d="M1513.58,192.86c-5.15.3-10.58.8-16.12,1.46-14,1.67-24.27,3.92-24.37,3.94l-.42.09,2.2,10.5,39.56-4.73-.41-11.29Zm-5.49,1.26,1,9.76-5.25.63-1.05-9.91C1504.6,194.42,1506.36,194.26,1508.09,194.12Zm-6.12.57,1,9.92-4.75.57-1.46-9.91.75-.09Zm-16.74,2.23c1.34-.22,2.77-.44,4.27-.66l1.44,9.8-4,.47Zm.9,9.71-4.54.54-1.71-9.34,4.49-.78Zm4.23-10.5c1.77-.25,3.64-.5,5.59-.75l1.46,9.9-5.6.68ZM1473.69,199c.79-.17,2.65-.55,5.34-1l1.7,9.3-5.17.62Zm39.84,4.33-3.54.42-1-9.72,4.23-.3Z"/><path class="l" d="M1470,137.42l-1-4.9s41.49-7.37,81.6-8l.3,4.33Z"/><path class="l" d="M1477.93,178.16,1477,174s37.56-6.52,73.82-7.37l.24,3.64Z"/><path class="g" d="M1459.8,129.18s49.5-9,93.23-9.42l-.53,6.18a612.87,612.87,0,0,0-91.61,8.79Z"/><path class="l" d="M1461.44,131s46.5-8,90.23-8.48l.83,3.39a612.87,612.87,0,0,0-91.61,8.79Z"/><path class="g" d="M1465.4,171s46.38-8.61,87.42-8.73l-.46,6.18a538.88,538.88,0,0,0-85.9,8.1Z"/><path class="l" d="M1467.14,172.28s43.8-8,84.83-8.12l.39,4.32a538.88,538.88,0,0,0-85.9,8.1Z"/><path class="g" d="M1473.29,207.92s42.36-9.79,80.22-10.46l-.09,6.57a427.74,427.74,0,0,0-78.85,9.78Z"/><path class="l" d="M1475,209.22s40-9.11,77.86-9.78l.59,4.59a427.74,427.74,0,0,0-78.85,9.78Z"/><path class="m" d="M1478.42,139.69c-.7-.26-1.48.59-1.59,1.2a.91.91,0,0,0,.26.94.7.7,0,0,0,.34.12.84.84,0,0,0,.72.12,1.26,1.26,0,0,0,.74-.74,1.7,1.7,0,0,0,.09-1A.84.84,0,0,0,1478.42,139.69Z"/><path class="m" d="M1481.16,141.24a.68.68,0,0,0-.62-.07.9.9,0,0,0-.41.19,1.11,1.11,0,0,0-.45,1.08.49.49,0,0,0,.3.35l.06,0c.55.22,1.23-.37,1.35-.89A.68.68,0,0,0,1481.16,141.24Z"/><path class="m" d="M1484.44,138.21a.91.91,0,0,0-1.06.22l-.08.07a1.43,1.43,0,0,0-.4.68.78.78,0,0,0,.08.63.75.75,0,0,0,.39.28,1.19,1.19,0,0,0,1.24-.77,1.3,1.3,0,0,0,.1-.78A.5.5,0,0,0,1484.44,138.21Z"/><path class="m" d="M1468,111c-.64-.23-1.35.54-1.44,1.09a.81.81,0,0,0,.23.86.72.72,0,0,0,.31.11.77.77,0,0,0,.66.11,1.15,1.15,0,0,0,.66-.67,1.6,1.6,0,0,0,.09-.89A.78.78,0,0,0,1468,111Z"/><path class="m" d="M1470.46,112.38a.59.59,0,0,0-.56-.07.74.74,0,0,0-.37.17,1,1,0,0,0-.41,1,.43.43,0,0,0,.27.31l0,0c.5.2,1.12-.34,1.23-.81A.59.59,0,0,0,1470.46,112.38Z"/><path class="m" d="M1473.44,109.62a.84.84,0,0,0-1,.2l-.07.07a1.31,1.31,0,0,0-.36.61.71.71,0,0,0,.07.57.68.68,0,0,0,.36.26,1.08,1.08,0,0,0,1.12-.7,1.23,1.23,0,0,0,.09-.71A.44.44,0,0,0,1473.44,109.62Z"/><path class="n" d="M1462.79,91l-15.43,19.47s63.09-14.11,107.46-12.6L1546.59,83S1516.94,76.18,1462.79,91Z"/><polygon class="o" points="1450.2 108.64 1463.48 91.9 1524.06 81.85 1524.13 89.49 1465.05 97.37 1450.2 108.64"/><polygon class="p" points="1455.14 107.32 1525.03 96 1524.66 92.09 1455.14 107.32"/><path class="g" d="M1643,100.17,1629.13,214l-66.5-8.18L1555.76,97C1599.9,92.18,1643,100.17,1643,100.17Z"/><path class="h" d="M1639.12,103.75l-13,110-63.47-7.9-2.48-103.3C1605.77,98.5,1639.12,103.75,1639.12,103.75Z"/><polygon class="i" points="1630.41 122.03 1632.23 105.62 1611.02 104.23 1610.05 120.91 1630.41 122.03"/><path class="j" d="M1624,116.32c.16-3.37.7-6.75.57-10.12l6.05.41L1629,122l-5.31-.3C1623.83,119.89,1624,118.11,1624,116.32Z"/><path class="j" d="M1616.53,121.28l-5.6-.32.89-15.6,5.49.36C1616.81,110.89,1616.76,116.09,1616.53,121.28Z"/><path class="j" d="M1618.05,105.77l6.11.4c-.27,5.17-.62,10.32-1,15.48l-6-.33C1617.38,116.12,1617.53,110.94,1618.05,105.77Z"/><polygon class="i" points="1600.3 114.19 1600.53 103.27 1586.47 103.61 1586.82 114.65 1600.3 114.19"/><path class="j" d="M1595.84,113.54c0-.91,0-1.83-.07-2.74-.1-2.22.06-4.48-.23-6.7l4-.09-.17,9.56Z"/><path class="j" d="M1591.07,113.57h-.51c-1,0-2.12.08-3.19.09l-.3-9.37,3.64-.09C1590.68,107.34,1590.91,110.45,1591.07,113.57Z"/><path class="j" d="M1591.52,113.56c-.19-3.12-.36-6.23-.33-9.36l4-.09c.12,3.14.2,6.28.27,9.43C1594.18,113.53,1592.85,113.53,1591.52,113.56Z"/><polygon class="i" points="1627.1 163.35 1629.37 140.4 1604.95 138.7 1603.66 162 1627.1 163.35"/><path class="j" d="M1619.83,155.44c.21-4.71.88-9.44.76-14.14l7,.49-2.07,21.49-6.12-.36C1619.55,160.43,1619.71,157.93,1619.83,155.44Z"/><path class="j" d="M1611.12,162.45l-6.44-.38,1.19-21.81,6.32.45C1611.56,147.93,1611.44,155.19,1611.12,162.45Z"/><path class="j" d="M1613,140.76l7,.5c-.37,7.21-.82,14.42-1.26,21.63l-6.88-.4C1612.15,155.24,1612.38,148,1613,140.76Z"/><polygon class="i" points="1623.67 195.33 1625.48 178.91 1604.27 177.53 1603.31 194.21 1623.67 195.33"/><path class="j" d="M1617.3,189.61c.15-3.36.7-6.74.57-10.11l6.05.4-1.65,15.37L1617,195C1617.09,193.19,1617.21,191.4,1617.3,189.61Z"/><path class="j" d="M1609.79,194.57l-5.6-.31.89-15.61,5.49.36C1610.07,184.18,1610,189.38,1609.79,194.57Z"/><path class="j" d="M1611.3,179.06l6.11.41c-.27,5.16-.61,10.32-.94,15.47l-6-.33C1610.63,189.42,1610.78,184.23,1611.3,179.06Z"/><polygon class="i" points="1597.47 149.4 1597.71 138.47 1583.65 138.81 1584 149.85 1597.47 149.4"/><path class="j" d="M1593,148.74c0-.91,0-1.82-.08-2.74-.09-2.22.07-4.48-.22-6.7l4-.09-.17,9.56Z"/><path class="j" d="M1588.24,148.77h-.5c-1,0-2.12.08-3.19.1l-.3-9.38,3.64-.08C1587.86,142.54,1588.08,145.65,1588.24,148.77Z"/><path class="j" d="M1588.69,148.76c-.19-3.11-.35-6.23-.32-9.35l4.05-.1c.12,3.14.19,6.29.27,9.43C1591.36,148.73,1590,148.73,1588.69,148.76Z"/><polygon class="i" points="1596.07 187.65 1596.3 176.72 1582.24 177.06 1582.59 188.1 1596.07 187.65"/><path class="j" d="M1591.61,187c0-.91,0-1.83-.07-2.74-.1-2.22.06-4.48-.23-6.7l4-.09-.17,9.56Z"/><path class="j" d="M1586.83,187h-.5c-1,0-2.12.08-3.19.1l-.3-9.38,3.64-.08C1586.45,180.79,1586.67,183.9,1586.83,187Z"/><path class="j" d="M1587.29,187c-.2-3.12-.36-6.23-.33-9.35l4-.1c.12,3.14.19,6.28.27,9.43C1590,187,1588.62,187,1587.29,187Z"/><path class="k" d="M1606.51,111.88l.44,11.28,39.8,1.77,1.41-10.64-.43-.06c-.1,0-10.55-1.48-24.59-2.1-5.58-.25-11-.34-16.18-.26Zm11.29.93-.31,10-5.28-.23.31-9.81Q1615.13,112.74,1617.8,112.81Zm5.3.18.75,0-.71,10-4.78-.21.31-10C1620.13,112.87,1621.61,112.93,1623.1,113Zm11.38,10.53-4-.18.71-9.88,4.31.34Zm1.91-9.64c1.67.14,3.19.29,4.54.43l-1,9.45-4.57-.2Zm-6.75,9.42-5.64-.25.72-10c2,.1,3.84.21,5.63.33ZM1646,124l-5.2-.23,1-9.4c2.71.29,4.6.53,5.39.63Zm-38.57-11.3c1.39,0,2.8,0,4.24,0l-.31,9.78-3.56-.16Z"/><path class="k" d="M1600.37,152.2l.44,11.28,39.79,1.78,1.42-10.64-.43-.06c-.1,0-10.55-1.48-24.59-2.11-5.58-.25-11-.34-16.18-.26Zm11.29.93-.31,10-5.28-.23.31-9.81Q1609,153.06,1611.66,153.13Zm5.3.19.75,0-.71,10-4.79-.22.32-10C1614,153.2,1615.47,153.25,1617,153.32Zm11.39,10.52-4-.18.7-9.87,4.32.33Zm1.9-9.64c1.67.14,3.19.29,4.54.43l-1,9.45-4.56-.2Zm-6.75,9.43-5.64-.25.72-10c2,.1,3.84.22,5.63.34Zm16.35.73-5.2-.24,1-9.4c2.71.29,4.6.53,5.4.64Zm-38.58-11.31c1.4,0,2.81,0,4.24,0l-.3,9.77-3.56-.16Z"/><path class="k" d="M1599.39,189.65l.44,11.28,39.8,1.77,1.41-10.64-.43-.06c-.1,0-10.55-1.48-24.59-2.11-5.58-.24-11-.33-16.18-.25Zm11.29.93-.31,9.95-5.27-.24.3-9.8Q1608,190.51,1610.68,190.58Zm5.3.18.75,0-.71,10-4.78-.21.31-10C1613,190.64,1614.49,190.7,1616,190.76Zm11.39,10.53-4-.18.71-9.88c1.51.11,3,.22,4.31.34Zm1.9-9.65c1.67.15,3.19.3,4.54.44l-1,9.45-4.56-.2Zm-6.75,9.43-5.63-.25.71-10c2,.1,3.85.21,5.63.33Zm16.35.73-5.2-.23,1-9.4c2.71.28,4.6.53,5.4.63Zm-38.58-11.3c1.4,0,2.81,0,4.25,0l-.31,9.77-3.56-.15Z"/><path class="l" d="M1639.13,131.11l.65-5s-41.93-4.26-82-1.92l0,4.34Z"/><path class="l" d="M1634.29,172.32l.58-4.17s-37.94-3.7-74.17-1.85l0,3.64Z"/><path class="g" d="M1648.71,122.13s-50-5.27-93.67-2.45l1,6.13a611.65,611.65,0,0,1,92,1.93Z"/><path class="l" d="M1647.22,124.09s-47-4.56-90.61-1.73l-.58,3.45a611.65,611.65,0,0,1,92,1.93Z"/><path class="g" d="M1646.25,164.28s-46.89-5.13-87.82-2.18l.91,6.12a537.3,537.3,0,0,1,86.27,1.68Z"/><path class="l" d="M1644.61,165.65s-44.28-4.72-85.2-1.77l-.07,4.34a537.3,537.3,0,0,1,86.27,1.68Z"/><path class="g" d="M1641.13,201.65s-43-6.6-80.77-4.45l.58,6.55a428.12,428.12,0,0,1,79.36,3.87Z"/><path class="l" d="M1639.56,203.08s-40.57-6.11-78.38-4l-.24,4.62a428.12,428.12,0,0,1,79.36,3.87Z"/><path class="m" d="M1630.92,134c.69-.32,1.53.47,1.68,1.07a.89.89,0,0,1-.19,1,.62.62,0,0,1-.32.14.8.8,0,0,1-.71.17,1.25,1.25,0,0,1-.8-.67,1.8,1.8,0,0,1-.16-1A.81.81,0,0,1,1630.92,134Z"/><path class="m" d="M1628.31,135.75a.64.64,0,0,1,.61-.12.75.75,0,0,1,.42.16,1.1,1.1,0,0,1,.54,1.05.48.48,0,0,1-.28.36l0,0c-.54.26-1.26-.28-1.42-.79A.66.66,0,0,1,1628.31,135.75Z"/><path class="m" d="M1624.81,133a.91.91,0,0,1,1.08.14.27.27,0,0,1,.08.07,1.32,1.32,0,0,1,.45.64.81.81,0,0,1,0,.63.75.75,0,0,1-.37.31,1.17,1.17,0,0,1-1.29-.67,1.3,1.3,0,0,1-.16-.77A.48.48,0,0,1,1624.81,133Z"/><path class="m" d="M1639.21,104.57c.62-.28,1.38.43,1.52,1a.82.82,0,0,1-.17.87.67.67,0,0,1-.3.13.76.76,0,0,1-.65.16,1.15,1.15,0,0,1-.71-.62,1.58,1.58,0,0,1-.16-.88A.76.76,0,0,1,1639.21,104.57Z"/><path class="m" d="M1636.83,106.16a.62.62,0,0,1,.56-.11.82.82,0,0,1,.38.15,1,1,0,0,1,.48,1,.42.42,0,0,1-.25.33l0,0c-.49.23-1.15-.26-1.29-.72A.6.6,0,0,1,1636.83,106.16Z"/><path class="m" d="M1633.66,103.64a.82.82,0,0,1,1,.12l.08.07a1.24,1.24,0,0,1,.4.58.67.67,0,0,1,0,.57c-.11.14-.16.23-.33.29a1.08,1.08,0,0,1-1.17-.61,1.17,1.17,0,0,1-.14-.7A.4.4,0,0,1,1633.66,103.64Z"/><path class="n" d="M1642.88,84.24l16.84,18.26s-64-9.37-108.1-4.54l7.1-15.45S1587.78,73.53,1642.88,84.24Z"/><polygon class="o" points="1656.75 100.92 1642.26 85.22 1581.1 79.72 1581.61 87.34 1641.1 90.8 1656.75 100.92"/><polygon class="p" points="1651.73 99.97 1581.2 93.91 1581.27 89.97 1651.73 99.97"/><polygon class="q" points="1540.21 94.21 1539.88 96.29 1553.63 96.83 1540.21 94.21"/><path class="l" d="M1465.19,112.86l-1.37-6s81.84-17,179.22-6.69l-.31,5.19S1556.59,97.52,1465.19,112.86Z"/><polygon class="l" points="1522 98.81 1533.77 203.43 1576.78 201.82 1585.07 96.45 1522 98.81"/><polygon class="r" points="1524.63 67.02 1537.62 210.69 1572.38 206.87 1579.6 67.64 1558.55 49.85 1524.63 67.02"/><polygon class="s" points="1526.54 71.74 1537.62 210.69 1572.38 206.87 1578.02 72.39 1558.14 55.11 1526.54 71.74"/><polygon class="n" points="1558.83 52.49 1523.12 71.59 1522.43 67.88 1558.55 49.85 1581.42 69.05 1581.36 72.55 1558.83 52.49"/><path class="t" d="M1523.18,68.09c.38,0,35.07-17.31,35.07-17.31l-35.08,19.43Z"/></g><path class="u" d="M1564.53,84.28A12.05,12.05,0,1,1,1552,72.68,12.05,12.05,0,0,1,1564.53,84.28Z"/><path class="n" d="M1564.28,83.47a12.06,12.06,0,1,1-12.5-11.6A12.06,12.06,0,0,1,1564.28,83.47Z"/><path class="m" d="M1540.8,84.88a8.23,8.23,0,0,1-.12-1.46,11.09,11.09,0,0,1,.13-1.69,11.26,11.26,0,0,1,.55-2.14,9.87,9.87,0,0,1,1.21-2.31,10.39,10.39,0,0,1,2-2.11,14.88,14.88,0,0,1,2.62-1.65,7.89,7.89,0,0,1,.72-.33,6,6,0,0,1,.74-.3,6.75,6.75,0,0,1,.76-.25l.39-.12c.12,0,.26-.06.39-.09l.39-.09.4-.06.4-.06.4,0a10.67,10.67,0,0,1,1.6,0,10.83,10.83,0,0,1,3,.72,11,11,0,0,1,2.55,1.42,12.26,12.26,0,0,1,1.93,1.76,10.71,10.71,0,0,1,1.31,1.77,9.68,9.68,0,0,1,.76,1.51c.08.22.14.42.2.6s.09.32.11.45l.08.37h0s0-.13-.1-.37-.09-.27-.14-.44-.14-.36-.23-.57a11.92,11.92,0,0,0-2.15-3.16,12.83,12.83,0,0,0-1.92-1.68,13.75,13.75,0,0,0-1.17-.75l-.64-.34c-.22-.09-.44-.21-.67-.29a10.6,10.6,0,0,0-2.94-.76,11.06,11.06,0,0,0-3.14.14c-.13,0-.26,0-.39.08l-.38.09c-.26.06-.51.15-.76.23s-.5.19-.74.29-.48.21-.72.32a11.65,11.65,0,0,0-2.55,1.69l-.28.25-.27.26c-.17.17-.33.35-.49.52a12.14,12.14,0,0,0-.85,1.11,10.9,10.9,0,0,0-1.19,2.25,12.56,12.56,0,0,0-.59,2.08,11.57,11.57,0,0,0-.19,1.66,10,10,0,0,0,0,1.08,3.79,3.79,0,0,0,0,.38Z"/><path class="v" d="M1562.88,83.52a10.66,10.66,0,1,1-11.05-10.26A10.66,10.66,0,0,1,1562.88,83.52Z"/><path class="m" d="M1551.83,73.19A10.73,10.73,0,1,0,1563,83.52,10.75,10.75,0,0,0,1551.83,73.19Z"/><path class="w" d="M1552.28,83.55h0c.26,0,.52,0,.79-.06l.83,0c.28,0,.57,0,.85,0h.63s0-.08,0-.08v-.27a.62.62,0,0,1,0-.13l.16.09a2.29,2.29,0,0,1,.59.38,4.38,4.38,0,0,1,.39.36l-.06,0h0l0,0-.18.15a3.57,3.57,0,0,1-.38.3c-.16.11-.31.22-.47.31h-.05l-.07,0c0-.05,0-.1,0-.14a2,2,0,0,0,0-.25,6.82,6.82,0,0,1-1,0c-.45,0-.9,0-1.35,0l-.54,0c-.21,0-.41,0-.48-.22a.53.53,0,0,1,.15-.46A.37.37,0,0,1,1552.28,83.55Z"/><path class="w" d="M1553,78a2.84,2.84,0,0,0-.39-.54l-.35-.34s0,0,0,0h0l0,0-.14.17-.26.38a4.25,4.25,0,0,0-.27.46s0,0,0,0h0a.25.25,0,0,1,0,.07h.13l.24,0a16.69,16.69,0,0,0,.05,1.74c0,.38.21,3.12.28,3.76a.06.06,0,0,1,0,0,.08.08,0,0,0,0,0s0,0,0,0,0,.05.08.06h.12c.06,0,.13,0,.19,0s.13,0,.16-.06h0V80.36c0-.27,0-.54,0-.81s0-1,0-1.18a1.5,1.5,0,0,0,0-.2h.32l.13,0Z"/><path class="w" d="M1553.35,84.11a.93.93,0,1,1-1-.89A.93.93,0,0,1,1553.35,84.11Z"/><g class="x"><path class="y" d="M1551.83,75.84h-.19l0,0a1.34,1.34,0,0,1,0-.2s0-.09,0-.15,0-.14,0-.25v-.35c0-.2,0-.35,0-.46a.49.49,0,0,1,0-.11v-.12h0l-.36.15h0l-.05,0,0,0-.31.1h0a.24.24,0,0,1,0,.08.64.64,0,0,0,0,.09h0l.33-.17.06,0h0a.2.2,0,0,1,0,0,3,3,0,0,0,0,.32v.47a1.56,1.56,0,0,1,0,.2,1.64,1.64,0,0,1,0,.26.1.1,0,0,1,0,.07h0a.05.05,0,0,1,0,0l-.25,0V76l.56,0h.46v-.11Z"/><path class="y" d="M1553.31,75.78V75.7a.45.45,0,0,1,0-.11h0l-.23,0-.35,0h-.23v0l.15-.15.08-.08.13-.15.15-.16a.64.64,0,0,0,.11-.16.79.79,0,0,0,.08-.16.43.43,0,0,0,0-.16.13.13,0,0,0,0-.06h0a.25.25,0,0,0-.06-.16.37.37,0,0,0-.18-.17.73.73,0,0,0-.32-.06.85.85,0,0,0-.25.05.56.56,0,0,0-.2.14.61.61,0,0,1,0,.14v.31h.1c0-.08,0-.15,0-.21a.24.24,0,0,1,.11-.09.33.33,0,0,1,.14,0,.28.28,0,0,1,.21.07.28.28,0,0,1,.08.15.19.19,0,0,1,0,.08.39.39,0,0,1,0,.15.44.44,0,0,1-.06.17,1.52,1.52,0,0,1-.14.21l-.27.31-.22.23,0,0V76l.62,0h.59A.65.65,0,0,1,1553.31,75.78Z"/><path class="y" d="M1557.53,77.08h-.19s0,0,0,0a.59.59,0,0,1,0-.2v0s0-.08,0-.13,0-.21,0-.4v-.2a1.55,1.55,0,0,0,0-.22v-.35q0-.1,0-.12l0,0-.36.14h0l-.06,0a2.32,2.32,0,0,1-.35.12s0,0,0,0h0s0,0,0,.08a.2.2,0,0,0,0,.09h0a3.35,3.35,0,0,1,.32-.17l.06,0h0s0,0,0,0,0,.22,0,.32l0,.32v.15a3.26,3.26,0,0,1,0,.46s0,.06,0,.07h0s0,0,0,0l-.25,0v.1l.56,0h.47v-.1Z"/><path class="y" d="M1560.9,80.25v0a.15.15,0,0,1,0-.06h0a0,0,0,0,1,0,0v-.08l-.23,0-.35,0h-.24v0l.13-.14a.76.76,0,0,0,.09-.09l.14-.14.14-.16.12-.16a1,1,0,0,0,.07-.17.78.78,0,0,0,0-.16.11.11,0,0,0,0-.07v0a1.12,1.12,0,0,0,0-.13.52.52,0,0,0-.19-.17.62.62,0,0,0-.32,0,.66.66,0,0,0-.25,0,.53.53,0,0,0-.2.13s0,.1,0,.15l0,.3h.1a1.65,1.65,0,0,1,.05-.21.26.26,0,0,1,.11-.1.33.33,0,0,1,.14,0,.25.25,0,0,1,.21.08.24.24,0,0,1,.08.15h0a.15.15,0,0,1,0,.07.76.76,0,0,1,0,.15,1.66,1.66,0,0,1-.06.16l-.14.21c-.06.07-.15.18-.28.31l-.22.24h0v.15l.62,0h.58v0A.52.52,0,0,1,1560.9,80.25Z"/><path class="y" d="M1562.1,84.15a.28.28,0,0,0,0-.09A.41.41,0,0,0,1562,84l-.11-.08-.13,0h-.08l.15-.12s.05,0,.06-.06a.37.37,0,0,0,.07-.23.14.14,0,0,0,0-.06.28.28,0,0,0-.12-.2.47.47,0,0,0-.35-.1.86.86,0,0,0-.24,0,.49.49,0,0,0-.19.1c0,.06,0,.1,0,.14l0,.12,0,.16h.1s0,0,0-.06a.4.4,0,0,1,.06-.13.22.22,0,0,1,.09-.07.58.58,0,0,1,.14,0,.32.32,0,0,1,.2.06l.06.08a.3.3,0,0,1,0,.1.32.32,0,0,1,0,.14.38.38,0,0,1-.11.11.37.37,0,0,1-.14,0h-.11V84l0,.08h0v0l.16,0a.38.38,0,0,1,.26.08.28.28,0,0,1,.09.17.19.19,0,0,1,0,.08.4.4,0,0,1-.08.26.21.21,0,0,1-.08.06.38.38,0,0,1-.16,0h0l-.13,0a.45.45,0,0,1-.14-.1,1.76,1.76,0,0,1-.12-.2l-.06,0h0s0,.1,0,.2,0,.16,0,.2l.17,0h.16a.83.83,0,0,0,.57-.24.55.55,0,0,0,.19-.45A.13.13,0,0,0,1562.1,84.15Z"/><path class="y" d="M1561.21,88.71a.11.11,0,0,1-.06,0h0a.05.05,0,0,1,0,0,.58.58,0,0,1,0-.15s0-.07,0-.11h.25a.41.41,0,0,1,0-.1v-.11h-.25v-.45c0-.2,0-.35,0-.45a1.28,1.28,0,0,1,0-.22h0l-.17,0-.16,0s-.09.14-.17.29a4.83,4.83,0,0,0-.29.57,1.8,1.8,0,0,0-.14.31h0a.08.08,0,0,0,0,0l0,.11.47,0h.18a1.11,1.11,0,0,1,0,.24.08.08,0,0,1,0,.06h0l0,0-.24,0v.12l.46,0h.44v-.11Zm-.91-.52.06-.15c.06-.13.11-.24.15-.31a4.44,4.44,0,0,1,.24-.44s0,0,0,0v.9Z"/><path class="y" d="M1558.16,91.67a.36.36,0,0,0-.14-.29.49.49,0,0,0-.39-.12l-.17,0-.18.08v-.42l.39,0h.41a.38.38,0,0,1,0-.1v-.06a.66.66,0,0,1,0-.13v0l-.25,0h-.71s0,.06,0,.08v.07a.25.25,0,0,1,0,.11v.74l0,0,.09-.06.09,0,.12,0a.36.36,0,0,1,.26.09.3.3,0,0,1,.1.21.17.17,0,0,1,0,.07.35.35,0,0,1-.08.27l-.06,0a.18.18,0,0,1-.1,0l-.08,0h-.06l-.12,0a.31.31,0,0,1-.15-.1.64.64,0,0,1-.11-.16l0,0h0l.07.26,0,.12a.53.53,0,0,0,.16,0h.14a1,1,0,0,0,.37-.09.74.74,0,0,0,.3-.28.76.76,0,0,0,.09-.35A.07.07,0,0,0,1558.16,91.67Z"/><path class="y" d="M1553.78,93.2a.45.45,0,0,0-.12-.32.36.36,0,0,0-.28-.11.27.27,0,0,0-.13,0l-.09,0-.06.05h0L1553,93l0,0h0a.9.9,0,0,1,0-.18.52.52,0,0,1,0-.14.66.66,0,0,1,.11-.24.42.42,0,0,1,.18-.17.49.49,0,0,1,.24-.08h.08l0,0-.1-.08a1.08,1.08,0,0,0-.31.07l0,0a1.05,1.05,0,0,0-.3.22,1.08,1.08,0,0,0-.21.34,1.16,1.16,0,0,0-.06.4.22.22,0,0,0,0,.08,1,1,0,0,0,.08.39.5.5,0,0,0,.2.25.58.58,0,0,0,.33.09.59.59,0,0,0,.42-.19.71.71,0,0,0,.14-.49A.09.09,0,0,0,1553.78,93.2Zm-.52.59a.11.11,0,0,1-.08,0h0a.24.24,0,0,1-.08-.09.67.67,0,0,1-.08-.35v-.07a.36.36,0,0,1,0-.11.23.23,0,0,1,.07-.1.28.28,0,0,1,.13,0,.21.21,0,0,1,.13,0,.28.28,0,0,1,.11.13.57.57,0,0,1,0,.15.28.28,0,0,1,0,.09.47.47,0,0,1,0,.29l0,0A.17.17,0,0,1,1553.26,93.79Z"/><path class="y" d="M1549.1,91.39l-.55,0h-.62v0a1,1,0,0,0,0,.18v.29a.81.81,0,0,1,0,.16h.11a1.44,1.44,0,0,1,0-.25.05.05,0,0,1,0,0,0,0,0,0,1,0,0l.17,0h.54v0l-.17.35s-.09.17-.23.43c0,.06-.13.23-.28.52,0,0-.05.08-.07.13v0h.31a3.19,3.19,0,0,1,.11-.34c.07-.17.12-.31.18-.43a3.75,3.75,0,0,1,.2-.45c0-.06.1-.22.22-.46v-.12Z"/><path class="y" d="M1545.7,89.81a.15.15,0,0,0,0-.07.23.23,0,0,0-.06-.12.28.28,0,0,0-.09-.1.51.51,0,0,0-.18-.08l.12-.1a.42.42,0,0,0,.09-.14.41.41,0,0,0,0-.16.19.19,0,0,0,0-.08.29.29,0,0,0-.11-.19.46.46,0,0,0-.27-.09.11.11,0,0,0-.08,0l-.16,0a0,0,0,0,0,0,0h0l-.09,0a.41.41,0,0,0-.19.18.37.37,0,0,0-.06.21.17.17,0,0,0,0,.07.53.53,0,0,0,0,.17.57.57,0,0,0,.08.13l0,0a.74.74,0,0,0,.13.08l-.12.07-.09.09a.54.54,0,0,0-.07.13.28.28,0,0,0,0,.09v0a.07.07,0,0,0,0,0,.53.53,0,0,0,0,.2.49.49,0,0,0,.11.14.39.39,0,0,0,.14.08.47.47,0,0,0,.25,0,.61.61,0,0,0,.28-.06.65.65,0,0,0,.26-.23.56.56,0,0,0,.08-.34A.17.17,0,0,0,1545.7,89.81Zm-.63-1a.32.32,0,0,1,.22.07.27.27,0,0,1,.07.13h0a.14.14,0,0,1,0,.07.35.35,0,0,1,0,.17.35.35,0,0,1-.11.13l-.08,0-.1-.05-.09,0-.07-.06a.13.13,0,0,1,0-.07.19.19,0,0,1,0-.08.19.19,0,0,1,0-.08h0l.05-.08A.3.3,0,0,1,1545.07,88.81Zm.17,1.53a.17.17,0,0,1-.1,0H1545l-.11-.08a.37.37,0,0,1-.11-.26.34.34,0,0,1,0-.1.32.32,0,0,1,0-.09.55.55,0,0,1,.14-.17h0l.27.12a.29.29,0,0,1,.11.11l0,.08a.19.19,0,0,1,0,.08.29.29,0,0,1-.08.22.16.16,0,0,1-.08.06Z"/><path class="y" d="M1543.77,84.43a.56.56,0,0,0-.2-.25.41.41,0,0,0-.25-.08h-.08a.37.37,0,0,0-.15,0,.5.5,0,0,0-.27.16.64.64,0,0,0-.14.37.37.37,0,0,0,0,.11.5.5,0,0,0,.14.37.32.32,0,0,0,.29.12.46.46,0,0,0,.19,0l0,0,.15-.13h0s0,0,0,0a1.68,1.68,0,0,1,0,.31.87.87,0,0,1-.1.24.41.41,0,0,1-.16.16l0,0a.4.4,0,0,1-.24.07h-.1l0,0,.11.09a1,1,0,0,0,.66-.31,1.08,1.08,0,0,0,.21-.34,1.17,1.17,0,0,0,.06-.48v0A1.08,1.08,0,0,0,1543.77,84.43Zm-.29.44,0,0-.07.07a.16.16,0,0,1-.12,0,.22.22,0,0,1-.13,0,.24.24,0,0,1-.11-.13.68.68,0,0,1,0-.23v-.09a.37.37,0,0,1,0-.2.21.21,0,0,1,.17-.09.22.22,0,0,1,.21.12.68.68,0,0,1,.07.24s0,.06,0,.1A.74.74,0,0,1,1543.48,84.87Z"/><path class="y" d="M1544.18,81.22a.56.56,0,0,1-.19,0l0,0a.91.91,0,0,1,0-.2v-.15c0-.08,0-.21,0-.4v-.2c0-.08,0-.15,0-.22v-.35a.83.83,0,0,0,0-.12h0l-.37.14h0s0,0-.06,0l-.12,0-.23.07h0s0,0,0,.08a.34.34,0,0,1,0,.09h0l.33-.16,0,0s0,0,0,0a.18.18,0,0,0,0,0c0,.12,0,.22,0,.32s0,.1,0,.15v.46a1.62,1.62,0,0,1,0,.32.1.1,0,0,1,0,.07h0l0,0-.25,0v.1l.56,0h.47v-.1Z"/><path class="y" d="M1545.62,80.18a.49.49,0,0,0,0-.12,1,1,0,0,0,0-.2.5.5,0,0,0-.5-.35s0,0,0,0h-.12l-.09,0a.91.91,0,0,0-.16.11.74.74,0,0,0-.12.17.62.62,0,0,0-.07.23,1.94,1.94,0,0,0,0,.24v.06s0,.09,0,.13a2.05,2.05,0,0,0,0,.37.71.71,0,0,0,.11.28.42.42,0,0,0,.19.16.49.49,0,0,0,.27,0,.65.65,0,0,0,.21,0,.46.46,0,0,0,.16-.11.63.63,0,0,0,.13-.2,1,1,0,0,0,.06-.28,2.09,2.09,0,0,0,0-.26A2.72,2.72,0,0,0,1545.62,80.18Zm-.45,1a.09.09,0,0,1-.08,0l-.08,0-.08-.06a.63.63,0,0,1-.11-.31c0-.12,0-.26,0-.41s0-.09,0-.14a1.32,1.32,0,0,1,0-.43.26.26,0,0,1,.07-.15.2.2,0,0,1,.13,0,.11.11,0,0,1,.11,0,.3.3,0,0,1,.09.1.8.8,0,0,1,0,.22,2.6,2.6,0,0,1,0,.39v0s0,.1,0,.14a1.18,1.18,0,0,1,0,.54.2.2,0,0,1-.08.08Z"/><path class="y" d="M1547.33,77.47h-.08l-.2,0a0,0,0,0,1,0,0h0a.56.56,0,0,1,0-.19v0s0-.08,0-.13,0-.2,0-.4v0c0-.32,0-.51,0-.59v-.13a.52.52,0,0,0,0-.13h0l-.37.15h0l0,0-.08,0,0,0-.23.07h0s0,0,0,.08,0,.06,0,.08h0l.32-.17.06,0h0s0,0,0,.06,0,.21,0,.31v.32c0,.12,0,.22,0,.29a1.73,1.73,0,0,1,0,.33l0,.06h0l-.06,0-.25,0v.11l.56,0h.47Z"/><path class="y" d="M1548.59,77.42h-.08c-.11,0-.17,0-.19,0s0,0,0,0a.53.53,0,0,1,0-.18s0-.09,0-.18v0a1.48,1.48,0,0,1,0-.22v-.2c0-.31,0-.51,0-.59v-.25l0,0-.35.16h0l0,0-.08,0,0,0-.23.07h0a.31.31,0,0,0,0,.08.54.54,0,0,0,0,.08h0l.32-.16.06,0s0,0,0,0,0,0,0,0,0,.22,0,.31v.32c0,.12,0,.22,0,.29a1.71,1.71,0,0,1,0,.33.16.16,0,0,1,0,.06h0l-.06,0-.25,0v.11l.56,0h.47Z"/></g><path d="M1551.91,75.69h-.08a.69.69,0,0,1-.2,0,0,0,0,0,1,0,0,.91.91,0,0,1,0-.2c0-.06,0-.14,0-.25v-.35c0-.2,0-.35,0-.46V74l0,0c-.19.09-.34.14-.43.18l-.37.13h0a.31.31,0,0,0,0,.08.07.07,0,0,0,0,.05v0h0l.29-.14,0,0,.05,0a0,0,0,0,1,0,0,0,0,0,0,1,0,0h0s0,0,0,.06v.15a3,3,0,0,0,0,.32v.47a1.56,1.56,0,0,1,0,.2c0,.05,0,.08,0,.11s0,.06,0,.07l-.06,0-.24,0v.11l.3,0h0l.25,0h.47Z"/><path d="M1553.31,75.7a.19.19,0,0,0,0-.08v0a.76.76,0,0,1,0-.14v0l-.23,0-.36,0h-.23v0a2.5,2.5,0,0,0,.23-.23l.13-.14.14-.16.12-.16a.77.77,0,0,0,.07-.17.13.13,0,0,0,0-.06h0a.25.25,0,0,0,0-.08.73.73,0,0,0-.07-.24.45.45,0,0,0-.19-.17.62.62,0,0,0-.32,0,.66.66,0,0,0-.25,0,.5.5,0,0,0-.19.13.76.76,0,0,0,0,.15l0,.3h.1l0-.21a.35.35,0,0,1,.11-.1.35.35,0,0,1,.14,0,.28.28,0,0,1,.22.07.32.32,0,0,1,.08.23v.07a.22.22,0,0,1,0,.08.43.43,0,0,1-.07.16.8.8,0,0,1-.13.21l-.27.31-.24.26v.13h0l.6,0h.59v0A0,0,0,0,0,1553.31,75.7Z"/><path d="M1557.61,76.93h-.08a.69.69,0,0,1-.2,0l0,0a.11.11,0,0,0,0,0v0s0-.08,0-.13,0-.21,0-.4v-.2a1.55,1.55,0,0,0,0-.22c0-.19,0-.31,0-.37a.46.46,0,0,1,0-.1v-.16l0,0-.43.18-.37.13h0a.19.19,0,0,1,0,.08.11.11,0,0,1,0,0,0,0,0,0,0,0,0h0l.33-.16.06,0h0a.35.35,0,0,1,0,.06v.15c0,.12,0,.22,0,.32l0,.32v.15a2.29,2.29,0,0,1,0,.31.12.12,0,0,1,0,.07l-.06,0-.25,0v.11l.3,0h0l.26,0h.47Z"/><path d="M1560.91,80.16h0a0,0,0,0,1,0,0,0,0,0,0,1,0,0v0a.76.76,0,0,1,0-.14h-.25l-.35,0h-.24l.23-.24.13-.14.15-.16a.64.64,0,0,0,.11-.16.47.47,0,0,0,.07-.17.15.15,0,0,0,0-.07v0a.07.07,0,0,0,0,0,.48.48,0,0,0-.07-.23.37.37,0,0,0-.19-.18.74.74,0,0,0-.32,0,1,1,0,0,0-.25,0,.64.64,0,0,0-.19.13.86.86,0,0,0,0,.15l0,.31h.11c0-.08,0-.15,0-.21a.52.52,0,0,1,.11-.1.35.35,0,0,1,.14,0,.31.31,0,0,1,.22.07.32.32,0,0,1,.09.23.25.25,0,0,1,0,.08h0a.13.13,0,0,1,0,.06.7.7,0,0,1-.06.17,1.86,1.86,0,0,1-.14.2l-.27.32-.24.25v.14h0l.61,0h.59A.11.11,0,0,1,1560.91,80.16Z"/><path d="M1562.08,83.91a.21.21,0,0,0-.07-.11.28.28,0,0,0-.11-.08l-.05,0-.08,0s-.06,0-.08,0a.7.7,0,0,0,.22-.19.29.29,0,0,0,0-.13.28.28,0,0,0,0-.09.35.35,0,0,0-.13-.27.57.57,0,0,0-.36-.1.85.85,0,0,0-.24,0,.69.69,0,0,0-.19.1.59.59,0,0,1,0,.14l0,.27h.09s0,0,0,0a.48.48,0,0,1,.06-.14l.09-.06a.33.33,0,0,1,.15,0,.24.24,0,0,1,.19.06.2.2,0,0,1,.08.17.13.13,0,0,1,0,.06.19.19,0,0,1,0,.08.22.22,0,0,1-.1.11.48.48,0,0,1-.14,0h-.11l0,.11,0,.07v0l0,0h0a.35.35,0,0,1,.13,0,.37.37,0,0,1,.26.07.32.32,0,0,1,.11.26.17.17,0,0,1,0,.07.25.25,0,0,1-.07.19.3.3,0,0,1-.24.1.34.34,0,0,1-.17,0,.36.36,0,0,1-.15-.1.86.86,0,0,1-.11-.19l-.09,0a.61.61,0,0,1,0,.14s0,0,0,.06,0,.16,0,.2a.53.53,0,0,0,.16,0,.47.47,0,0,0,.17,0h.07a.78.78,0,0,0,.21,0,.85.85,0,0,0,.29-.19.5.5,0,0,0,.18-.35.28.28,0,0,0,0-.09A.33.33,0,0,0,1562.08,83.91Z"/><path d="M1561.37,88.57h-.17l-.06,0,0,0v-.11a.76.76,0,0,1,0-.16h.24a.15.15,0,0,0,0-.07V88l-.18,0h-.05v-.3c0-.2,0-.35,0-.45v-.38l0,0-.18,0-.16,0-.17.28c-.08.14-.17.33-.29.57a3.52,3.52,0,0,0-.15.37l0,.1h0l.47,0h.18v.23a.13.13,0,0,1,0,.08l0,0-.25,0v.11l.28,0h.62ZM1560.3,88c.08-.21.15-.37.2-.47s.13-.25.25-.45V88l-.41,0Z"/><path d="M1558,91.22a.61.61,0,0,0-.39-.12.86.86,0,0,0-.17,0,.83.83,0,0,0-.18.08h0v-.42l.39,0h.39v0a.22.22,0,0,0,0-.09.18.18,0,0,1,0-.06.72.72,0,0,1,0-.13l0,0-.25,0h-.14c-.16,0-.34,0-.55,0l0,0a.2.2,0,0,1,0,.07s0,0,0,.07a.83.83,0,0,0,0,.12v.73h0l0,0,.1-.07.09,0h.11a.32.32,0,0,1,.27.09.37.37,0,0,1,.11.27.28.28,0,0,1,0,.09.33.33,0,0,1-.08.18.3.3,0,0,1-.23.11l-.18,0a.47.47,0,0,1-.26-.27l-.09,0a1,1,0,0,1,0,.14c0,.06,0,.1,0,.12a.52.52,0,0,1,0,.11l.16.05h.35l.1,0,.07,0a.71.71,0,0,0,.29-.28.49.49,0,0,0,.08-.25.28.28,0,0,0,0-.09A.46.46,0,0,0,1558,91.22Z"/><path d="M1553.65,92.72a.38.38,0,0,0-.28-.11l-.13,0-.09,0-.16.16,0,0a1.89,1.89,0,0,1,0-.31,1.12,1.12,0,0,1,.11-.25.62.62,0,0,1,.14-.14l0,0a.51.51,0,0,1,.24-.07h.09l0,0-.11-.08a.78.78,0,0,0-.35.08,1.14,1.14,0,0,0-.31.23.93.93,0,0,0-.21.33,1.24,1.24,0,0,0-.06.49.17.17,0,0,0,0,.07.76.76,0,0,0,.07.32.67.67,0,0,0,.19.25.49.49,0,0,0,.25.07h.09l.15,0a.52.52,0,0,0,.26-.17.54.54,0,0,0,.14-.38.31.31,0,0,0,0-.1A.53.53,0,0,0,1553.65,92.72Zm-.18.6a.4.4,0,0,1,0,.22.23.23,0,0,1-.17.1.22.22,0,0,1-.2-.12.57.57,0,0,1-.07-.25v0a.22.22,0,0,1,0-.08.44.44,0,0,1,0-.18l0,0a.16.16,0,0,1,.06-.08h0l.09,0a.25.25,0,0,1,.14,0,.34.34,0,0,1,.1.13.72.72,0,0,1,0,.24A.13.13,0,0,1,1553.47,93.32Z"/><path d="M1548.55,91.26h-.64c0,.06,0,.11,0,.16a1,1,0,0,0,0,.18v.29h.11a1.43,1.43,0,0,1,0-.24s0,0,0,0h0a.42.42,0,0,1,.16,0h.55v0l-.06.13-.11.22s-.09.16-.23.42c0,.07-.16.29-.35.66v0h.3c0-.1.07-.21.12-.34a3.86,3.86,0,0,1,.17-.43c0-.12.11-.27.2-.46s.1-.19.21-.42c0,0,0,0,0,0v-.12Z"/><path d="M1545.68,89.58a.61.61,0,0,0,0-.12l-.1-.09,0,0-.12-.06.11-.09a.42.42,0,0,0,.09-.14.29.29,0,0,0,0-.09.17.17,0,0,0,0-.07.39.39,0,0,0-.13-.28.52.52,0,0,0-.35-.1.66.66,0,0,0-.3.08.47.47,0,0,0-.19.18.5.5,0,0,0-.07.27s0,.06,0,.09a.19.19,0,0,0,0,.08.32.32,0,0,0,.08.13l.17.11-.13.07-.09.09a.31.31,0,0,0-.06.13.41.41,0,0,0,0,.16.19.19,0,0,0,0,.08v0a.94.94,0,0,0,0,.09.53.53,0,0,0,.11.14.55.55,0,0,0,.14.09.43.43,0,0,0,.17,0h.09l.15,0h0l.11,0a.62.62,0,0,0,.25-.23.5.5,0,0,0,.08-.26.22.22,0,0,0,0-.08A.8.8,0,0,0,1545.68,89.58Zm-.79-.85,0,0h0a0,0,0,0,1,0,0,.2.2,0,0,1,.11,0h0a.11.11,0,0,1,.08,0,.16.16,0,0,1,.08,0,.25.25,0,0,1,.09.2.22.22,0,0,1,0,.08h0a.19.19,0,0,1,0,.08.3.3,0,0,1-.11.14l-.07,0-.1,0-.1-.06a.13.13,0,0,1-.07-.06.16.16,0,0,1,0-.07h0a.42.42,0,0,1,0-.06A.24.24,0,0,1,1544.89,88.73Zm.52,1.24a.3.3,0,0,1-.07.15.29.29,0,0,1-.21.09.27.27,0,0,1-.24-.09.28.28,0,0,1-.1-.21.09.09,0,0,1,0,0,.34.34,0,0,1,0-.2.64.64,0,0,1,.13-.17l0,0,.27.12a.43.43,0,0,1,.12.11.53.53,0,0,1,0,.16A.17.17,0,0,1,1545.41,90Z"/><path d="M1543.76,84.27a.55.55,0,0,0-.2-.25.49.49,0,0,0-.33-.08.52.52,0,0,0-.41.19.63.63,0,0,0-.15.48s0,0,0,0a.49.49,0,0,0,.12.33.4.4,0,0,0,.29.12.58.58,0,0,0,.19,0l0,0,.07-.06.07-.07,0,0a.86.86,0,0,1,0,.17h0a.69.69,0,0,0,0,.13.88.88,0,0,1-.11.24.42.42,0,0,1-.18.17.57.57,0,0,1-.24.08h-.1l0,0,.11.08a.68.68,0,0,0,.29-.06l.06,0a1.31,1.31,0,0,0,.31-.23.89.89,0,0,0,.21-.34.79.79,0,0,0,.06-.32v-.16A1,1,0,0,0,1543.76,84.27Zm-.37.55-.12,0a.33.33,0,0,1-.14,0,.28.28,0,0,1-.1-.13.54.54,0,0,1,0-.15v0a.17.17,0,0,1,0-.07.55.55,0,0,1,.06-.29.1.1,0,0,1,0,0,.22.22,0,0,1,.11-.05.2.2,0,0,1,.11,0h0a.26.26,0,0,1,.09.09.79.79,0,0,1,.08.35v0a.24.24,0,0,1,0,.13A.25.25,0,0,1,1543.39,84.82Z"/><path d="M1544.26,81.07h-.08a.69.69,0,0,1-.2,0s0,0,0,0a.68.68,0,0,1,0-.19c0-.08,0-.21,0-.4v-.2c0-.08,0-.15,0-.22s0-.31,0-.37a1,1,0,0,0,0-.11v-.15l0,0c-.19.09-.34.14-.43.18l-.38.13h0a.19.19,0,0,1,0,.08.43.43,0,0,0,0,0,0,0,0,0,1,0,0h0l.2-.11.12,0,.06,0h0a0,0,0,0,1,0,0,.43.43,0,0,1,0,0v.16c0,.12,0,.22,0,.32v.32a.66.66,0,0,0,0,.15v.14c0,.08,0,.13,0,.17a.12.12,0,0,1,0,.07l-.06,0-.25,0v.11l.3,0h0l.25,0h.47Z"/><path d="M1545.62,80.18a.49.49,0,0,0,0-.12,1.12,1.12,0,0,0-.06-.36.51.51,0,0,0-.19-.26.49.49,0,0,0-.34-.08.45.45,0,0,0-.2,0,.36.36,0,0,0-.16.11.59.59,0,0,0-.13.17.86.86,0,0,0-.06.23,1.64,1.64,0,0,0,0,.39v.06s0,.09,0,.13l0,.22a.77.77,0,0,0,.1.28.53.53,0,0,0,.2.16.65.65,0,0,0,.22,0h0l.12,0h0l.09,0a.42.42,0,0,0,.16-.11.81.81,0,0,0,.19-.47.45.45,0,0,1,0-.11A2.72,2.72,0,0,0,1545.62,80.18Zm-.54.88a.18.18,0,0,1-.15-.07.66.66,0,0,1-.12-.32l0-.25s0-.09,0-.14,0-.1,0-.15a2.24,2.24,0,0,1,0-.43.27.27,0,0,1,.08-.15l0,0h0l.07,0h0s0,0,0,0l0,0a.24.24,0,0,1,.08.11,1.06,1.06,0,0,1,.06.22,3.29,3.29,0,0,1,0,.54v0a1.27,1.27,0,0,1,0,.52A.21.21,0,0,1,1545.08,81.06Z"/><path d="M1547.24,77.31h-.19l0,0s0,0,0,0v0s0-.08,0-.13,0-.2,0-.4v-.19c0-.32,0-.52,0-.6v-.13a.83.83,0,0,0,0-.12l0,0-.43.17-.38.13h0s0,0,0,.08a.13.13,0,0,1,0,.06s0,0,0,0h0l.21-.1,0,0,.08,0h.08a.11.11,0,0,0,0,0v.16c0,.11,0,.21,0,.31v.32c0,.12,0,.22,0,.29a.76.76,0,0,1,0,.17.1.1,0,0,1,0,.07.06.06,0,0,1-.06,0l-.25,0v.1l.31,0h.25a1,1,0,0,1,.17,0h.3v-.1Z"/><path d="M1548.5,77.27l-.19,0,0,0a0,0,0,0,0,0,0s0-.09,0-.18v0c0-.07,0-.2,0-.37v-.2c0-.32,0-.52,0-.59a.46.46,0,0,1,0-.1v-.16l0,0-.43.17-.38.14h0s0,.05,0,.07a.13.13,0,0,1,0,.06s0,0,0,0h0l.21-.11,0,0,.08,0h.08a.11.11,0,0,0,0,0v.16c0,.12,0,.22,0,.31v.32c0,.12,0,.22,0,.29a.72.72,0,0,1,0,.17.13.13,0,0,1,0,.08l-.06,0-.25,0v.11l.31,0h.72v-.11Z"/><path class="z" d="M1552.26,83.79c0,.1,0,.2.08.26a.52.52,0,0,0,.25,0l.27,0,.24,0s0,0,0,0h1.31l.65,0h.49v.14c0,.06,0,.12,0,.18h0a3.37,3.37,0,0,1,.55-.38l.31-.21.22-.17a3.88,3.88,0,0,1-.31-.26c-.2-.17-.43-.29-.63-.45a.08.08,0,0,1,0,0,1.1,1.1,0,0,1,0,.18l0,.13-.26,0-.27,0c-.3,0-.6,0-.91.06l-.89.07a3.66,3.66,0,0,1-.81,0h-.09C1552.3,83.55,1552.28,83.71,1552.26,83.79Z"/><g class="x"><path class="z" d="M1552.4,83.53h.09a3.66,3.66,0,0,0,.81,0h.13a1.49,1.49,0,0,1,0,.38l2.29-.08v.29l.9-.44,0,0-.22.17-.31.21a3.37,3.37,0,0,0-.55.38h0c0-.06,0-.12,0-.18v-.14h-.49l-.65,0h-1.31s0,0,0,0l-.24,0-.27,0a.52.52,0,0,1-.25,0c-.12-.06-.11-.16-.08-.26S1552.3,83.55,1552.4,83.53Z"/></g><path class="z" d="M1552.92,77.86a.9.9,0,0,0-.16,0l-.13,0a1,1,0,0,1,0,.24c0,.08,0,.17,0,.25,0,.27.09,4.48.1,5.15a.41.41,0,0,0,0,.07l-.12,0a1.94,1.94,0,0,1-.24,0s-.08,0-.09,0c0-.42-.21-3.35-.24-3.73,0-.2-.06-1.19-.08-1.39s0-.19,0-.28a.45.45,0,0,0,0-.11h0a.22.22,0,0,0,0-.08h-.13l-.16,0h0a4.34,4.34,0,0,0,.33-.54l.18-.3c0-.06.11-.15.15-.22a3.57,3.57,0,0,0,.27.28c.16.19.28.4.45.58Z"/><g class="x"><path class="z" d="M1552.24,77.85h-.33l.37-.82,0-.05c0,.07-.11.16-.15.22l-.18.3a4.34,4.34,0,0,1-.33.54h0l.16,0h.13a.22.22,0,0,1,0,.08h0a.45.45,0,0,1,0,.11c0,.09,0,.18,0,.28s.07,1.19.08,1.39c0,.38.23,3.31.24,3.73,0,0,0,0,.09,0a1.94,1.94,0,0,0,.24,0l.12,0a.41.41,0,0,1,0-.07c0-.15,0-.46,0-.83a.62.62,0,0,0-.25-.07Z"/></g><path class="aa" d="M1553.34,83.93a.92.92,0,1,1-1-.89A.92.92,0,0,1,1553.34,83.93Z"/><path class="ab" d="M1553.25,83.93a.83.83,0,1,1-.86-.8A.83.83,0,0,1,1553.25,83.93Z"/><path class="ac" d="M1553,83.74a.57.57,0,1,1-1.14,0,.56.56,0,0,1,.55-.59A.56.56,0,0,1,1553,83.74Z"/><g class="ad"><path class="ae" d="M1553.18,83.62a0,0,0,0,1,0,0l0,0,0-.06a.85.85,0,0,0-.16-.17.82.82,0,0,0-.2-.12l-.06,0a.92.92,0,0,0-.29,0,.58.58,0,0,0-.19,0l-.09,0-.07,0a.21.21,0,0,0-.1.06.43.43,0,0,0-.1.09.63.63,0,0,0-.11.12,1.09,1.09,0,0,0-.08.15.73.73,0,0,0-.06.3v0a.83.83,0,0,0,.86.8.64.64,0,0,0,.2,0,1,1,0,0,0,.25-.12.65.65,0,0,0,.17-.16.82.82,0,0,0,.12-.2.58.58,0,0,0,0-.18.5.5,0,0,0,0-.17A1,1,0,0,0,1553.18,83.62Zm-.75.9a.67.67,0,0,1-.7-.65.63.63,0,0,1,.19-.49l0,0a.24.24,0,0,1,.09-.06.13.13,0,0,1,.07-.06l.09,0a1,1,0,0,1,.18,0,.73.73,0,0,1,.3.06l.06,0,.08.06a.49.49,0,0,1,.15.17.1.1,0,0,1,0,.05.64.64,0,0,1,.07.28.87.87,0,0,1,0,.28,1,1,0,0,1-.1.17A.68.68,0,0,1,1552.43,84.52Z"/></g><g class="af"><path class="ag" d="M1542.85,90.23l.11.15.32.42c.14.18.32.39.53.62s.47.49.75.75a11.83,11.83,0,0,0,1,.8c.17.14.36.27.55.4s.39.26.61.38a11.74,11.74,0,0,0,1.33.65,10,10,0,0,0,1.46.48l.37.09.38.07.19,0,.19,0,.37,0,.38,0,.37,0h.74l.71-.05.68-.08c.22,0,.43-.08.63-.12s.41-.07.6-.12c.37-.1.72-.18,1-.28s.57-.18.78-.26l.67-.25-.65.3c-.21.1-.47.19-.77.31s-.3.12-.47.17l-.54.17a5.69,5.69,0,0,1-.59.16c-.21,0-.42.1-.65.13s-.45.09-.68.11l-.73.07-.75,0c-.26,0-.51,0-.77,0l-.39,0-.19,0-.2,0-.39-.07-.39-.09a10.82,10.82,0,0,1-1.49-.49,7.56,7.56,0,0,1-.7-.34l-.33-.17-.33-.19-.31-.2-.3-.2c-.19-.15-.38-.28-.55-.42a11.45,11.45,0,0,1-.94-.86c-.28-.28-.52-.55-.72-.79s-.37-.48-.5-.67-.22-.34-.29-.44Z"/></g><polygon class="i" points="1562.83 119.08 1563.14 104.41 1544.26 104.87 1544.73 119.7 1562.83 119.08"/><path class="j" d="M1556.84,118.2c0-1.22,0-2.45-.09-3.67-.13-3,.08-6-.3-9l5.39-.13-.23,12.84Z"/><path class="j" d="M1550.44,118.25h-.68c-1.42,0-2.85.11-4.29.13l-.4-12.59,4.88-.12C1549.92,109.88,1550.22,114.06,1550.44,118.25Z"/><path class="j" d="M1551,118.23c-.25-4.18-.48-8.37-.43-12.56l5.43-.12c.16,4.21.26,8.43.37,12.65C1554.62,118.19,1552.83,118.19,1551,118.23Z"/><polygon class="i" points="1563.98 149.89 1564.29 135.22 1545.41 135.68 1545.88 150.5 1563.98 149.89"/><path class="j" d="M1558,149c0-1.23,0-2.45-.1-3.68-.13-3,.08-6-.3-9l5.39-.12-.23,12.83Z"/><path class="j" d="M1551.58,149.05h-.67c-1.41.05-2.85.11-4.28.13l-.41-12.59,4.89-.11C1551.07,140.68,1551.37,144.86,1551.58,149.05Z"/><path class="j" d="M1552.19,149c-.25-4.19-.48-8.37-.43-12.57l5.43-.12c.16,4.22.27,8.44.37,12.66C1555.77,149,1554,149,1552.19,149Z"/><polygon class="i" points="1564.48 186.54 1564.79 171.87 1545.91 172.33 1546.38 187.16 1564.48 186.54"/><path class="j" d="M1558.49,185.66c0-1.23,0-2.45-.1-3.68-.13-3,.09-6-.3-9l5.39-.12-.23,12.83Z"/><path class="j" d="M1552.08,185.7l-.67,0c-1.42,0-2.85.1-4.29.13l-.41-12.59,4.89-.12C1551.57,177.33,1551.87,181.51,1552.08,185.7Z"/><path class="j" d="M1552.68,185.69c-.25-4.19-.47-8.37-.43-12.56l5.44-.13c.16,4.22.26,8.44.36,12.66C1556.26,185.65,1554.47,185.65,1552.68,185.69Z"/><polygon class="ah" points="1635.69 180.17 1634.92 180.27 1634.15 180.17 1632.81 199.78 1634.92 199.78 1637.03 199.78 1635.69 180.17"/><polygon class="ai" points="1644.9 184.71 1646 184.71 1643.47 178.93 1644.9 178.93 1642.84 174.35 1644.11 174.35 1641.25 169.93 1643 169.93 1640.15 164.25 1641.25 164.25 1639.04 159.25 1640.62 159.25 1638.09 154.94 1639.83 154.94 1636.82 150.68 1638.25 150.68 1634.92 143.42 1631.6 150.68 1633.02 150.68 1630.01 154.94 1631.75 154.94 1629.22 159.25 1630.8 159.25 1628.59 164.25 1629.69 164.25 1626.84 169.93 1628.59 169.93 1625.73 174.35 1627 174.35 1624.94 178.93 1626.37 178.93 1623.84 184.71 1624.94 184.71 1622.25 189.97 1634.92 189.97 1647.59 189.97 1644.9 184.71"/><path class="aj" d="M1647.59,190l-2.69-5.26h1.1l-2.53-5.78h1.43l-2.06-4.58h1.27l-2.86-4.42H1643l-2.85-5.68h1.1l-2.21-5h1.58l-2.53-4.31h1.74l-3-4.26h1.43l-3.33-7.26c2.4,22.09,0,36.85-3.74,41.19a17.58,17.58,0,0,1-8.93,5.36h25.34Z"/><path class="ak" d="M1650.76,185.76s-4.6-.55-6.55-3.38-2.26-8.68,0-11.52,6.34-5,9.45-3.07,6.13,9.59,4,13.39a8.56,8.56,0,0,1-6.88,4.58Z"/><path class="al" d="M1650.76,185.76a8.56,8.56,0,0,0,6.88-4.58c2.15-3.8-.86-11.47-4-13.39a5.23,5.23,0,0,0-4.21-.52,9.81,9.81,0,0,1,3.41,1.36c1.57,1.05,5.49,9.93,1.43,12.91s-10.08.84-10.08.84c2,2.83,6.55,3.38,6.55,3.38Z"/><path class="ah" d="M1648.92,199.63s.59-16.83.42-17.35a23.91,23.91,0,0,0-2.27-3s2.69,2.2,2.94,1.29.76-7.83.76-7.83.17,7,.84,6.92,3.44-2.81,3.44-2.81-3.19,3.65-3.19,5,.25,17.74.25,17.74Z"/><path class="am" d="M1660.38,183.86s-3.66-1-5.21-6.13-1.79-18,0-23.11,5.93-9.07,8.41-5.58,4,19.62,2.27,26.51-4.19,8-5.47,8.31Z"/><path class="an" d="M1659.08,148.62c3,.32,4.57,7.28,5.21,12.3s1.15,16.12-3,17.43a5.68,5.68,0,0,1-6.31-1.5c.08.31.16.61.24.88,1.55,5.15,5.21,6.13,5.21,6.13,1.28-.33,3.76-1.42,5.47-8.31s.21-23-2.27-26.51c-1.25-1.76-2.92-1.63-4.5-.42Z"/><path class="ah" d="M1658.74,199.11s.47-18.75.33-19.38a29.8,29.8,0,0,0-1.8-3.51s2.14,2.61,2.34,1.53.6-9.27.6-9.27.13,8.28.67,8.19,2.73-3.33,2.73-3.33-2.53,4.32-2.53,5.94.2,19.83.2,19.83Z"/><path class="ao" d="M1667.72,185.85s-2.41,1.73-4-.6c0,0-2.66.67-3.26-1.79,0,0-3.2-.27-3.06-2.73,0,0-3.87-1.86-1.34-5.38,0,0-2.46-2.19.34-4.65,0,0-2.13-3.19,1.6-4.12,0,0,.33-3.79,4.06-2.92a3.36,3.36,0,0,1,4.59-2s3.23-2.39,5.06.8c0,0,3.53-.46,4.2,2.46a3.49,3.49,0,0,1,3.06,3.85s2.61,2.4,1,5.25c0,0,1.66,4.76-2,5.19a3.25,3.25,0,0,1-2,3s-.38,2.55-2.65,2.15c0,0-1.73,1.92-3,.86Z"/><path class="ap" d="M1679,168.77a3.49,3.49,0,0,0-3.06-3.85c1.69,7.31-2.44,16.65-8.86,17.49s-9.65-1.68-9.65-1.68c-.14,2.46,3.06,2.73,3.06,2.73.6,2.46,3.26,1.79,3.26,1.79,1.6,2.33,4,.6,4,.6l2.59-.6c1.26,1.06,3-.86,3-.86,2.27.4,2.65-2.15,2.65-2.15a3.25,3.25,0,0,0,2-3c3.61-.43,2-5.19,2-5.19,1.66-2.85-1-5.25-1-5.25Z"/><path class="ah" d="M1663.71,179.72s3.73.39,4,2.32-.4,17.5-.4,17.5h4s-1.74-17.5-1.14-18.77a5.17,5.17,0,0,1,2.53-2s-2.2-.05-2.93.61a3.07,3.07,0,0,1-2.66.66,12.24,12.24,0,0,0-3.4-.33Z"/><path class="ak" d="M1680.07,177.5s-10-3.36-12.32-10.57.16-17.47,9.34-21,20.86,2.57,21.49,12.51-5.63,16.65-13.79,19.06Z"/><path class="aq" d="M1698.58,158.44a13.9,13.9,0,0,0-6.55-10.71c4.64,7.32.75,21-8.75,23.45-9.35,2.39-14.42-2-14.57-2.14,3.34,5.76,11.36,8.46,11.36,8.46h4.72c8.16-2.41,14.41-9.13,13.79-19.06Z"/><path class="ah" d="M1680.87,200.33s.71-24.91.51-25.77a40.71,40.71,0,0,0-2.74-4.78s3.24,3.55,3.55,2.08.91-12.64.91-12.64.2,11.29,1,11.17,4.15-4.54,4.15-4.54-3.85,5.89-3.85,8.1.3,26.38.3,26.38Z"/><rect class="o" y="261.92" width="177" height="58"/><polygon class="ar" points="0 261.92 43.03 209.2 71.83 261.92 0 261.92"/><polygon class="n" points="43.12 209.2 143.87 210.85 177 261.92 72 261.92 43.12 209.2"/><rect class="as" x="110" y="279.92" width="14" height="38"/><polygon class="ah" points="168.68 286.18 167.91 286.28 167.15 286.18 165.8 305.8 167.91 305.8 170.03 305.8 168.68 286.18"/><polygon class="ai" points="177.89 290.72 179 290.72 176.47 284.94 177.89 284.94 175.83 280.36 177.1 280.36 174.25 275.94 175.99 275.94 173.14 270.26 174.25 270.26 172.03 265.26 173.62 265.26 171.08 260.95 172.82 260.95 169.81 256.69 171.24 256.69 167.91 249.43 164.59 256.69 166.01 256.69 163 260.95 164.75 260.95 162.21 265.26 163.8 265.26 161.58 270.26 162.69 270.26 159.84 275.94 161.58 275.94 158.73 280.36 160 280.36 157.94 284.94 159.36 284.94 156.83 290.72 157.94 290.72 155.25 295.98 167.91 295.98 180.58 295.98 177.89 290.72"/><path class="aj" d="M180.58,296l-2.69-5.26H179l-2.53-5.78h1.42l-2.06-4.58h1.27l-2.85-4.42H176l-2.85-5.68h1.11l-2.22-5h1.58L171.08,261h1.74l-3-4.26h1.43l-3.33-7.26c2.4,22.09,0,36.85-3.74,41.19a17.58,17.58,0,0,1-8.93,5.36h25.34Z"/><path class="ak" d="M183.76,291.77s-4.61-.54-6.56-3.38-2.26-8.68,0-11.52,6.34-5,9.46-3.07,6.12,9.59,4,13.39a8.52,8.52,0,0,1-6.87,4.58Z"/><path class="al" d="M183.76,291.77a8.52,8.52,0,0,0,6.87-4.58c2.15-3.8-.86-11.46-4-13.39a5.26,5.26,0,0,0-4.22-.52,9.9,9.9,0,0,1,3.42,1.36c1.57,1.05,5.48,9.93,1.42,12.91s-10.08.84-10.08.84c2,2.84,6.56,3.38,6.56,3.38Z"/><path class="ah" d="M181.91,305.65s.59-16.83.42-17.36a23.91,23.91,0,0,0-2.27-3s2.69,2.21,2.95,1.29.75-7.82.75-7.82.17,7,.84,6.91,3.45-2.81,3.45-2.81-3.2,3.65-3.2,5,.25,17.74.25,17.74Z"/><path class="am" d="M193.37,289.87s-3.66-1-5.21-6.12-1.79-18,0-23.12,5.93-9.07,8.41-5.58,4,19.62,2.27,26.51-4.18,8-5.47,8.31Z"/><path class="an" d="M192.07,254.63c3,.32,4.58,7.28,5.22,12.31s1.15,16.11-3,17.42-6.27-1.44-6.31-1.5c.07.32.15.61.23.89,1.55,5.14,5.21,6.12,5.21,6.12,1.29-.33,3.76-1.42,5.47-8.31s.21-23-2.27-26.51c-1.25-1.76-2.92-1.63-4.5-.42Z"/><path class="ah" d="M191.73,305.12s.47-18.75.33-19.38a29.8,29.8,0,0,0-1.8-3.51s2.14,2.61,2.34,1.54.6-9.28.6-9.28.13,8.28.67,8.2,2.74-3.34,2.74-3.34-2.54,4.32-2.54,5.94.2,19.83.2,19.83Z"/><path class="ao" d="M200.71,291.86s-2.4,1.73-4-.6c0,0-2.67.67-3.27-1.79,0,0-3.19-.27-3.06-2.73,0,0-3.86-1.86-1.33-5.38,0,0-2.47-2.19.33-4.65,0,0-2.13-3.19,1.6-4.12,0,0,.33-3.78,4.06-2.92a3.36,3.36,0,0,1,4.6-2s3.23-2.4,5.06.79c0,0,3.53-.46,4.19,2.46a3.52,3.52,0,0,1,3.07,3.86s2.6,2.39.94,5.24c0,0,1.66,4.76-1.94,5.19a3.28,3.28,0,0,1-2,3s-.38,2.54-2.64,2.14c0,0-1.74,1.93-3,.86Z"/><path class="ap" d="M212,274.79a3.52,3.52,0,0,0-3.07-3.86c1.69,7.31-2.44,16.66-8.85,17.49s-9.66-1.68-9.66-1.68c-.13,2.46,3.06,2.73,3.06,2.73.6,2.46,3.27,1.79,3.27,1.79,1.6,2.33,4,.6,4,.6l2.59-.6c1.26,1.07,3-.86,3-.86,2.26.4,2.64-2.15,2.64-2.15a3.27,3.27,0,0,0,2-3c3.6-.43,1.94-5.19,1.94-5.19,1.66-2.85-.94-5.24-.94-5.24Z"/><path class="ah" d="M196.71,285.73s3.73.39,4,2.32-.4,17.5-.4,17.5h4s-1.73-17.5-1.13-18.77a5.17,5.17,0,0,1,2.53-2s-2.2-.05-2.93.61a3.07,3.07,0,0,1-2.67.66,12.59,12.59,0,0,0-3.39-.33Z"/><path class="ak" d="M213.06,283.52s-10-3.37-12.32-10.58.16-17.47,9.34-21,20.87,2.56,21.49,12.5-5.63,16.66-13.79,19.07Z"/><path class="aq" d="M231.57,264.45a13.86,13.86,0,0,0-6.55-10.7c4.64,7.32.76,21-8.74,23.44s-14.43-2-14.58-2.13c3.34,5.75,11.36,8.46,11.36,8.46h4.72c8.16-2.41,14.41-9.14,13.79-19.07Z"/><path class="ah" d="M213.86,306.34s.71-24.91.51-25.77a39.33,39.33,0,0,0-2.74-4.78s3.25,3.56,3.55,2.08.91-12.64.91-12.64.21,11.3,1,11.17,4.16-4.54,4.16-4.54-3.86,5.89-3.86,8.1.31,26.38.31,26.38Z"/><g class="at"><path class="au" d="M378.55,83.65a9.85,9.85,0,0,0-9.86-9.85,9.73,9.73,0,0,0-3.25.56,9.85,9.85,0,0,0-8.63-6,9.85,9.85,0,0,0-19.36,0h-.18a9.84,9.84,0,0,0-9,5.84,9.88,9.88,0,0,0-12.76,9.42,9.34,9.34,0,0,0,.92,4,9.86,9.86,0,0,0,9.24,6.11h42.9a9.83,9.83,0,0,0,10.08-9.69v0c0-.07-.06-.14-.06-.21S378.55,83.72,378.55,83.65Z"/><path class="au" d="M378.6,83.86c0-.07,0-.14,0-.21a9.85,9.85,0,0,0-13.12-9.29,9.84,9.84,0,0,0-8.63-6A9.83,9.83,0,0,0,340,63.51a9.34,9.34,0,0,1,2.13-.25,9.86,9.86,0,0,1,9.68,8,9.85,9.85,0,0,1,8.63,6,9.75,9.75,0,0,1,3.26-.57,9.85,9.85,0,0,1,9.85,9.86c0,.06.05.14.05.21s.07.14.07.2v0a10,10,0,0,1-2.78,6.87,10.06,10.06,0,0,0,7.82-9.76v0C378.66,84,378.6,83.93,378.6,83.86Z"/></g><g class="av"><path class="au" d="M287.77,36.16A15.29,15.29,0,0,0,267.4,21.72,15.3,15.3,0,0,0,254,12.48a15.3,15.3,0,0,0-30.07,0h-.28a15.3,15.3,0,0,0-14,9.08,15.31,15.31,0,0,0-19.82,14.63,14.33,14.33,0,0,0,1.43,6.24,15.32,15.32,0,0,0,14.35,9.49h66.67c8.55,0,15.66-6.49,15.66-15v0c0-.1-.1-.22-.1-.32S287.77,36.26,287.77,36.16Z"/><path class="au" d="M287.85,36.49c0-.11-.06-.23-.06-.33a15.3,15.3,0,0,0-20.38-14.44A15.32,15.32,0,0,0,254,12.48a15.28,15.28,0,0,0-26.2-7.62,15.15,15.15,0,0,1,3.32-.38,15.31,15.31,0,0,1,15,12.48,15.3,15.3,0,0,1,13.41,9.24,15.29,15.29,0,0,1,20.37,14.44c0,.11.08.22.08.33s.1.22.1.32v0A15.47,15.47,0,0,1,275.8,52,15.64,15.64,0,0,0,288,36.85v0C288,36.71,287.85,36.59,287.85,36.49Z"/></g><g class="av"><path class="au" d="M1256.86,111.21a8.32,8.32,0,0,0-8.31-8.32,8.07,8.07,0,0,0-2.75.48,8.32,8.32,0,0,0-7.29-5,8.31,8.31,0,0,0-16.33,0H1222a8.31,8.31,0,0,0-7.6,4.93,8.21,8.21,0,0,0-2.45-.37,8.32,8.32,0,0,0-8.31,8.32,6.78,6.78,0,0,0,.77,3.14,8.12,8.12,0,0,0,7.8,4.9h36.21c4.65,0,8.51-3,8.51-7.67v0c0-.06,0-.12-.06-.18S1256.86,111.26,1256.86,111.21Z"/><path class="au" d="M1256.9,111.38s0-.12,0-.17a8.32,8.32,0,0,0-8.31-8.32,8.07,8.07,0,0,0-2.75.48,8.32,8.32,0,0,0-7.29-5,8.32,8.32,0,0,0-12.36-5.64,8.31,8.31,0,0,1,7.88,6.76,8.32,8.32,0,0,1,7.29,5,8.07,8.07,0,0,1,2.75-.48,8.32,8.32,0,0,1,8.31,8.32c0,.06,0,.12,0,.17s.06.12.06.18v0a7.28,7.28,0,0,1-3.93,6.55c4.6,0,8.41-3.06,8.41-7.67v0C1257,111.5,1256.91,111.44,1256.9,111.38Z"/><path class="au" d="M1207.79,104a8.48,8.48,0,0,1,2.16.35,8.7,8.7,0,0,1,.81-1.39A8.41,8.41,0,0,0,1207.79,104Z"/></g><path class="aw" d="M1920,183.43V319.92H0s40.32-3.83,110-10.19l14-1.29,41.88-3.8,4-.36,7.08-.64,5-.45,3.06-.28,6.74-.61,2.44-.22,6.22-.56,3.43-.3L214,300.3l3.62-.32c312.58-28,900.61-78.31,1351.25-102.83q32.67-1.78,64.33-3.37l3.39-.17,12.52-.62,2.87-.14,6.89-.34,2.31-.11,1.09-.05,5.29-.25,3-.15,10.49-.49,3.5-.16c44.74-2.08,87.53-3.81,127.9-5.16,28.2-.94,55.22-1.68,80.88-2.22Q1907,183.64,1920,183.43Z"/><path class="ax" d="M846.93,242.16l3,2.67c.62.53.92.93,1.58.72,1.63-.52,8.06-7.21,7.11-9-.38-.73-.69-.19-2.32.73a10.6,10.6,0,0,1-4.44,1.69,9.27,9.27,0,0,1-1.82-.06Z"/><path class="ay" d="M847.42,242.59l2.53,2.24c.62.53.92.93,1.58.72,1.63-.52,8.06-7.21,7.11-9-.38-.73-.69-.19-2.32.74l-.12.06a6.55,6.55,0,0,1,.07,1.81,10.34,10.34,0,0,1-3.75,3.26c-.92.22-1.64-.66-3.14-.43a8,8,0,0,0-2,.61Z"/><path class="ay" d="M852.84,239.76c0,.17.32,2.94.24,3s-.94.4-.93.3-.06-3.2,0-3.22l.68,0Z"/><path class="ay" d="M853.54,239.34c0,.16.59,2.55.59,2.55l.64-.71s-.58-2.24-.64-2.21l-.59.37Z"/><path class="ay" d="M855.36,237.8a8.54,8.54,0,0,1-3.48,1.16h-1.09s-.27,1.18.39,1.45,3.36-.89,4.05-1.31c.52-.32.32-.91.13-1.3Z"/><path class="az" d="M849.86,244.75l.09.08c.62.53.92.93,1.58.72,1.63-.52,8.06-7.21,7.11-9-.14-.26-.26-.36-.44-.34-.26.22.11.86-.81,2.39a39,39,0,0,1-6,6.13c-.33.11-1.09-.07-1.49,0Z"/><path class="ax" d="M808.87,232c-.5-.27-3.16-1.8-4-2.25s-1.24-.82-1.93-.44c-1.68,1-7.26,9.88-5.78,11.66.59.71.81.05,2.41-1.36a11.87,11.87,0,0,1,4.52-2.9,10.16,10.16,0,0,1,2-.36Z"/><path class="ay" d="M808.23,231.61l-3.33-1.89c-.81-.45-1.24-.82-1.93-.44-1.68,1-7.26,9.88-5.78,11.66.59.71.81.05,2.41-1.36l.11-.1a7.6,7.6,0,0,1-.5-2c0-.72,2.42-4,3.39-4.49s2,.34,3.59-.26a9.32,9.32,0,0,0,2-1.13Z"/><path class="ay" d="M802.87,236c0-.19-1-3.18-1-3.22s.94-.67,1-.56.81,3.55.74,3.58-.75.2-.75.2Z"/><path class="ay" d="M802.2,236.64c-.07-.18-1.26-2.68-1.26-2.68l-.54.93s1.17,2.34,1.23,2.3.57-.55.57-.55Z"/><path class="ay" d="M800.54,238.78a9.45,9.45,0,0,1,3.58-2.1c.51-.13.91-.21,1.22-.26,0,0,0-1.38-.78-1.52s-3.52,1.77-4.18,2.4c-.5.48-.15,1.08.16,1.48Z"/><path class="az" d="M805,229.78l-.11-.06c-.81-.46-1.24-.82-1.93-.44-1.68,1-7.26,9.88-5.78,11.66.21.25.37.33.56.27.25-.3-.32-.93.35-2.84a42.64,42.64,0,0,1,5.28-8.2c.33-.21,1.21-.18,1.63-.39Z"/><g class="ba"><rect class="bb" x="803.11" y="211.74" width="54.07" height="54.07" transform="translate(193.08 822.13) rotate(-58.53)"/></g><g class="bc"><rect class="bd" x="822.05" y="218.65" width="37.43" height="37.43" transform="translate(199.39 830.54) rotate(-58.53)"/></g><g class="be"><rect class="bf" x="828.9" y="202.15" width="28.34" height="29.35" transform="translate(320.45 912.99) rotate(-67.53)"/></g><g class="x"><g class="bg"><path class="bh" d="M834.5,218.92c1.35,1.73,2.74,3.18,3.67,3.25,2.25.18,10.86.93,11.31.9s.55.76,2.82.6c.45,0,.86-.09,1.23-.16-.6,0-1.38,0-1.91-.11a3.89,3.89,0,0,1-1.93-.65c-.32-.25-10.89-.81-11.91-1.5s-1.87-3.57-1.87-3.57Z"/></g></g><path class="bi" d="M853,220l-.75-.47a3.12,3.12,0,0,1-.32.1,7.41,7.41,0,0,1-.09,1,5.31,5.31,0,0,1-.89,1,4.77,4.77,0,0,0,.92,1.14c.32.14,1.35.22,1.58,0s.24-.37.16-1.22A3.56,3.56,0,0,0,853,220Z"/><g class="bj"><rect class="bk" x="830.08" y="209.6" width="9.07" height="11.01" transform="translate(-27.16 201.17) rotate(-13.53)"/></g><path class="ay" d="M823.74,206a11,11,0,0,0-6.55,3.79c-1.21,1.75-.89,1.9-.89,1.9-.26,3.43-3.24,14.14,2,15,2.18.36,5.2-.9,5.61-1.64s.28-6.13.73-8,3.27-6.65,2.67-8.55-3.55-2.42-3.55-2.42Z"/><path class="bl" d="M817.46,226.38a2.69,2.69,0,0,0,.82.24c2.18.36,5.2-.9,5.61-1.64s.28-6.13.73-8,3.28-6.65,2.67-8.55c0-.09-.07-.19-.11-.28-1.13.93-2.78,4.79-3.39,7.12-.69,2.67-.71,8.94-1.52,9.74s-3.89,1.27-4.81,1.42Z"/><path class="bm" d="M822.18,205.34c-1,.31-4.07,2.61-4,3.22s3.25-1.38,4.87-1.53,3.05,1.11,3.92,1.36.86-.77.23-1.43a5.57,5.57,0,0,0-3.3-1.74,3.78,3.78,0,0,0-1.72.12Z"/><path class="bn" d="M828.68,208.13c-.21-1.74-5.61-6.23-10.07-1.32-1.15,1.27-4,3.87-3.15,5s3.37-4.93,6.91-5.25,4.78,1.52,5,2.43,1.3-.82,1.3-.82Z"/><path class="ay" d="M832.49,208.28c1-.05,3.11,2.53,3.37,4.08,1.13,6.74-5.51,10.17-5.91,8.75s3.08-1.29,3.66-5.79-1.93-6-2.38-6.54,1.26-.5,1.26-.5Z"/><path class="ax" d="M829.55,207.75c-5.43,1.55-5.54,15.39-6.19,19.75-.25,1.68-.88,3.29-.72,3.31,5.76-.95,6,1.86,8.64,1.69s5.24-2.46,4.7-3c-2.32-2.3-.28-15.76-1.76-18.72a9,9,0,0,0-4.67-3Z"/><path class="bo" d="M826.13,211.43c-2.11,4.84-2.3,12.92-2.77,16.07-.25,1.68-.88,3.29-.72,3.31,5.76-.95,6,1.86,8.64,1.69,2.28-.14,4.53-1.87,4.76-2.69a1.25,1.25,0,0,0,0-.21h0a6.3,6.3,0,0,1-1.38,1.08,7,7,0,0,1-4.8.53c-2.19-.51-2.14-1.34-3.3-1.41s-2.28-.43-2.23-2,1.49-11.87,1.49-11.87,1.46-.12,3.29-.24a3.17,3.17,0,0,0,2.91-3.06c0-1.24-2.24-1.56-2.65-1.69,0,0-1.65.23-3.24.49Z"/><g class="bp"><rect class="bq" x="830.07" y="206.24" width="4.28" height="7.13" transform="translate(-25.99 200.78) rotate(-13.55)"/></g><g class="br"><rect class="bs" x="837.06" y="200.72" width="6.57" height="6.09" transform="translate(-24.35 202.29) rotate(-13.53)"/></g><g class="bt"><rect class="bu" x="837.17" y="199.96" width="6.99" height="3.69" transform="translate(-23.88 202.03) rotate(-13.51)"/></g><g class="bv"><rect class="bw" x="835.81" y="203.4" width="7.26" height="3.08" transform="translate(-24.65 201.93) rotate(-13.52)"/></g><g class="bx"><rect class="by" x="817.25" y="184.27" width="33.31" height="33.31" transform="translate(227.19 807.27) rotate(-58.53)"/></g><g class="x"><g class="bz"><path class="bh" d="M843.13,205.5c-4,4.34-13.84,2.85-17.35-2.18a2.72,2.72,0,0,1,.69-.38s2.07-.41,2.34-.38a5.19,5.19,0,0,1,1.65.57c.14.19-.12,1.77.4,2.35,2.55,2.89,8.44,2,12.27,0"/></g></g><g class="x"><g class="ca"><path class="bh" d="M845.36,197.38a.62.62,0,0,1,0,.31,15.31,15.31,0,0,1-.69,1.9s-1.51.19-1.57,0,.66-.11.94-.4,1-1.61,1.28-1.83"/></g></g><g class="cb"><rect class="cc" x="818.79" y="185.45" width="27.13" height="20.61" transform="translate(-22.7 200.12) rotate(-13.53)"/></g><g class="x"><g class="cd"><path class="ce" d="M843.46,187.27a5.18,5.18,0,0,0-.63-3.31,3.5,3.5,0,0,1-.16,3.08c-1,2.16-4.56,2.38-6.85,2.93a9.75,9.75,0,0,0-2.83.91c-.21.11-.55,1.24-.55,1.24s.14,0,.45,1.53c.79,3.77-1.58,3.19-.4,7.12a5.85,5.85,0,0,0,1.38,2s-1.66-3.12-.79-3.86c2.28-1.95.54-5.83.65-6.08A2.27,2.27,0,0,1,836,191c3.56,0,6.68.75,7.45-3.77"/></g></g><g class="cf"><rect class="cg" x="836.61" y="194.19" width="5.51" height="1.74" transform="translate(-20.85 144.02) rotate(-9.69)"/></g><path class="bm" d="M840.51,197.46a.67.67,0,1,0-.67-.51.61.61,0,0,0,.67.51Z"/><g class="x"><g class="ch"><path class="ce" d="M826.68,205.69a3.41,3.41,0,0,1-1.1-.05h-.09a.84.84,0,0,0,.85.44c.69,0,1-.2.92-.12l.62-.5c.31-.26.62-.52.64-.55s-.35.21-.8.43a3.53,3.53,0,0,1-1,.37"/></g></g><g class="x"><g class="ci"><path class="ce" d="M828.18,205.84a3,3,0,0,1-1.49.64,3.63,3.63,0,0,0,2.31-.31c1-.58,1.24-1.79,1-3a2.8,2.8,0,0,0-.45-.33,4.79,4.79,0,0,1-1.27,3l-.13.1"/></g></g><g class="x"><g class="cj"><path class="ce" d="M823.37,191.64c0-.38.58-2.55,3.65-3.85s6.57-1,9.06-1.45a10.83,10.83,0,0,0,4.66-1.76,3.18,3.18,0,0,0,.4-.48s-.15.85-1.74,1.79a13.55,13.55,0,0,1-3.25,1.33,11,11,0,0,0,3.4-.79,7,7,0,0,0,2.25-2.3,5.65,5.65,0,0,1-1,2.05,12.07,12.07,0,0,1-2.5,1.86,10.61,10.61,0,0,0,3-1.51c.81-.79,1.29-1.52,1.24-1.39a3.89,3.89,0,0,1-1.76,2.71c-1.71,1.26-7.13,1.13-9,2.38a13.33,13.33,0,0,0-3,2.74,26.43,26.43,0,0,1,2.8-1.09,7.74,7.74,0,0,0-2.35,2.32c-.49.76-.74,1.2-.57,1s3-1.33,2.68-1.2a24.61,24.61,0,0,0-2,3.24l.44-1.77a9.31,9.31,0,0,0-2.49,2.47,16.4,16.4,0,0,0-1.44,3.35,15.72,15.72,0,0,1,.67-5.09,19.39,19.39,0,0,1,.9-2.31s-2.77,3.46-2.71,3.23a6.7,6.7,0,0,1,.89-4.37,24.79,24.79,0,0,1,2.76-3.7,10.85,10.85,0,0,0-3.45,2.15c-1.15,1.18-1.78,2.43-1.73,2.16s.12-1.76.12-1.76"/></g></g><path class="bn" d="M820.92,216.26c-.35,0-4.89-.91-5.06-.47a58.38,58.38,0,0,0-.26,8.25c.58,3.15,5.21,1.4,5.7.58.34-.55.34-7.22.22-7.83s-.6-.53-.6-.53Z"/><path class="ck" d="M821.74,215.89c-.52-.23-5.76-1.41-6.09-.49s-.58,1.74,1.13,2.76,4.68.1,5-.71a2,2,0,0,0,0-1.56Z"/><g class="x"><g class="cl"><path class="cm" d="M815.83,243.86c1.69,1.22,3.62,2,4.94,1.14s7.7-8.18,8.13-8.34a4.58,4.58,0,0,0-1.38-1.46,29.68,29.68,0,0,1-3-3.08,4.11,4.11,0,0,0,1.18,1.87c1,1,2.55,2.24,2.71,2.41s-7.18,7.38-8.95,7.66-7.11-3-8.87-4.54-1.78-1.82-2.49-2.37-1.49-.37-2.14-1.56a3.28,3.28,0,0,1-.12-2.53,15.22,15.22,0,0,0-2,3.73.25.25,0,0,0,0,.2c.06.1,10.74,6,11.91,6.87"/></g></g><g class="x"><g class="cn"><path class="cm" d="M828.9,236.66a22.94,22.94,0,0,1,5.45.35c2.77.38,6.2.08,7.52,1.69s9,8,9.63,8.06a.53.53,0,0,0,.27-.13A27.54,27.54,0,0,0,856,242l.25-.62.07-.16-.13.16c-.55.72-2.73,3.5-3.71,3.56a2.71,2.71,0,0,1-1.86-.54c-.4-.25-.86-.59-1.49-1a46.46,46.46,0,0,1-5.85-5.18c-.16-.43-.84-.21-1.15-.42a10.35,10.35,0,0,0-1.24-.9c-.36-.17-10.21-.66-12.08-1.38s-4.3-3.36-4.3-3.36a28.6,28.6,0,0,0,3,3.08,4.42,4.42,0,0,1,1.38,1.46"/></g></g><rect class="co" x="807.68" y="209.17" width="9.33" height="14.37" transform="translate(227 819.76) rotate(-60.78)"/><rect class="cp" x="805.94" y="209.36" width="9.33" height="14.38" transform="translate(225.82 818.21) rotate(-60.77)"/><rect class="cq" x="805.05" y="213.85" width="5.73" height="1.93" transform="translate(225.85 814.88) rotate(-60.76)"/><g class="cr"><rect class="cs" x="803.17" y="201.67" width="29.82" height="24.93" transform="translate(91.2 646.29) rotate(-45.4)"/></g><g class="x"><g class="ct"><path class="bh" d="M805.34,218.61a.82.82,0,0,0,.12.67.89.89,0,0,0,.81.18s-.12.24.27.56a.88.88,0,0,0,.7.25,1.1,1.1,0,0,0,.41.62,1,1,0,0,0,.71.06c.26.67.74.67,1.13.13s1-2.38,1.2-2.25a1.89,1.89,0,0,1,.78.92c.38,1.27,1.64,1.89,1.7,1.21a10.66,10.66,0,0,0-.81-2.3,10.94,10.94,0,0,1-.66-2.58,54.35,54.35,0,0,1,8-5c.43,0,4.23,1.35,7,2.15l.47-.68s-7-2-7.52-1.95-1.63.86-4,2.3a24.15,24.15,0,0,0-4.21,3.07,6.08,6.08,0,0,0,.51,1.93A27,27,0,0,1,813,221c-.07.14-.61-.09-.94-.51s-1.1-2-1.19-2.13-.27,0-.6.4-1.14,2.53-1.38,2.43-.44-.48-.4-.54-.41.14-.71-.06a1,1,0,0,1-.37-.64,1.27,1.27,0,0,1-.75-.24c-.24-.24-.11-.7-.11-.7a2.17,2.17,0,0,1-.93,0,.77.77,0,0,1-.31-.38"/></g></g><g class="cu"><rect class="cv" x="818.61" y="203.94" width="15.25" height="15.25" transform="translate(214.39 805.76) rotate(-58.52)"/></g><path class="cw" d="M828.61,220.48c-.85.43-6.74,3.62-6.74,3.62s-.26-1-.1-1,6-3.12,6-3.12Z"/><path class="ay" d="M829.49,208.07c1,0,3.11,2.53,3.37,4.08,1.13,6.74-5.51,10.17-5.91,8.75s3.08-1.29,3.66-5.78-1.93-6-2.38-6.55,1.26-.5,1.26-.5Z"/><path class="cx" d="M827.06,221.08a.42.42,0,0,1-.11-.18c-.4-1.39,3.08-1.29,3.66-5.78s-1.93-6-2.38-6.55c-.13-.15-.08-.25.06-.33a3.75,3.75,0,0,1,2.15,2.44c2.24,5.91-1.16,8.06-3.26,9.78a.83.83,0,0,0-.12.62Z"/><path class="cy" d="M831.28,232.5c-2.37.15-2.81-2.11-7.07-1.87,0,.25,2.08.33,3.07.71a15.81,15.81,0,0,0,3.2,1.3,5.6,5.6,0,0,0,3.18-.59c.57-.38,1.35-.82,1.65-1.06l-.21-.06a7.19,7.19,0,0,1-3.82,1.57Z"/><path class="cz" d="M840.57,197c.12,0,.18-.17.15-.32a.26.26,0,0,0-.28-.21.28.28,0,0,0,.13.53Z"/><g class="da"><rect class="db" x="827.93" y="198.84" width="3.15" height="3.81" transform="translate(-23.94 199.66) rotate(-13.53)"/></g><g class="dc"><rect class="dd" x="851.87" y="217.17" width="3.28" height="3.68" transform="translate(325.11 924.16) rotate(-67.55)"/></g><g class="x"><g class="de"><path class="bh" d="M855,218.46c.14.35.1.57-.31.79a4.69,4.69,0,0,1-2.4.57.49.49,0,0,1-.27-.3,1.63,1.63,0,0,0,.76.08,5.3,5.3,0,0,0,1.95-.64,1.81,1.81,0,0,0,.27-.5"/></g></g><g class="df"><rect class="dg" x="852.52" y="219.39" width="3.16" height="3.59" transform="translate(323.17 925.83) rotate(-67.52)"/></g><g class="dh"><rect class="di" x="852.75" y="220.66" width="3.16" height="3.59" transform="translate(322.67 927.23) rotate(-67.57)"/></g><g class="x"><g class="dj"><path class="bh" d="M855.92,222c.12.37.05.58-.38.78a4.75,4.75,0,0,1-2.43.37.5.5,0,0,1-.24-.32,1.76,1.76,0,0,0,.75.14,5.24,5.24,0,0,0,2-.49,1.66,1.66,0,0,0,.31-.48"/></g></g><g class="x"><g class="dk"><path class="bh" d="M855.68,220.76c.12.37.06.58-.37.78a4.81,4.81,0,0,1-2.44.37.52.52,0,0,1-.24-.32,1.63,1.63,0,0,0,.75.13,5.38,5.38,0,0,0,2-.48,1.8,1.8,0,0,0,.3-.48"/></g></g><g class="dl"><rect class="dm" x="852.42" y="218.33" width="3.16" height="3.59" transform="translate(324.32 925.26) rotate(-67.54)"/></g><g class="x"><g class="dn"><path class="bh" d="M855.59,219.7c.11.37,0,.58-.38.77a4.66,4.66,0,0,1-2.43.38.46.46,0,0,1-.24-.32,1.71,1.71,0,0,0,.74.14,5.44,5.44,0,0,0,2-.49,1.66,1.66,0,0,0,.31-.48"/></g></g><g class="do"><rect class="dp" x="851.63" y="218.83" width="2.6" height="2.51" transform="translate(324.19 924.62) rotate(-67.58)"/></g><g class="x"><g class="dq"><path class="bh" d="M851.84,219.26a2.43,2.43,0,0,1-.11,1.3,9.77,9.77,0,0,1-.86,1.11,3.41,3.41,0,0,0,.82-.75,1.56,1.56,0,0,0,.29-1.24s.78,1.82,1.81,1.21c.42-.26-.74-2.68-1.19-2.89a1,1,0,0,0-1,.05,1.3,1.3,0,0,1,1.54.83c.29.58,1.11,1.63.52,2s-1.79-1.62-1.79-1.62"/></g></g></g></svg>